<?xml version="1.0" encoding="UTF-8"?>
<!DOCTYPE svg PUBLIC "-//W3C//DTD SVG 1.1//EN" "http://www.w3.org/Graphics/SVG/1.1/DTD/svg11.dtd">
<!-- Creator: CorelDRAW X7 -->
<svg xmlns="http://www.w3.org/2000/svg" xml:space="preserve" width="51px" height="51px" version="1.1" style="shape-rendering:geometricPrecision; text-rendering:geometricPrecision; image-rendering:optimizeQuality; fill-rule:evenodd; clip-rule:evenodd"
viewBox="0 0 1732 1732"
 xmlns:xlink="http://www.w3.org/1999/xlink">
 <defs>
  <style type="text/css">
   <![CDATA[
    .fil1 {fill:white;fill-opacity:0.850980}
    .fil0 {fill:url(#id0)}
   ]]>
  </style>
  <linearGradient id="id0" gradientUnits="userSpaceOnUse" x1="-0" y1="866.047" x2="1732.09" y2="866.047">
   <stop offset="0" style="stop-opacity:1; stop-color:#962118"/>
   <stop offset="1" style="stop-opacity:1; stop-color:#CC322D"/>
  </linearGradient>
 </defs>
 <g id="Слой_x0020_1">
  <metadata id="CorelCorpID_0Corel-Layer"/>
  <g id="_2542980717184">
   <path class="fil0" d="M0 803l0 126c9,20 8,61 13,86 23,129 75,254 150,357 31,42 58,73 94,110 9,10 16,16 26,25 9,7 18,15 27,23 19,16 36,29 58,44 87,60 169,101 276,129 29,8 55,13 84,18 20,3 79,7 90,11l96 0c27,-9 153,-2 320,-82 87,-41 197,-116 263,-190l69 -84c26,-34 55,-82 77,-126 22,-44 41,-95 56,-146 8,-29 14,-54 19,-83 5,-27 4,-67 14,-89l0 -132c-10,-22 -9,-62 -14,-89 -5,-29 -11,-55 -19,-83 -15,-52 -33,-101 -57,-146 -31,-61 -76,-134 -122,-182 -8,-9 -14,-18 -23,-28 -8,-9 -14,-14 -25,-25l-54 -48c-126,-100 -257,-165 -420,-189 -19,-3 -75,-6 -87,-10l-102 0c-16,6 -67,9 -90,13 -147,25 -304,96 -413,192l-76 72c-26,31 -42,48 -68,85 -160,222 -148,410 -162,441z"/>
   <g>
    <path class="fil1" d="M866 784c-37,-31 -185,-185 -232,-232 -28,-27 -89,-96 -119,-114 -62,-37 -140,20 -127,90 7,41 81,103 106,128l293 293c55,55 98,60 156,2 21,-21 38,-38 58,-58l233 -233c26,-27 99,-89 109,-128 17,-69 -58,-129 -121,-97 -27,15 -248,242 -296,290 -19,19 -41,43 -60,59z"/>
    <path class="fil1" d="M866 1097c-37,-31 -185,-185 -232,-232 -28,-27 -89,-96 -119,-114 -62,-37 -140,20 -127,90 7,41 81,103 106,128l293 293c55,55 98,60 156,2 21,-21 38,-38 58,-58l233 -233c26,-27 99,-89 109,-128 17,-69 -58,-129 -121,-97 -27,15 -248,242 -296,290 -19,19 -41,43 -60,59z"/>
   </g>
  </g>
 </g>
</svg>
