<?xml version="1.0" encoding="UTF-8"?>
<!DOCTYPE svg PUBLIC "-//W3C//DTD SVG 1.1//EN" "http://www.w3.org/Graphics/SVG/1.1/DTD/svg11.dtd">
<!-- Creator: CorelDRAW X7 -->
<svg xmlns="http://www.w3.org/2000/svg" xml:space="preserve" width="257px" height="257px" version="1.1" style="shape-rendering:geometricPrecision; text-rendering:geometricPrecision; image-rendering:optimizeQuality; fill-rule:evenodd; clip-rule:evenodd"
viewBox="0 0 87362 87362"
 xmlns:xlink="http://www.w3.org/1999/xlink">
 <defs>
  <style type="text/css">
   <![CDATA[
    .fil1 {fill:#333333}
    .fil0 {fill:white}
   ]]>
  </style>
 </defs>
 <g id="Слой_x0020_1">
  <metadata id="CorelCorpID_0Corel-Layer"/>
  <g id="_1770744719520">
   <circle class="fil0" cx="43681" cy="43681" r="43681"/>
   <g>
    <path class="fil1" d="M23145 37310c-614,2173 -908,5367 -973,8861 0,0 0,17854 0,17854 0,0 5147,-2 7398,-1 7422,2 13328,-2621 17540,-8008 434,-556 781,-1084 1257,-1841 1804,-2869 2829,-6414 3400,-9703 575,-3317 366,-5741 2708,-9130 1091,-1577 2356,-2840 4092,-3866 2854,-1685 4864,-2019 8076,-2010 0,0 -28,-8215 -28,-8215 -5197,10 -10242,1420 -14113,4356 -4600,3489 -7619,8960 -8352,14362 -159,1179 -270,2592 -475,3721 -463,2548 -1036,4415 -2229,6258 -2273,3511 -6751,6387 -10903,5894 0,0 22,-12462 178,-14856 1037,-5491 5028,-10017 10764,-11198 1685,-347 3105,-318 4409,-332 484,-1711 2753,-4795 6458,-6809 -12831,-4247 -25457,1401 -29207,14663z"/>
    <path class="fil1" d="M65432 36397c-600,-1678 -1293,-2928 -1968,-4370 -2494,10 -6158,2639 -6945,4213 103,601 641,1463 892,2120 223,582 530,1534 632,2205 61,994 218,1756 225,2820 25,3568 -44,20631 -44,20640l8383 0c0,0 -31,-9044 -31,-11336 0,-4915 545,-11565 -1144,-16292z"/>
   </g>
  </g>
 </g>
</svg>
