<?xml version="1.0" encoding="UTF-8"?>
<!DOCTYPE svg PUBLIC "-//W3C//DTD SVG 1.1//EN" "http://www.w3.org/Graphics/SVG/1.1/DTD/svg11.dtd">
<!-- Creator: CorelDRAW X7 -->
<svg xmlns="http://www.w3.org/2000/svg" xml:space="preserve" width="257px" height="257px" version="1.1" style="shape-rendering:geometricPrecision; text-rendering:geometricPrecision; image-rendering:optimizeQuality; fill-rule:evenodd; clip-rule:evenodd"
viewBox="0 0 359172 359172"
 xmlns:xlink="http://www.w3.org/1999/xlink">
 <defs>
  <style type="text/css">
   <![CDATA[
    .fil1 {fill:#333333}
    .fil0 {fill:white}
   ]]>
  </style>
 </defs>
 <g id="Слой_x0020_1">
  <metadata id="CorelCorpID_0Corel-Layer"/>
  <g id="_1770886015408">
   <circle class="fil0" cx="179586" cy="179586" r="179586"/>
   <g>
    <g>
     <path class="fil1" d="M231426 96931c-5255,-23005 -18425,-41719 -20241,-44744 -2870,4291 -13373,20825 -18712,39116 -5833,20471 -6690,38623 -4678,56421 1998,17871 9546,36233 9546,36233 4011,9569 10017,19910 13930,24976 5732,-7457 18910,-29691 23018,-58676 2287,-16180 2386,-30320 -2863,-53326l0 0zm-20241 106232c-2581,-4853 -6591,-14071 -6971,-28423 -98,-13788 5438,-25679 7057,-28139 1443,2462 6212,12802 6782,26944 386,13789 -4201,24692 -6868,29618zm18715 -67187c-196,8794 -1246,18082 -2582,23639 479,-9568 -668,-23005 -2864,-33557 -2194,-10485 -8407,-28071 -13366,-36162 -4579,7739 -10222,22934 -13177,36091 -2969,13155 -3053,29125 -3053,33909 -789,-4011 -2758,-18431 -2203,-32855 464,-11889 3250,-24200 4777,-29828 5825,-18784 12418,-30816 13656,-32714 1239,1898 9539,16744 13845,32291 4285,15548 5149,30462 4967,39187l0 -1zm0 0l0 0 0 0z"/>
    </g>
    <path class="fil1" d="M220100 214278l-39954 0 0 26806c37,0 65,-71 99,-71 9413,-9427 24681,-9427 34100,0 9413,9356 9413,24623 0,34050 -42,69 -85,69 -126,140 -50,0 -99,73 -142,142 -9391,9287 -21660,13930 -33931,13930 -12325,0 -24651,-4643 -34049,-14072 -16576,-16532 -18539,-42211 -5903,-60925 1734,-2574 3710,-4977 5903,-7176 9398,-9425 21724,-14070 34049,-14070l0 -64443c-47361,0 -85752,38343 -85752,85689 0,47347 38391,85761 85752,85761 24694,0 46940,-10483 62585,-27156l0 -58605 -22631 0z"/>
   </g>
  </g>
 </g>
</svg>
