<?xml version="1.0" encoding="UTF-8"?>
<!DOCTYPE svg PUBLIC "-//W3C//DTD SVG 1.1//EN" "http://www.w3.org/Graphics/SVG/1.1/DTD/svg11.dtd">
<!-- Creator: CorelDRAW X7 -->
<svg xmlns="http://www.w3.org/2000/svg" xml:space="preserve" width="257px" height="257px" version="1.1" style="shape-rendering:geometricPrecision; text-rendering:geometricPrecision; image-rendering:optimizeQuality; fill-rule:evenodd; clip-rule:evenodd"
viewBox="0 0 65043 65043"
 xmlns:xlink="http://www.w3.org/1999/xlink">
 <defs>
  <style type="text/css">
   <![CDATA[
    .fil1 {fill:#333333}
    .fil2 {fill:#FABA03}
    .fil0 {fill:white}
   ]]>
  </style>
 </defs>
 <g id="Слой_x0020_1">
  <metadata id="CorelCorpID_0Corel-Layer"/>
  <g id="_1770879627776">
   <circle class="fil0" cx="32521" cy="32521" r="32521"/>
   <g>
    <path class="fil1" d="M49816 37318l-23495 8960c-3889,2508 -3106,11040 8558,8778 3264,-633 5221,-1975 7263,-3535 4457,-3403 4614,-7822 5644,-10573 646,-1725 1471,-2485 2030,-3630z"/>
    <path class="fil2" d="M16019 42002c-162,1603 1130,2605 2375,3069 1715,639 3246,-53 4724,-613 2704,-1024 5570,-2118 8311,-3165 5775,-2205 11226,-4199 16918,-6406 -1598,-453 -3264,-2152 -3905,-3661 0,0 -28423,10776 -28423,10776z"/>
    <path class="fil2" d="M15898 38819c0,0 28814,-10915 28814,-10915 -3106,-657 -4227,-3264 -4227,-3264 0,0 -20932,8039 -20932,8039 -1561,1109 -3601,3402 -3655,6140z"/>
    <path class="fil1" d="M19963 29212l20854 -7798c-1264,-788 -3551,-808 -5090,-3800 -984,-1914 -1868,-7064 -1868,-7064 -1337,1393 -2401,2789 -3655,4336 -2065,2550 -9494,12145 -10241,14326z"/>
   </g>
  </g>
 </g>
</svg>
