<?xml version="1.0" encoding="UTF-8"?>
<!DOCTYPE svg PUBLIC "-//W3C//DTD SVG 1.1//EN" "http://www.w3.org/Graphics/SVG/1.1/DTD/svg11.dtd">
<!-- Creator: CorelDRAW X7 -->
<svg xmlns="http://www.w3.org/2000/svg" xml:space="preserve" width="330px" height="330px" version="1.1" style="shape-rendering:geometricPrecision; text-rendering:geometricPrecision; image-rendering:optimizeQuality; fill-rule:evenodd; clip-rule:evenodd"
viewBox="0 0 37239 37239"
 xmlns:xlink="http://www.w3.org/1999/xlink">
 <defs>
  <style type="text/css">
   <![CDATA[
    .fil2 {fill:#3A5569}
    .fil5 {fill:#64798A}
    .fil6 {fill:#CCCCCC}
    .fil4 {fill:#D1D4D7}
    .fil3 {fill:#E6EAEE}
    .fil1 {fill:white}
    .fil0 {fill:url(#id0)}
   ]]>
  </style>
  <linearGradient id="id0" gradientUnits="userSpaceOnUse" x1="-0" y1="18619.6" x2="37239.1" y2="18619.6">
   <stop offset="0" style="stop-opacity:1; stop-color:#972118"/>
   <stop offset="1" style="stop-opacity:1; stop-color:#C9312C"/>
  </linearGradient>
 </defs>
 <g id="Слой_x0020_1">
  <metadata id="CorelCorpID_0Corel-Layer"/>
  <g id="_2151899471936">
   <circle class="fil0" cx="18620" cy="18620" r="18620"/>
   <path class="fil1" d="M8298 23568l20852 0c81,-4186 3,-8453 3,-12648 0,-1509 275,-2153 -1033,-2148l-15711 1c-4637,0 -4114,-405 -4114,2198 0,4178 -77,8428 3,12597z"/>
   <path class="fil2" d="M9452 22447l18542 0c88,-345 29,-8291 29,-9371 0,-956 74,-2256 -12,-3171l-18583 0c-72,880 -11,5020 -11,6252 0,914 -107,5816 35,6290z"/>
   <path class="fil3" d="M5658 28241l26132 0c-17,-162 -42,-170 -131,-324 -65,-114 -109,-181 -171,-291l-2338 -4058 -20852 0 -2357 4091c-57,100 -116,191 -171,290 -100,178 -95,126 -112,292z"/>
   <path class="fil4" d="M5580 28480c318,475 289,609 1078,607l24081 0c830,2 789,-100 1129,-607l0 -239 -78 0 -26132 0 -78 0 0 239z"/>
   <path class="fil4" d="M15528 27910l6379 0c-53,-112 -770,-1400 -924,-1437l-4518 0c-123,30 -841,1246 -937,1437z"/>
   <polygon class="fil5" points="10357,26094 18424,26096 18429,25822 10446,25805 "/>
   <polygon class="fil5" points="27708,26100 29263,26094 29143,25811 28941,25803 27760,25805 27578,25821 "/>
   <path class="fil5" d="M21156 25860l42 238 1555 -3c-22,-361 8,-289 -846,-290 -585,-1 -471,-29 -706,39 -12,3 -31,9 -45,16z"/>
   <polygon class="fil5" points="25527,26087 27082,26097 26997,25806 25437,25805 "/>
   <polygon class="fil5" points="23362,26094 24917,26097 24849,25815 23296,25804 "/>
   <path class="fil5" d="M29032 25646c-170,-415 -305,-271 -1638,-271 109,406 190,284 674,281 321,-2 645,13 964,-10z"/>
   <path class="fil5" d="M8416 25646l1381 15c240,-22 189,-32 258,-286 -1394,0 -1469,-142 -1639,271z"/>
   <polygon class="fil5" points="19020,26073 20588,26096 20575,25805 19032,25807 "/>
   <path class="fil5" d="M12652 25656l1549 -1 49 -272 -198 -9 -1142 1c-247,0 -185,-2 -258,281z"/>
   <path class="fil5" d="M23250 25652l1546 4c-72,-272 -14,-243 -215,-281 -65,-12 -377,0 -466,0 -305,2 -611,-8 -915,7l50 270z"/>
   <polygon class="fil5" points="8193,26082 9733,26098 9871,25828 8307,25804 "/>
   <path class="fil5" d="M20557 25642l-20 -215c-183,-89 -1367,-59 -1413,-42 -167,63 -80,-98 -116,117 -36,217 65,155 272,162l1277 -22z"/>
   <path class="fil5" d="M16890 25642l1421 6c152,-49 61,34 130,-96 52,-284 -120,-178 -692,-177 -260,1 -616,-56 -837,52l-22 215z"/>
   <path class="fil5" d="M14772 25655c291,2 581,0 872,1 798,2 656,88 699,-206 -14,-10 -35,-36 -45,-23l-860 -52c-741,-3 -625,-41 -666,280z"/>
   <path class="fil5" d="M26729 25232l-71 -224c-247,-94 -1200,-61 -1501,-30 81,375 214,255 652,254 307,-1 613,0 920,0z"/>
   <path class="fil5" d="M10711 25229c315,3 621,2 928,3 439,1 571,121 652,-254 -301,-31 -1254,-64 -1498,31l-82 220z"/>
   <path class="fil5" d="M10535 25632l1546 22 77 -275 -1443 -4c-173,98 -94,75 -180,257z"/>
   <path class="fil5" d="M19001 25142c73,101 -4,52 135,86 22,5 171,8 201,8 289,-1 1033,32 1174,-43l-5 -154c-123,-81 -113,-80 -395,-78l-828 -4c-402,10 -233,-47 -282,185z"/>
   <path class="fil5" d="M14869 25232l1242 6c296,-2 239,47 283,-199 -119,-83 -121,-80 -390,-78 -155,2 -308,4 -463,4 -698,-2 -653,-62 -672,267z"/>
   <path class="fil5" d="M16945 25039l-10 154c51,27 1466,132 1512,-51 72,-292 -211,-178 -698,-177 -138,0 -275,-2 -412,-4 -31,0 -185,1 -207,5 -188,34 -81,2 -185,73z"/>
   <path class="fil5" d="M21054 25039c49,268 -84,195 648,193 292,-1 585,0 877,0 -29,-417 -251,-256 -1083,-269l-307 13c-114,30 -75,21 -135,63z"/>
   <polygon class="fil5" points="8647,25231 10139,25232 10249,24980 10047,24962 8866,24965 8740,24965 "/>
   <polygon class="fil5" points="27305,25233 28799,25232 28702,24967 28582,24965 27401,24965 27209,24974 "/>
   <path class="fil5" d="M12786 25221l1323 18c251,-13 191,-12 236,-274l-1474 2 -85 254z"/>
   <path class="fil5" d="M24658 25222l-70 -240 -1484 -19c56,330 -62,271 651,269 300,-1 604,14 903,-10z"/>
   <path class="fil5" d="M14942 24817l1221 18c309,-3 240,49 281,-207 -218,-114 -1177,-59 -1464,-52l-38 241z"/>
   <path class="fil5" d="M28595 24828c-127,-360 -195,-259 -629,-256 -314,3 -628,1 -942,1 108,366 229,257 634,255 312,-1 625,0 937,0z"/>
   <path class="fil5" d="M8853 24828c295,0 591,-1 886,0 413,1 575,120 685,-255l-1353 1c-170,32 -151,65 -218,254z"/>
   <path class="fil5" d="M24535 24828c-78,-306 -22,-256 -728,-255 -266,0 -532,0 -798,0 42,228 -17,226 180,259l1346 -4z"/>
   <path class="fil5" d="M26565 24819l-90 -243 -1459 -3c75,301 -6,258 639,255 303,-1 608,12 910,-9z"/>
   <path class="fil5" d="M10878 24818l1330 15c211,-22 165,-22 224,-260l-1467 0 -87 245z"/>
   <path class="fil5" d="M19000 24814l1476 15 -12 -201c-157,-108 -1292,-60 -1469,-42l5 228z"/>
   <path class="fil5" d="M17005 24440c248,0 496,0 744,0l562 -3c189,-36 53,17 145,-66l1 -102c-135,-132 -963,-87 -1177,-83 -335,7 -249,-51 -275,254z"/>
   <path class="fil5" d="M18989 24269l3 102c67,61 57,70 293,73l1157 -4c-26,-312 70,-230 -222,-254 -85,-8 -313,8 -418,9l-619 -4c-309,37 -101,-12 -194,78z"/>
   <path class="fil5" d="M9065 24440c276,1 552,-1 828,0 709,2 569,61 681,-171 -54,-45 70,-82 -371,-78 -821,8 -985,-128 -1138,249z"/>
   <path class="fil5" d="M13037 24431l1226 16c268,-13 218,-4 260,-252l-1247 -5c-265,26 -174,-22 -239,241z"/>
   <path class="fil5" d="M24411 24431c-60,-260 73,-241 -604,-237 -294,2 -588,1 -882,1 62,367 232,247 625,245 287,-1 575,11 861,-9z"/>
   <path class="fil5" d="M20967 24320c86,185 -79,121 684,120 258,0 517,0 776,0 -58,-370 -71,-230 -1087,-249 -413,-7 -296,29 -373,129z"/>
   <path class="fil5" d="M26874 24269c112,232 -27,173 681,171 276,-1 552,1 828,0 -146,-382 -326,-236 -1086,-247 -189,-3 -301,-25 -423,76z"/>
   <path class="fil5" d="M11051 24440l1261 5c252,-24 179,9 241,-243l-1222 -7c-257,0 -216,-2 -280,245z"/>
   <path class="fil5" d="M15021 24440c259,0 518,0 776,0l562 -7c140,-50 55,31 123,-113 -29,-78 52,-132 -321,-131l-883 -1c-262,13 -221,4 -257,252z"/>
   <path class="fil5" d="M26397 24440c-76,-262 -14,-219 -224,-249l-1278 11c64,263 -55,243 606,238 299,-2 598,0 896,0z"/>
   <path class="fil5" d="M21004 24628c44,276 -108,202 647,200 284,-1 573,14 856,-11l-42 -241 -1461 52z"/>
   <path class="fil5" d="M12964 24628l-54 199c297,1 591,0 885,1 695,2 586,62 645,-255l-1476 55z"/>
   <path class="fil5" d="M16985 24628l-15 200 1478 -3 6 -239 -1436 25c-8,2 -23,10 -33,17z"/>
   <g>
    <path class="fil6" d="M19763 11503c-461,110 -471,525 -609,1008 -116,410 -236,829 -353,1238 -244,851 -478,1668 -720,2519l-1076 3754c-126,467 145,971 699,817 394,-109 450,-589 574,-1023l1793 -6275c116,-406 251,-822 357,-1236 128,-504 -189,-915 -665,-802z"/>
    <path class="fil6" d="M13711 16185c190,-302 1094,-1126 1413,-1445 149,-150 599,-533 649,-777 89,-440 -241,-766 -681,-697 -333,51 -1263,1105 -1513,1355 -252,252 -463,463 -714,714 -1000,1000 -725,974 714,2414 250,250 1179,1303 1513,1355 440,69 770,-257 681,-697 -49,-244 -500,-627 -649,-777 -319,-319 -1223,-1143 -1413,-1445z"/>
    <path class="fil6" d="M23710 16185c-343,543 -1984,1831 -2063,2222 -89,440 241,766 681,697 326,-51 1804,-1645 2228,-2069 801,-801 801,-899 0,-1701 -423,-422 -1902,-2017 -2228,-2068 -440,-69 -770,257 -681,697 49,241 502,627 650,776 320,320 1221,1142 1413,1446z"/>
   </g>
  </g>
 </g>
</svg>
