<?xml version="1.0" encoding="UTF-8"?>
<!DOCTYPE svg PUBLIC "-//W3C//DTD SVG 1.1//EN" "http://www.w3.org/Graphics/SVG/1.1/DTD/svg11.dtd">
<!-- Creator: CorelDRAW X7 -->
<svg xmlns="http://www.w3.org/2000/svg" xml:space="preserve" width="330px" height="330px" version="1.1" style="shape-rendering:geometricPrecision; text-rendering:geometricPrecision; image-rendering:optimizeQuality; fill-rule:evenodd; clip-rule:evenodd"
viewBox="0 0 29519 29519"
 xmlns:xlink="http://www.w3.org/1999/xlink">
 <defs>
  <style type="text/css">
   <![CDATA[
    .fil5 {fill:#64798A}
    .fil3 {fill:#B3B3B3}
    .fil2 {fill:#CCCCCC}
    .fil4 {fill:#E6EAEE}
    .fil6 {fill:red}
    .fil7 {fill:#FF4C4C}
    .fil8 {fill:#FF7878}
    .fil1 {fill:white}
    .fil0 {fill:url(#id0)}
   ]]>
  </style>
  <linearGradient id="id0" gradientUnits="userSpaceOnUse" x1="-0" y1="14759.6" x2="29519.3" y2="14759.6">
   <stop offset="0" style="stop-opacity:1; stop-color:#972118"/>
   <stop offset="1" style="stop-opacity:1; stop-color:#C9312C"/>
  </linearGradient>
 </defs>
 <g id="Слой_x0020_1">
  <metadata id="CorelCorpID_0Corel-Layer"/>
  <g id="_2152242029488">
   <circle class="fil0" cx="14760" cy="14760" r="14760"/>
   <g>
    <path class="fil1" d="M14608 11973c353,611 -73,1582 -1023,2598 -408,-403 -884,-805 -1417,-1189 -66,-653 -176,-1267 -321,-1821 1355,-315 2409,-198 2761,412zm-1287 2868c-324,318 -697,638 -1110,951 20,-310 30,-628 30,-951 0,-323 -10,-640 -30,-950 413,312 786,632 1110,950zm-8647 -2868c-353,611 73,1582 1023,2598 408,-403 884,-805 1417,-1189 66,-654 176,-1267 321,-1821 -1355,-315 -2409,-198 -2761,412zm1287 2868c324,319 697,638 1110,951 -20,-310 -30,-628 -30,-951 0,-323 10,-640 30,-950 -413,312 -786,632 -1110,950zm1520 1247c330,231 683,455 1054,670 371,214 741,407 1106,578 365,-171 736,-364 1107,-578 371,-215 723,-439 1053,-670 35,-401 53,-818 53,-1247 0,-428 -18,-845 -52,-1247 -331,-231 -683,-455 -1054,-669 -372,-214 -742,-407 -1107,-578 -365,171 -735,364 -1106,578 -371,214 -724,438 -1054,669 -35,402 -53,819 -53,1247 0,429 18,846 53,1247zm2622 1454c477,202 940,365 1378,486 114,-440 204,-922 268,-1437 -258,173 -528,340 -808,502 -280,162 -560,311 -838,449zm1744 580c1355,314 2409,198 2761,-413 353,-610 -73,-1581 -1023,-2598 -408,403 -884,805 -1417,1189 -66,654 -176,1267 -321,1822zm-2668 -5981c-477,-203 -940,-365 -1378,-487 -113,440 -204,923 -268,1437 258,-172 528,-340 808,-502 280,-161 560,-311 838,-448zm-838 4952c-280,-162 -550,-329 -808,-502 64,515 154,997 268,1437 438,-121 901,-284 1378,-486 -278,-138 -558,-287 -838,-449zm-1227 -793c-533,-384 -1009,-786 -1417,-1189 -950,1017 -1376,1988 -1023,2598 352,611 1406,727 2761,413 -145,-555 -255,-1168 -321,-1822zm-1679 -1459c-1103,-1182 -1590,-2348 -1158,-3097 432,-748 1686,-909 3261,-545 473,-1546 1239,-2552 2103,-2552 865,0 1630,1006 2103,2552 1575,-364 2829,-203 3261,545 432,749 -55,1915 -1158,3097 1103,1183 1590,2348 1158,3097 -432,749 -1686,909 -3261,546 -473,1546 -1238,2551 -2103,2551 -864,0 -1630,-1005 -2103,-2551 -1575,363 -2829,203 -3261,-546 -432,-749 55,-1914 1158,-3097zm2468 -3550c553,151 1139,362 1738,632 599,-270 1185,-481 1738,-632 -405,-1331 -1033,-2185 -1738,-2185 -705,0 -1333,854 -1738,2185zm2200 850c278,137 558,287 838,448 280,162 550,330 808,502 -63,-514 -154,-997 -268,-1437 -438,122 -901,284 -1378,487zm1276 6251c-553,-152 -1139,-363 -1738,-632 -599,269 -1185,480 -1738,632 405,1331 1033,2185 1738,2185 705,0 1333,-855 1738,-2185z"/>
    <circle class="fil1" cx="6165" cy="18441" r="1052"/>
    <circle class="fil1" cx="13117" cy="18441" r="1052"/>
    <path class="fil1" d="M9964 7305l11367 0c37,0 67,30 67,67l0 14939c0,36 -30,66 -67,66l-11367 0c-36,0 -66,-30 -66,-66l0 -14939c0,-37 30,-67 66,-67zm11892 15266l0 -15459c0,-146 -119,-265 -264,-265l-11888 0c-145,0 -264,119 -264,265l0 15459c0,145 119,264 264,264l11888 0c145,0 264,-119 264,-264z"/>
    <circle class="fil2" cx="9641" cy="14841" r="1452"/>
    <circle class="fil2" cx="15648" cy="7077" r="1219"/>
    <circle class="fil3" cx="9641" cy="8873" r="1052"/>
    <circle class="fil2" cx="15648" cy="22604" r="1219"/>
    <rect class="fil4" x="17765" y="9627" width="7639" height="2903" rx="255" ry="297"/>
    <rect class="fil4" x="17765" y="12971" width="7639" height="2903" rx="255" ry="297"/>
    <rect class="fil4" x="17765" y="16316" width="7639" height="2903" rx="255" ry="297"/>
    <rect class="fil5" x="22017" y="10153" width="2903" height="453" rx="97" ry="46"/>
    <rect class="fil5" x="22017" y="11527" width="2903" height="453" rx="97" ry="46"/>
    <rect class="fil5" x="22017" y="10852" width="2903" height="453" rx="97" ry="46"/>
    <rect class="fil6" x="18226" y="10804" width="526" height="549" rx="18" ry="56"/>
    <rect class="fil7" x="19109" y="10804" width="526" height="549" rx="18" ry="56"/>
    <rect class="fil8" x="19993" y="10804" width="526" height="549" rx="18" ry="56"/>
    <rect class="fil5" x="22017" y="13509" width="2903" height="453" rx="97" ry="46"/>
    <rect class="fil5" x="22017" y="14884" width="2903" height="453" rx="97" ry="46"/>
    <rect class="fil5" x="22017" y="14208" width="2903" height="453" rx="97" ry="46"/>
    <rect class="fil6" x="18226" y="14160" width="526" height="549" rx="18" ry="56"/>
    <rect class="fil7" x="19109" y="14160" width="526" height="549" rx="18" ry="56"/>
    <rect class="fil8" x="19993" y="14160" width="526" height="549" rx="18" ry="56"/>
    <rect class="fil5" x="22017" y="16854" width="2903" height="453" rx="97" ry="46"/>
    <rect class="fil5" x="22017" y="18228" width="2903" height="453" rx="97" ry="46"/>
    <rect class="fil5" x="22017" y="17553" width="2903" height="453" rx="97" ry="46"/>
    <rect class="fil6" x="18226" y="17505" width="526" height="549" rx="18" ry="56"/>
    <rect class="fil7" x="19109" y="17505" width="526" height="549" rx="18" ry="56"/>
    <rect class="fil8" x="19993" y="17505" width="526" height="549" rx="18" ry="56"/>
   </g>
  </g>
 </g>
</svg>
