<?xml version="1.0" encoding="UTF-8"?>
<!DOCTYPE svg PUBLIC "-//W3C//DTD SVG 1.1//EN" "http://www.w3.org/Graphics/SVG/1.1/DTD/svg11.dtd">
<!-- Creator: CorelDRAW X7 -->
<svg xmlns="http://www.w3.org/2000/svg" xml:space="preserve" width="656px" height="712px" version="1.1" style="shape-rendering:geometricPrecision; text-rendering:geometricPrecision; image-rendering:optimizeQuality; fill-rule:evenodd; clip-rule:evenodd"
viewBox="0 0 203077 220431"
 xmlns:xlink="http://www.w3.org/1999/xlink">
 <defs>
  <style type="text/css">
   <![CDATA[
    .fil1 {fill:#FEFEFE}
    .fil36 {fill:#898989}
    .fil15 {fill:#182027}
    .fil12 {fill:#2C343B}
    .fil23 {fill:#333333}
    .fil2 {fill:#5B5B5B}
    .fil11 {fill:#727271}
    .fil28 {fill:#80241E}
    .fil33 {fill:#999999}
    .fil3 {fill:#9D9E9E}
    .fil35 {fill:#CCCCCC}
    .fil37 {fill:#D1D1D1}
    .fil13 {fill:#D9DADA}
    .fil34 {fill:#DBDADC}
    .fil29 {fill:#E31E24}
    .fil14 {fill:#2B2A29;fill-rule:nonzero}
    .fil8 {fill:#2C343B;fill-rule:nonzero}
    .fil25 {fill:#333333;fill-rule:nonzero}
    .fil21 {fill:#403D3E;fill-rule:nonzero}
    .fil27 {fill:#545454;fill-rule:nonzero}
    .fil7 {fill:#5B5B5B;fill-rule:nonzero}
    .fil22 {fill:#5D595E;fill-rule:nonzero}
    .fil9 {fill:#727271;fill-rule:nonzero}
    .fil17 {fill:#80241E;fill-rule:nonzero}
    .fil26 {fill:#949494;fill-rule:nonzero}
    .fil4 {fill:#9D9E9E;fill-rule:nonzero}
    .fil31 {fill:#C3641E;fill-rule:nonzero}
    .fil32 {fill:#CCCCCC;fill-rule:nonzero}
    .fil5 {fill:#CD8FFF;fill-rule:nonzero}
    .fil6 {fill:#D9DADA;fill-rule:nonzero}
    .fil10 {fill:#E31E24;fill-rule:nonzero}
    .fil30 {fill:#EF7F1A;fill-rule:nonzero}
    .fil24 {fill:#004747;fill-opacity:0.101961}
    .fil16 {fill:#B3B3B3;fill-rule:nonzero;fill-opacity:0.101961}
    .fil20 {fill:#383838;fill-rule:nonzero;fill-opacity:0.501961}
    .fil18 {fill:url(#id0)}
    .fil19 {fill:url(#id1)}
    .fil0 {fill:url(#id2)}
   ]]>
  </style>
  <linearGradient id="id0" gradientUnits="userSpaceOnUse" x1="23731.3" y1="175770" x2="90665.8" y2="175770">
   <stop offset="0" style="stop-opacity:1; stop-color:#444444"/>
   <stop offset="0.180392" style="stop-opacity:1; stop-color:#4C4B4C"/>
   <stop offset="0.368627" style="stop-opacity:1; stop-color:#525252"/>
   <stop offset="0.811765" style="stop-opacity:1; stop-color:#616161"/>
   <stop offset="1" style="stop-opacity:1; stop-color:#606060"/>
  </linearGradient>
  <linearGradient id="id1" gradientUnits="userSpaceOnUse" x1="82730.1" y1="139851" x2="31666.6" y2="165382">
   <stop offset="0" style="stop-opacity:1; stop-color:#EBEBEB"/>
   <stop offset="1" style="stop-opacity:1; stop-color:white"/>
  </linearGradient>
  <radialGradient id="id2" gradientUnits="userSpaceOnUse" gradientTransform="matrix(29.8418 -0 -0 -29.9001 -1.15606E+006 -858839)" cx="40082.9" cy="-27794" r="107642" fx="40082.9" fy="-27794">
   <stop offset="0" style="stop-opacity:1; stop-color:#463387"/>
   <stop offset="1" style="stop-opacity:1; stop-color:#2B2848"/>
  </radialGradient>
 </defs>
 <g id="Слой_x0020_1">
  <metadata id="CorelCorpID_0Corel-Layer"/>
  <g id="_2118965431968">
   <path class="fil0" d="M45774 55588c2,-1 5,-3 7,-4 -2,2 -4,3 -7,4zm11382 -55588l1 0 -3919 45616c0,2564 -1239,5128 -3719,7366l0 0c2479,-2238 3719,-4802 3719,-7366l3918 -45616 0 0zm-11338 55564c6,-3 12,-7 19,-10 -7,3 -13,7 -19,10zm49 -26c8,-5 17,-11 27,-16 -10,5 -19,11 -27,16zm48 -27c16,-10 34,-19 50,-29 -16,10 -33,19 -50,29zm50 -29c18,-8 37,-19 55,-30 -18,11 -37,20 -55,30zm59 -32c16,-9 32,-17 48,-27 -16,10 -32,18 -48,27zm58 -33c15,-7 28,-16 43,-24 -15,8 -28,17 -43,24zm53 -30c15,-8 28,-16 42,-23 -13,7 -27,16 -42,23zm55 -30c13,-9 28,-16 41,-24 -13,8 -28,15 -41,24zm52 -31c18,-9 34,-19 52,-29 566,-328 1098,-667 1596,-1018l0 0c-498,351 -1030,690 -1596,1018 -18,10 -34,20 -52,29z"/>
   <path class="fil1" d="M113595 146561l33549 19369 0 0 -33549 -19369zm41396 24555c-3249,0 -6496,-836 -9392,-2510l-33547 -19370c-2958,-1708 -3679,-2571 -3679,-4414 0,-1843 920,-2822 3679,-4414l33545 -19368c5790,-3347 12992,-3349 18787,0l33548 19368c2892,1666 3678,2571 3678,4412 0,1844 -753,2842 -3676,4418l-33549 19368c-2896,1673 -6147,2510 -9394,2510l0 0zm-43758 -24456l35463 20475 0 0 -35463 -20475zm43758 25956c-3434,0 -6866,-883 -9928,-2653l-35461 -20475c-1689,-974 -2697,-2718 -2697,-4666 0,-1948 1008,-3694 2697,-4666l35459 -20473c6121,-3538 13733,-3540 19859,0l35462 20473c1688,972 2695,2718 2695,4664 0,1949 -1005,3694 -2693,4671l-35463 20472c-3062,1768 -6497,2653 -9930,2653l0 0z"/>
   <g>
    <path class="fil2" d="M176765 136183c-4181,4458 -12366,7586 -21774,7586 -43,0 -84,0 -127,0l0 13546 0 191c43,0 84,0 127,0 12173,0 22295,-5078 24356,-11765 251,-817 384,-1657 384,-2518l0 -1201 0 -12535c0,2393 -1074,4681 -2966,6696l0 0zm-21784 7586l-3 0 3 0zm-3 0l-2 0 2 0zm-2 0l-3 0 3 0zm-3 0l0 0 0 0zm0 0c-13656,-5 -24721,-6398 -24721,-14282l0 13736c0,7862 11007,14242 24612,14283l0 -191 0 -13546 3 0 0 0 2 0 3 0 2 0 3 0 0 0 3 0 2 0 3 0 3 0 0 0 2 0 2 0 0 0 3 0 3 0 2 0 3 0 3 0 2 0 3 0 3 0 0 0 2 0 3 0 2 0 3 0 0 0 3 0 2 0 3 0 0 0 2 0 3 0 3 0 5 0 2 0 3 0 2 0 0 0 3 0 3 0 2 0 0 0 3 0 3 0 2 0 3 0 0 0 3 0 2 0 0 0 -5 0 2 0z"/>
    <path class="fil3" d="M130252 129487c0,7887 11075,14282 24739,14282 13663,0 24739,-6395 24739,-14282 0,-7888 -11076,-14283 -24739,-14283 -13664,0 -24739,6395 -24739,14283z"/>
    <path class="fil4" d="M162960 104948l-4839 2795c665,-353 1569,-285 2567,291 2046,1180 3709,4055 3709,6426 0,1180 -414,2010 -1084,2399l2 0 4910 -2780c673,-391 1059,-1259 1066,-2447 3,-2364 -1660,-5240 -3706,-6426 -1031,-586 -1955,-644 -2625,-258l0 0 0 0z"/>
    <path class="fil5" d="M160687 108035c2047,1180 3709,4054 3709,6422 -2,2369 -1662,3326 -3709,2141 -2051,-1181 -3711,-4057 -3711,-6426 0,-2361 1658,-3323 3711,-2137l0 0z"/>
    <path class="fil4" d="M189712 89451l-7052 4077c386,89 795,252 1218,495 2308,1333 4182,4570 4182,7238 -3,538 -79,1010 -219,1412l7136 -4090c673,-393 1061,-1259 1067,-2447 2,-2366 -1661,-5240 -3707,-6426 -1028,-586 -1952,-647 -2625,-258l0 0 0 -1 0 0z"/>
    <path class="fil6" d="M169751 102167c2302,1331 4173,4565 4173,7231 0,1322 -464,2254 -1213,2693 -234,137 -1348,787 -1452,848 751,-439 1216,-1371 1216,-2698 0,-2663 -1872,-5898 -4174,-7228 -1112,-643 -2123,-724 -2869,-338l0 0c0,0 1100,-640 1330,-779 759,-457 1815,-404 2988,271l0 0 1 0 0 0z"/>
    <path class="fil7" d="M168301 103013c2302,1330 4174,4564 4174,7228 -3,2370 -1485,3485 -3436,2759 148,-389 229,-855 232,-1389 3,-2358 -1655,-5224 -3696,-6405 -498,-284 -970,-444 -1401,-490 304,-2135 2033,-2912 4127,-1703l0 0 0 0 0 0z"/>
    <path class="fil6" d="M167509 103475c2303,1330 4174,4564 4174,7230 0,1323 -465,2257 -1214,2694 -231,137 -1345,787 -1450,848 749,-440 1214,-1371 1216,-2699 0,-2663 -1873,-5898 -4176,-7228 -1112,-642 -2120,-723 -2868,-338l0 0c0,0 1099,-639 1332,-778 757,-458 1815,-404 2986,271l0 0 0 0 0 0z"/>
    <path class="fil8" d="M166060 104320c2302,1330 4175,4565 4175,7228 -2,2099 -1164,3214 -2784,2937l756 -434c670,-391 1057,-1257 1064,-2440 3,-2358 -1655,-5225 -3696,-6405 -1026,-587 -1945,-645 -2615,-259l-906 523c505,-1706 2107,-2246 4006,-1150l0 0 0 0z"/>
    <path class="fil6" d="M186996 92173c2305,1333 4178,4572 4178,7240 0,1325 -464,2259 -1213,2699 -233,134 -1351,786 -1455,847 752,-439 1216,-1373 1219,-2701 0,-2668 -1874,-5907 -4181,-7237 -1115,-643 -2123,-724 -2872,-338l0 0c0,0 1100,-642 1333,-782 759,-457 1818,-404 2991,272l0 0 0 0z"/>
    <path class="fil7" d="M185544 93021c2307,1330 4181,4570 4181,7237 -3,2374 -1488,3491 -3440,2763 147,-389 229,-858 231,-1392 3,-2361 -1658,-5230 -3701,-6412 -498,-285 -970,-445 -1404,-490 307,-2138 2039,-2915 4133,-1706l0 0 0 0z"/>
    <path class="fil6" d="M184752 93483c2305,1333 4178,4569 4178,7237 0,1329 -464,2263 -1213,2702 -234,134 -1351,784 -1455,845 752,-436 1216,-1371 1218,-2699 0,-2670 -1873,-5907 -4178,-7240 -1114,-642 -2125,-723 -2874,-338l0 0c0,0 1102,-640 1333,-779 759,-459 1818,-404 2991,271l0 0 0 1 0 0z"/>
    <path class="fil8" d="M183383 94285c2306,1333 4182,4572 4182,7240 -6,2666 -1876,3744 -4182,2409 -2310,-1328 -4181,-4572 -4181,-7240 0,-2658 1869,-3742 4181,-2409z"/>
    <path class="fil9" d="M181553 96842l-10668 6161c1313,1249 2344,3061 2727,4821l10716 -6167c355,-205 561,-662 563,-1290 3,-1246 -876,-2764 -1954,-3388 -544,-310 -1031,-341 -1384,-137l0 0 0 0 0 0z"/>
    <path class="fil9" d="M179428 101018l4707 2718c-366,-195 -866,-157 -1417,160 -1130,653 -2049,2237 -2049,3547 3,650 231,1109 600,1323l0 0 -4745 -2709c-373,-216 -587,-693 -589,-1351 -3,-1304 917,-2891 2046,-3546 566,-325 1076,-355 1447,-142l0 0 0 0z"/>
    <path class="fil8" d="M182718 103894c-1129,655 -2049,2239 -2049,3549 3,1305 920,1833 2049,1181 1133,-653 2049,-2242 2049,-3547 0,-1305 -914,-1836 -2049,-1183l0 0z"/>
    <path class="fil8" d="M187829 109025c1325,-2298 2145,-4877 2145,-7200 0,-2031 -635,-3514 -1787,-4181 -1168,-673 -2795,-475 -4585,558 -4069,2351 -7377,8056 -7377,12721 0,2032 634,3517 1787,4182 1165,672 2795,474 4584,-559 2044,-1180 3895,-3206 5233,-5521l0 0 0 0zm-11204 -6309c1508,-2612 3610,-4892 5971,-6255 2437,-1409 4781,-1607 6596,-559 1800,1041 2792,3143 2792,5923 0,5395 -3680,11749 -8382,14463 -2438,1409 -4781,1607 -6596,558 -1799,-1040 -2792,-3143 -2792,-5922 0,-2687 914,-5613 2411,-8208z"/>
    <path class="fil10" d="M189220 109829c1327,-2297 2148,-4876 2145,-7199 3,-1401 -302,-2546 -868,-3336l-4189 5250c120,264 188,589 188,975 0,1482 -1003,3272 -2272,4105l0 5587c1951,-1198 3711,-3155 4996,-5382l0 0zm23 -11546c-1133,-464 -2623,-213 -4248,723 -2381,1377 -4501,3900 -5852,6695l3171 269c445,-772 1062,-1449 1742,-1843 266,-154 525,-254 764,-302l4425 -5542 -2 0 0 0zm-10762 8974c-551,1506 -863,3037 -863,4471 0,2031 635,3516 1787,4181 858,495 1971,518 3209,84l2 -5973c-606,-161 -999,-757 -999,-1684 0,-259 30,-530 89,-802l-3225 -274 0 -3 0 0zm-462 -3737c1508,-2614 3613,-4891 5969,-6255 2440,-1409 4782,-1604 6595,-558 1803,1041 2795,3143 2795,5923 0,5395 -3683,11749 -8385,14463 -2437,1406 -4778,1604 -6593,555 -1800,-1038 -2792,-3142 -2792,-5920 0,-2688 910,-5613 2411,-8207l0 0 0 -1z"/>
    <path class="fil9" d="M185562 106590l-805 -478 -5 6c-119,-71 -284,-64 -470,40 -373,208 -677,721 -682,1146 -3,215 68,365 190,436l792 470c-114,-74 -180,-221 -178,-429 5,-424 312,-937 681,-1145 185,-105 355,-112 474,-41l3 -5 0 0 0 0 0 0z"/>
    <path class="fil8" d="M184404 107781c5,-424 312,-937 680,-1145 371,-208 668,-33 666,391 -8,428 -313,939 -683,1150 -371,208 -671,33 -663,-397l0 0 0 1z"/>
    <path class="fil11" d="M164978 96999l0 32421c0,3164 -4445,5730 -9926,5730 -5484,0 -9927,-2566 -9927,-5730l0 -32421c0,3785 5606,5752 10104,5752 4501,0 9749,-2038 9749,-5752l0 0z"/>
    <path class="fil4" d="M117822 130976l-4839 2795c668,-353 1572,-286 2570,290 2046,1183 3709,4057 3709,6425 -3,1181 -417,2011 -1085,2399l0 3 4910 -2780c673,-394 1061,-1259 1067,-2448 2,-2365 -1661,-5242 -3707,-6427 -1028,-587 -1952,-645 -2625,-257l0 0 0 0 0 0z"/>
    <path class="fil9" d="M115552 134061c2047,1183 3709,4057 3709,6425 -2,2367 -1662,3323 -3709,2141 -2051,-1181 -3711,-4060 -3711,-6429 0,-2358 1658,-3320 3711,-2137l0 0z"/>
    <path class="fil4" d="M144577 115478l-7053 4077c387,89 795,251 1219,498 2305,1330 4178,4569 4178,7237 0,536 -75,1010 -216,1412l7137 -4092c670,-391 1061,-1257 1066,-2445 3,-2366 -1660,-5242 -3706,-6428 -1031,-587 -1953,-645 -2625,-259l0 0 0 0z"/>
    <path class="fil12" d="M146610 111485c0,1040 2755,1040 2755,0 0,-440 -617,-798 -1376,-798 -762,0 -1379,359 -1379,798zm0 0l0 1924c0,439 617,795 1379,795 759,0 1376,-356 1376,-795l0 -1924c0,1038 -2755,1043 -2755,0z"/>
    <path class="fil12" d="M153668 112940c0,1043 2755,1043 2755,0 0,-440 -618,-795 -1379,-795 -759,0 -1376,355 -1376,795zm0 0l0 1926c0,439 617,795 1376,795 761,0 1379,-356 1379,-795l0 -1926c0,1040 -2755,1045 -2755,0z"/>
    <path class="fil12" d="M160200 111485c0,1040 2755,1040 2755,0 0,-440 -617,-798 -1379,-798 -759,0 -1376,359 -1376,798zm0 0l0 1924c0,439 617,795 1376,795 762,0 1379,-356 1379,-795l0 -1924c0,1038 -2755,1043 -2755,0z"/>
    <path class="fil13" d="M155052 110832c-7878,0 -14265,-3686 -14265,-8233l0 3186c0,4547 6387,8236 14265,8236 7877,0 14262,-3689 14262,-8236l0 -3186c0,4509 -6385,8233 -14262,8233z"/>
    <path class="fil11" d="M140787 102599c0,4547 6387,8233 14265,8233 7877,0 14262,-3686 14262,-8233 0,-2320 -1663,-4417 -4336,-5912l0 4772c0,3166 -4445,5733 -9927,5733 -5483,0 -9926,-2567 -9926,-5733l0 -4772c-2675,1495 -4338,3592 -4338,5912l0 0 0 0 0 0z"/>
    <path class="fil3" d="M140787 98159c0,4547 6387,8235 14265,8235 7875,0 14262,-3688 14262,-8235 0,-4547 -6387,-8233 -14262,-8233 -7878,0 -14265,3686 -14265,8233z"/>
    <path class="fil13" d="M154871 109581c59,0 120,0 181,0 7878,0 14263,-3687 14263,-8236l0 -3186c0,4511 -6386,8235 -14263,8235 -63,0 -127,-2 -190,-2 -7792,-59 -14075,-3722 -14075,-8233l0 3186c0,4514 6291,8180 14084,8235l0 1 0 0z"/>
    <path class="fil6" d="M124616 128194c2302,1333 4173,4564 4173,7230 -2,1325 -464,2257 -1214,2696 -233,137 -1348,784 -1452,846 752,-437 1214,-1371 1216,-2697 0,-2665 -1870,-5899 -4173,-7230 -1112,-642 -2123,-721 -2868,-337l-3 0c0,0 1099,-637 1332,-779 757,-458 1816,-404 2988,271l0 0 1 0 0 0z"/>
    <path class="fil7" d="M123166 129039c2302,1331 4173,4565 4173,7230 -2,2372 -1485,3487 -3435,2760 148,-391 227,-858 229,-1389 2,-2358 -1655,-5224 -3694,-6407 -498,-282 -970,-442 -1401,-487 305,-2135 2034,-2912 4127,-1706l0 0 1 -1 0 0z"/>
    <path class="fil6" d="M122374 129501c2302,1330 4173,4565 4173,7231 0,1325 -464,2256 -1213,2696 -231,134 -1348,784 -1450,845 749,-436 1214,-1371 1214,-2696 0,-2666 -1869,-5900 -4174,-7230 -1112,-642 -2122,-721 -2869,-338l0 0c0,0 1100,-640 1330,-779 760,-457 1815,-403 2988,271l0 0 1 0 0 0z"/>
    <path class="fil8" d="M120924 130347c2303,1330 4174,4564 4174,7230 -3,2100 -1163,3211 -2782,2937l756 -436c671,-391 1057,-1254 1062,-2438 2,-2358 -1656,-5224 -3694,-6407 -1026,-584 -1947,-645 -2618,-257l-904 523c505,-1708 2105,-2249 4006,-1152l0 0 0 0z"/>
    <path class="fil6" d="M141861 118202c2305,1330 4178,4569 4178,7238 -2,1327 -464,2259 -1216,2698 -230,137 -1348,787 -1452,848 752,-439 1216,-1371 1219,-2701 0,-2668 -1874,-5905 -4181,-7238 -1115,-642 -2125,-723 -2872,-338l-2 0c0,0 1101,-640 1336,-779 756,-459 1815,-406 2990,272l0 0 0 0 0 0z"/>
    <path class="fil7" d="M140409 119047c2307,1333 4181,4570 4181,7238 -5,2376 -1488,3491 -3442,2764 149,-391 228,-858 231,-1391 2,-2361 -1658,-5232 -3699,-6416 -498,-281 -972,-444 -1404,-486 304,-2138 2036,-2917 4133,-1709l0 0 0 0 0 0z"/>
    <path class="fil6" d="M139617 119509c2305,1333 4178,4572 4178,7241 -2,1325 -464,2259 -1216,2698 -231,137 -1348,787 -1452,848 752,-439 1216,-1374 1219,-2701 0,-2668 -1874,-5905 -4181,-7238 -1113,-642 -2125,-723 -2872,-338l-2 0c0,0 1101,-639 1336,-781 758,-458 1817,-404 2990,271l0 0 0 0 0 0z"/>
    <path class="fil8" d="M138246 120312c2307,1332 4181,4572 4181,7243 -2,2665 -1874,3744 -4181,2409 -2308,-1330 -4182,-4575 -4182,-7241 0,-2660 1869,-3744 4182,-2411l0 0z"/>
    <path class="fil9" d="M136415 122868l-10664 6164c1312,1246 2342,3062 2726,4821l10716 -6166c355,-209 558,-666 561,-1293 2,-1246 -873,-2762 -1955,-3386 -541,-313 -1028,-343 -1384,-140l0 0 0 0 0 0z"/>
    <path class="fil9" d="M134293 127044l4706 2719c-367,-196 -865,-157 -1416,160 -1130,653 -2049,2239 -2049,3547 0,652 229,1109 600,1323l0 2 -4748 -2708c-371,-219 -586,-696 -589,-1351 0,-1308 917,-2894 2047,-3549 568,-322 1079,-356 1449,-143l0 0 0 0z"/>
    <path class="fil14" d="M137583 129923c-1130,652 -2049,2239 -2049,3546 3,1308 919,1836 2049,1181 1130,-650 2046,-2239 2046,-3546 0,-1303 -913,-1833 -2046,-1181z"/>
    <path class="fil15" d="M146610 91068c0,1044 2755,1044 2755,0 0,-439 -617,-794 -1376,-794 -762,0 -1379,355 -1379,794zm0 0l0 1927c0,439 617,795 1379,795 759,0 1376,-356 1376,-795l0 -1927c0,1041 -2755,1046 -2755,0z"/>
    <path class="fil12" d="M160200 91068c0,1044 2755,1044 2755,0 0,-439 -617,-794 -1379,-794 -759,0 -1376,355 -1376,794zm0 0l0 1927c0,439 617,795 1376,795 762,0 1379,-356 1379,-795l0 -1927c0,1041 -2755,1046 -2755,0z"/>
    <path class="fil11" d="M161992 78794l0 18578c0,2231 -3135,4041 -7002,4041 -3866,0 -7001,-1810 -7001,-4041l0 -18616c2079,688 4488,1079 7055,1079 2523,0 4892,-378 6948,-1041l0 0 0 0 0 0z"/>
    <path class="fil12" d="M146610 86438c0,1043 2755,1043 2755,0 0,-439 -617,-795 -1376,-795 -762,0 -1379,356 -1379,795zm0 0l0 1927c0,439 617,794 1379,794 759,0 1376,-355 1376,-794l0 -1927c0,1041 -2755,1046 -2755,0z"/>
    <path class="fil12" d="M153668 87895c0,1044 2755,1044 2755,0 0,-439 -618,-794 -1379,-794 -759,0 -1376,355 -1376,794zm0 0l0 1927c0,439 617,794 1376,794 761,0 1379,-355 1379,-794l0 -1927c0,1041 -2755,1044 -2755,0z"/>
    <path class="fil12" d="M160200 86438c0,1043 2755,1043 2755,0 0,-439 -617,-795 -1379,-795 -759,0 -1376,356 -1376,795zm0 0l0 1927c0,439 617,794 1376,794 762,0 1379,-355 1379,-794l0 -1927c0,1041 -2755,1046 -2755,0z"/>
    <path class="fil13" d="M155044 85856c-7875,0 -14263,-3686 -14263,-8235l0 3188c0,4547 6388,8234 14263,8234 7880,0 14265,-3686 14265,-8234l0 -3188c0,4511 -6385,8235 -14265,8235z"/>
    <path class="fil11" d="M140781 77621c0,4549 6388,8235 14265,8235 7878,0 14263,-3686 14263,-8235 0,-2318 -1663,-4415 -4336,-5910l0 4773c0,3163 -4445,5730 -9926,5730 -5484,0 -9929,-2567 -9929,-5730l0 -4773c-2674,1495 -4336,3592 -4336,5910l0 0 0 0 -1 0z"/>
    <path class="fil3" d="M140781 73184c0,4546 6388,8232 14263,8232 7878,0 14265,-3686 14265,-8232 0,-4550 -6387,-8236 -14265,-8236 -7875,0 -14263,3686 -14263,8236z"/>
    <path class="fil13" d="M155044 81416c-7875,0 -14263,-3686 -14263,-8232l0 3185c0,4547 6388,8236 14263,8236 7880,0 14265,-3689 14265,-8236l0 -3185c0,4508 -6385,8232 -14265,8232z"/>
    <path class="fil8" d="M142691 135053c1328,-2297 2147,-4879 2145,-7202 2,-2028 -635,-3513 -1787,-4179 -1165,-672 -2793,-474 -4582,557 -4070,2350 -7378,8057 -7378,12723 0,2029 635,3514 1788,4179 1164,673 2792,477 4582,-558 2043,-1178 3896,-3207 5232,-5520l0 0 0 0zm-11201 -6308c1508,-2615 3610,-4895 5971,-6255 2437,-1409 4778,-1607 6593,-561 1803,1040 2795,3145 2795,5923 0,5397 -3683,11749 -8385,14462 -2437,1409 -4778,1608 -6593,559 -1803,-1041 -2793,-3143 -2793,-5921 0,-2688 912,-5612 2412,-8207l0 0 0 0z"/>
    <path class="fil10" d="M144085 135856c1325,-2295 2145,-4877 2145,-7200 0,-1401 -302,-2544 -871,-3336l-4189 5253c122,261 191,589 191,975 0,1480 -1003,3272 -2272,4102l0 5588c1949,-1196 3711,-3156 4996,-5383l0 1zm22 -11544c-1132,-464 -2625,-216 -4247,721 -2384,1376 -4503,3902 -5854,6694l3174 272c441,-771 1058,-1452 1741,-1845 266,-153 523,-251 764,-300l4423 -5542 0 0 -1 0zm-10761 8975c-551,1503 -863,3036 -863,4470 0,2028 635,3514 1785,4179 860,497 1970,520 3211,84l0 -5974c-604,-160 -998,-754 -998,-1684 0,-258 31,-530 89,-802l-3224 -274 0 0 0 1 0 0zm-465 -3740c1511,-2612 3613,-4892 5971,-6252 2440,-1410 4783,-1608 6596,-562 1802,1041 2793,3143 2793,5923 0,5397 -3682,11749 -8383,14465 -2437,1406 -4780,1605 -6596,556 -1800,-1041 -2792,-3143 -2792,-5923 0,-2686 914,-5612 2411,-8207l0 0 0 0 0 0z"/>
    <path class="fil9" d="M140427 132619l-808 -480 -3 8c-119,-71 -284,-66 -472,38 -370,208 -675,721 -680,1147 -3,214 68,366 187,437l795 470c-114,-74 -183,-224 -177,-430 4,-423 309,-939 680,-1144 185,-105 352,-115 472,-43l5 -3 1 0 0 0z"/>
    <path class="fil8" d="M139269 133810c5,-425 310,-940 680,-1146 371,-210 668,-33 663,391 -5,427 -312,940 -680,1150 -374,206 -671,31 -663,-396l0 1z"/>
    <path class="fil12" d="M153668 77583c0,1043 2755,1043 2755,0 0,-439 -618,-795 -1379,-795 -759,0 -1376,356 -1376,795zm0 0l0 1927c0,439 617,795 1376,795 761,0 1379,-356 1379,-795l0 -1927c0,1041 -2755,1046 -2755,0z"/>
    <path class="fil12" d="M153673 64575c0,1043 2755,1043 2755,0 0,-440 -617,-795 -1376,-795 -759,0 -1379,355 -1379,795zm0 0l0 1927c0,439 619,794 1379,794 759,0 1376,-355 1376,-794l0 -1927c0,1041 -2755,1046 -2755,0z"/>
    <path class="fil12" d="M142445 71249c0,1043 2754,1043 2754,0 0,-439 -617,-795 -1379,-795 -758,0 -1375,356 -1375,795zm0 0l0 1927c0,439 617,795 1375,795 762,0 1379,-356 1379,-795l0 -1927c0,1041 -2754,1046 -2754,0z"/>
    <path class="fil12" d="M164991 71249c0,1043 2751,1043 2751,0 0,-439 -616,-795 -1375,-795 -762,0 -1376,356 -1376,795zm0 0l0 1927c0,439 614,795 1376,795 759,0 1375,-356 1375,-795l0 -1927c0,1041 -2751,1046 -2751,0z"/>
    <path class="fil12" d="M146610 66024c0,1044 2755,1044 2755,0 0,-439 -617,-794 -1376,-794 -762,0 -1379,355 -1379,794zm0 0l0 1925c0,441 617,797 1379,797 759,0 1376,-356 1376,-797l0 -1925c0,1041 -2755,1044 -2755,0z"/>
    <path class="fil12" d="M146610 76126c0,1043 2755,1043 2755,0 0,-440 -617,-795 -1376,-795 -762,0 -1379,355 -1379,795zm0 0l0 1926c0,437 617,795 1379,795 759,0 1376,-358 1376,-795l0 -1926c0,1041 -2755,1043 -2755,0z"/>
    <path class="fil12" d="M160200 66024c0,1044 2755,1044 2755,0 0,-439 -617,-794 -1379,-794 -759,0 -1376,355 -1376,794zm0 0l0 1925c0,441 617,797 1376,797 762,0 1379,-356 1379,-797l0 -1925c0,1041 -2755,1044 -2755,0z"/>
    <path class="fil12" d="M160200 76126c0,1043 2755,1043 2755,0 0,-440 -617,-795 -1379,-795 -759,0 -1376,355 -1376,795zm0 0l0 1926c0,437 617,795 1376,795 762,0 1379,-358 1379,-795l0 -1926c0,1041 -2755,1043 -2755,0z"/>
    <path class="fil15" d="M153668 102627c0,1044 2755,1044 2755,0 0,-439 -618,-794 -1379,-794 -759,0 -1376,355 -1376,794zm0 0l0 1927c0,439 617,794 1376,794 761,0 1379,-355 1379,-794l0 -1927c0,1041 -2755,1046 -2755,0z"/>
    <path class="fil15" d="M142445 96296c0,1041 2754,1041 2754,0 0,-440 -617,-797 -1379,-797 -758,0 -1375,358 -1375,797zm0 0l0 1924c0,439 617,795 1375,795 762,0 1379,-356 1379,-795l0 -1924c0,1038 -2754,1043 -2754,0z"/>
    <path class="fil15" d="M164991 96296c0,1041 2751,1041 2751,0 0,-440 -616,-797 -1375,-797 -762,0 -1376,358 -1376,797zm0 0l0 1924c0,439 614,795 1376,795 759,0 1375,-356 1375,-795l0 -1924c0,1038 -2751,1043 -2751,0z"/>
    <path class="fil15" d="M146610 101170c0,1044 2755,1044 2755,0 0,-439 -617,-795 -1376,-795 -762,0 -1379,356 -1379,795zm0 0l0 1926c0,440 617,795 1379,795 759,0 1376,-355 1376,-795l0 -1926c0,1041 -2755,1046 -2755,0z"/>
    <path class="fil15" d="M160200 101170c0,1044 2755,1044 2755,0 0,-439 -617,-795 -1379,-795 -759,0 -1376,356 -1376,795zm0 0l0 1926c0,440 617,795 1376,795 762,0 1379,-355 1379,-795l0 -1926c0,1041 -2755,1046 -2755,0z"/>
   </g>
   <path class="fil1" d="M15972 186752l33549 19369 0 0 -33549 -19369zm41397 24555c-3249,0 -6496,-836 -9393,-2510l-33546 -19370c-2959,-1708 -3680,-2571 -3680,-4414 0,-1843 920,-2822 3680,-4415l33544 -19367c5790,-3347 12992,-3349 18787,0l33548 19367c2892,1667 3678,2572 3678,4413 0,1844 -752,2842 -3676,4418l-33549 19368c-2896,1672 -6147,2510 -9393,2510l0 0zm-43759 -24456l35463 20475 0 0 -35463 -20475zm43759 25956c-3435,0 -6867,-883 -9929,-2653l-35461 -20475c-1689,-974 -2697,-2718 -2697,-4666 0,-1948 1008,-3694 2697,-4666l35459 -20474c6121,-3537 13733,-3539 19859,0l35462 20474c1688,972 2696,2718 2696,4664 0,1949 -1006,3694 -2693,4670l-35464 20473c-3062,1768 -6497,2653 -9929,2653l0 0z"/>
   <path class="fil16" d="M57196 203003c-9108,0 -17689,-1985 -24350,-5569 -1313,-703 -2242,-1292 -2777,-1644 -5770,-3860 -8928,-8776 -8926,-14013 1,-2994 1030,-5884 2992,-8530l0 6071c0,307 13,612 37,918l-2085 0 -19 0 0 1535c0,5199 3416,10355 10292,14349 13725,7925 35949,7912 49674,0 6838,-3994 10265,-9150 10265,-14349l0 -1122 0 -413 -2105 0c25,-306 38,-611 38,-918l0 -6112c1980,2659 3020,5562 3020,8571 2,5070 -2950,9842 -8374,13645 165,171 259,369 259,579 0,654 -908,1183 -2027,1183 -304,0 -595,-39 -854,-109 -6751,3824 -15636,5928 -25060,5928l0 0z"/>
   <path class="fil17" d="M92299 181771l0 -1122c-186,5040 -3607,10048 -10265,13898 -13725,7927 -35949,7927 -49674,0 -6839,-3955 -10263,-9132 -10273,-14311l-19 0 0 1535c0,5199 3416,10355 10292,14349 13725,7925 35949,7912 49674,0 6838,-3994 10265,-9150 10265,-14349z"/>
   <path class="fil10" d="M82034 194547c-52,30 -104,61 -156,90 -13736,7837 -35845,7807 -49518,-90 -9588,-5544 -12463,-13490 -8629,-20475l0 5529c0,10671 14984,19321 33467,19321 18483,0 33467,-8650 33467,-19321l0 -5526c3832,6984 956,14929 -8631,20472z"/>
   <path class="fil18" d="M23731 152617l0 5170c4071,8463 17511,14674 33465,14674 15960,0 29404,-6216 33469,-14684l0 -5160c0,10671 -14984,19322 -33467,19322 -18483,0 -33467,-8651 -33467,-19322l0 0zm0 7102l0 19882c0,10671 14984,19321 33467,19321 18483,0 33468,-8650 33468,-19321l0 -19899c-4065,8468 -17509,14686 -33470,14686 -15951,0 -29391,-6209 -33465,-14670l0 1z"/>
   <path class="fil19" d="M23731 152617c0,10671 14984,19322 33467,19322 18483,0 33467,-8651 33467,-19322 0,-10671 -14984,-19322 -33467,-19322 -18483,0 -33467,8651 -33467,19322z"/>
   <path class="fil20" d="M77921 165864l1928 977c0,0 956,-533 1365,-768 0,0 -1485,-726 -1485,-726 0,15 -1,30 -7,46l-1 2 -1 3 0 5 -1 2 -2 6 0 1 -1 5 -1 2 -2 5 0 3 -1 4 -2 3 -1 3 -2 6 0 0 -2 7 -3 7 -1 1 -2 5 -1 3 -2 3 -1 5 -1 2 -3 6 0 1 -3 6 -1 1 -3 5 0 2 -3 5 -2 3 -1 3 -3 5 0 1 -4 6 0 1 -4 6 0 1 -3 5 -3 3 -2 4 -3 4 -1 2 -3 5 -1 1 -5 6 0 1 -4 6 -1 2 -3 4 -3 3 -2 3 -4 4 -1 2 -4 6 -1 0 -5 7 0 0 -5 5 -1 3 -4 3 -3 4 -3 2 -4 5 -1 2 -5 6 -6 5 -1 2 -5 4 -2 3 -4 3 -3 4 -3 2 -5 5 0 1 -7 6 -1 0 -6 5 -1 3 -5 3 -3 3 -3 3 -5 4 -2 2 -7 6 0 0 -6 5 -2 1 -6 5 -2 2 -5 4 -5 3 -2 2 -6 4 -2 1 -7 6 -1 0 -7 5 -2 2 -5 4 -4 3 -5 2 -5 4 -2 2 -7 5 -2 0 -8 6 0 0 -8 5 -3 1 -5 4 -5 3 -4 2 -6 4 -2 1 -9 5 -7 4 -7 4c-399,224 -1009,248 -1456,75l1 0z"/>
   <path class="fil21" d="M77407 165307l0 -872 2324 0 0 872c0,172 -112,342 -340,474 -454,262 -1189,262 -1646,0 -224,-132 -338,-302 -338,-474z"/>
   <path class="fil22" d="M77745 164906c457,264 1192,264 1646,0 453,-261 453,-684 0,-945 -454,-263 -1189,-263 -1646,0 -451,261 -451,683 0,945z"/>
   <path class="fil23" d="M57198 135221c17924,0 32557,8135 33426,18359 28,-319 41,-640 41,-963 0,-10671 -14984,-19322 -33467,-19322 -18483,0 -33467,8651 -33467,19322 0,323 14,644 41,963 869,-10224 15502,-18359 33426,-18359z"/>
   <path class="fil24" d="M83256 154522c0,-8309 -11666,-15045 -26058,-15045 -14391,0 -26058,6736 -26058,15045 0,8309 11667,15045 26058,15045 14392,0 26058,-6736 26058,-15045z"/>
   <polygon class="fil25" points="36604,167011 31641,164146 31641,163581 41569,163580 41569,164145 "/>
   <polygon class="fil26" points="36604,166445 31641,163581 36606,160714 41569,163580 "/>
   <polygon class="fil27" points="40646,163582 40251,163809 36606,161705 32959,163810 32565,163583 36606,161250 "/>
   <polygon class="fil21" points="40251,163809 36605,165915 32959,163810 36606,161705 "/>
   <path class="fil28" d="M22471 152753l0 -5 0 -5 0 -5c0,185 -2,1920 4,2077 441,10852 15817,19573 34721,19573 19103,0 34604,-8905 34729,-19917l-4 -1536 -2 28c-329,10912 -15748,19699 -34722,19699 -18992,0 -34423,-8804 -34722,-19732l-4 -177 0 0zm0 -15l0 -5 0 5z"/>
   <path class="fil29" d="M90666 152606c0,10676 -14984,19329 -33469,19329 -18483,0 -33468,-8653 -33468,-19329 0,-10675 14985,-19329 33468,-19329 18485,0 33469,8654 33469,19329zm-68191 324c299,10928 15730,19732 34722,19732 18974,0 34393,-8787 34722,-19699 4,-119 6,-238 6,-357 0,-11076 -15548,-20056 -34728,-20056 -19179,0 -34727,8980 -34727,20056 0,108 2,216 5,324l0 0z"/>
   <path class="fil20" d="M80207 169356l118 24208 1709 983c0,139 -21,1464 0,1573 0,0 1103,-635 1484,-954l0 -1531 -1681 -956 -117 -24018 -1 -126c0,0 -814,466 -1512,821z"/>
   <path class="fil20" d="M81059 166160l963 471c0,139 6,1721 6,1721l306 -180 -6 -1148c-6,-499 -168,-970 -456,-1355 -280,171 -587,358 -813,491l0 0z"/>
   <path class="fil30" d="M78055 164605c308,181 812,176 1126,0 196,-117 273,-273 222,-419l71 -72c46,-25 116,-45 192,5l1561 966c681,414 1091,1141 1101,1939l141 28862c0,600 1516,499 1516,25l-141 -28907c-20,-1319 -697,-2521 -1819,-3213l-1561 -965c-510,-313 -1157,-339 -1687,-55l-41 20c-495,273 -819,777 -864,1338 -101,162 -40,349 183,476l0 0z"/>
   <path class="fil31" d="M78241 164685c299,91 683,66 940,-80 197,-117 273,-273 222,-420l71 -71c46,-25 116,-45 192,5l798 490c-389,-252 -1434,-924 -1511,-924 -65,20 -232,-167 -444,171 -112,177 -202,536 -268,829l0 0z"/>
   <polygon class="fil25" points="30165,192595 30474,192775 30474,165465 30165,165285 "/>
   <polygon class="fil32" points="30474,192654 30971,192369 30971,165753 32699,164756 32699,164190 30474,165466 "/>
   <polygon class="fil25" points="33555,194432 33864,194612 33864,167422 33555,167243 "/>
   <polygon class="fil32" points="33863,194611 34360,194326 34360,167710 36087,166713 36087,166146 33863,167422 "/>
   <polygon class="fil27" points="30525,171799 33555,173535 33556,173017 30524,171274 "/>
   <polygon class="fil33" points="30524,171275 30971,171018 33562,172514 33555,173016 "/>
   <polygon class="fil27" points="30525,174935 33555,176671 33556,176153 30524,174410 "/>
   <polygon class="fil33" points="30524,174411 30971,174155 33562,175651 33555,176153 "/>
   <polygon class="fil27" points="30525,178072 33554,179808 33555,179291 30523,177548 "/>
   <polygon class="fil33" points="30522,177548 30970,177292 33561,178788 33555,179290 "/>
   <polygon class="fil27" points="30525,181208 33554,182945 33555,182427 30523,180684 "/>
   <polygon class="fil33" points="30522,180684 30970,180428 33561,181925 33555,182426 "/>
   <polygon class="fil27" points="30525,184341 33554,186077 33555,185559 30523,183816 "/>
   <polygon class="fil33" points="30522,183817 30970,183560 33561,185057 33555,185558 "/>
   <polygon class="fil34" points="30163,165285 30475,165466 32698,164190 32384,164010 "/>
   <polygon class="fil27" points="30525,187477 33554,189213 33555,188695 30523,186953 "/>
   <polygon class="fil33" points="30522,186953 30970,186697 33561,188192 33555,188695 "/>
   <polygon class="fil27" points="30524,190614 33553,192350 33554,191832 30521,190090 "/>
   <polygon class="fil33" points="30521,190090 30969,189834 33561,191330 33554,191832 "/>
   <polygon class="fil34" points="33551,167241 33863,167422 36087,166146 35773,165966 "/>
   <polygon class="fil27" points="30525,168662 33555,170399 33556,169880 30524,168138 "/>
   <polygon class="fil33" points="30524,168138 30971,167882 33562,169378 33555,169880 "/>
   <path class="fil35" d="M57788 180684c0,0 3080,5256 3080,6957 0,1701 -1379,3081 -3080,3081 -1701,0 -3080,-1380 -3080,-3081 0,-1701 3080,-6957 3080,-6957zm-1960 5390c-632,1701 67,3636 1857,3858 -1471,-924 -1903,-2097 -1857,-3858z"/>
   <path class="fil1" d="M12755 93626l45745 26411 0 0 -45745 -26411zm56446 33482c-4430,0 -8858,-1140 -12807,-3422l-45743 -26412c-4034,-2329 -5018,-3506 -5018,-6019 0,-2514 1256,-3847 5018,-6020l45740 -26409c7895,-4563 17715,-4566 25617,0l45745 26409c3943,2273 5015,3506 5015,6018 0,2513 -1026,3874 -5013,6024l-45745 26409c-3950,2280 -8382,3422 -12809,3422l0 0zm-59668 -33347l48357 27919 0 0 -48357 -27919zm59668 35393c-4683,0 -9363,-1205 -13538,-3618l-48354 -27919c-2303,-1328 -3677,-3705 -3677,-6362 0,-2657 1374,-5037 3677,-6363l48351 -27917c8346,-4823 18726,-4826 27079,0l48355 27917c2301,1326 3675,3706 3675,6361 0,2657 -1371,5036 -3672,6368l-48356 27915c-4175,2411 -8860,3618 -13540,3618l0 0z"/>
   <g>
    <g>
     <g>
      <path class="fil36" d="M43751 73588c-792,-517 -1629,-857 -1690,-1783l-43 29c1771,-1148 3030,-5786 4999,-6346 583,-166 2006,-1 2756,-39 846,-46 2313,-554 2860,-39 955,895 -574,5253 760,5878l-12 -6 5294 3056c-974,-656 -134,-3675 -376,-5158l1155 -621c1249,-638 2007,-2044 2058,-3297 54,-1408 105,-2171 68,-3378 -64,-2107 2202,-3248 5051,-6426 1077,-1204 1813,-2005 2748,-1513 786,413 1935,1604 2852,1483 1117,-149 1966,-1829 3008,-3564 704,-1166 2433,-3836 2822,-4929 1098,-3073 -3374,-2203 -2840,-5054 136,-722 1036,-2905 1356,-3969 1620,-5401 893,-4013 4208,-6019 976,-590 2055,-745 2863,-2546 249,-554 356,-1920 404,-3320 196,-21 427,-106 704,-265 1446,-826 3316,-2173 4210,-1724l-5301 -3060 24 17c-848,-614 -2807,805 -4309,1664 -1981,1135 -1588,-1534 -3035,-4075 -1660,-2916 1951,-4857 2787,-8070 78,-300 107,-553 96,-772 263,-179 537,-282 825,-283 274,-2 651,161 1049,389l-5303 -3061c-425,-250 -831,-434 -1122,-432 -2210,13 -3533,5960 -5795,6627 -595,175 -1973,-71 -2759,25 -2332,276 -3019,537 -3150,-619l3240 -1740c848,-459 1390,-567 1727,-377l-5358 -3093 6 4c-334,-210 -881,-108 -1751,362l-4391 2360c-2517,1317 -2169,4493 -2137,6683 32,2151 -2071,3144 -5038,6425 -1040,1150 -1793,2008 -2747,1495 -2969,-1593 -2682,-3183 -5856,2093 -771,1281 -2377,3633 -2755,4843l0 -1c-276,885 -416,1081 -61,1714 732,1309 3237,1149 2840,3416 -103,582 -1046,2998 -1355,3963 -878,2745 -652,4176 -2821,5260 -2691,1344 -4495,2083 -4566,5114 -15,651 -33,1103 -41,1747 -42,3141 -307,4759 523,4958 -42,-10 -82,-24 -118,-41l5298 3058c-589,-410 -365,-2009 -327,-4871l4 -226c1106,-58 1061,2045 2279,4331 1610,3013 -1810,4648 -2784,8071 -437,1540 611,1910 1591,2548 510,334 1448,1092 2208,1433 -72,-32 -146,-68 -221,-107l4945 2854c-590,-368 -1186,-834 -1556,-1076zm-1736 -1752c-31,20 -61,38 -91,55 30,-17 60,-35 91,-55zm-97 58c-30,18 -61,34 -92,49 31,-15 62,-31 92,-49zm-95 51c-31,15 -62,29 -93,42 31,-13 62,-27 93,-42zm-97 43c-32,14 -64,25 -97,36 33,-11 65,-23 97,-36zm-98 36c-66,22 -131,38 -199,49 68,-11 133,-27 199,-49zm-202 50c-33,5 -66,9 -99,12 33,-3 66,-7 99,-12zm-102 12c-34,3 -68,4 -102,4 34,0 68,-1 102,-4zm-183 0c-23,-3 -46,-6 -70,-10 24,4 47,7 70,10zm-161 -28c-24,-6 -49,-12 -74,-19 25,7 50,13 74,19zm42713 -51060c16,12 32,25 48,38 -16,-13 -32,-26 -48,-38zm50 40c16,14 31,29 46,45 -15,-16 -30,-31 -46,-45zm49 47c15,17 29,33 43,51 -14,-18 -28,-34 -43,-51zm44 52c15,18 28,36 41,56 -13,-20 -26,-38 -41,-56zm43 59c27,39 51,82 73,129 -22,-47 -46,-90 -73,-129zm75 134c11,23 22,48 31,73 -9,-25 -20,-50 -31,-73zm31 73l0 1c21,52 38,108 54,169l1 3c23,91 41,192 53,302 -12,-110 -30,-211 -53,-302l-55 -173zm108 482c8,72 13,147 16,228 -3,-81 -8,-156 -16,-228zm16 238c2,40 2,81 2,124 0,-43 0,-84 -2,-124zm2 128c0,45 0,90 -2,137 2,-47 2,-92 2,-137zm-30714 49039c25,11 51,21 78,30 -27,-9 -53,-19 -78,-30zm82 31c27,9 56,17 86,23 -30,-6 -59,-14 -86,-23zm87 23c30,6 62,11 95,14 -33,-3 -65,-8 -95,-14zm96 14c33,3 67,5 102,4 -35,1 -69,-1 -102,-4zm104 4c71,0 147,-7 228,-21 -81,14 -157,21 -228,21zm229 -21c40,-7 82,-16 125,-26 -43,10 -85,19 -125,26zm130 -27c42,-10 85,-22 129,-36 -44,14 -87,26 -129,36zm133 -37c45,-14 92,-30 140,-47 -48,17 -95,33 -140,47zm144 -48c48,-18 98,-38 149,-60 -51,22 -101,42 -149,60zm151 -60c51,-22 103,-45 157,-70 -54,25 -106,48 -157,70zm165 -74c52,-25 106,-51 161,-79 -55,28 -109,54 -161,79zm169 -83c58,-30 117,-62 178,-96 -61,34 -120,66 -178,96zm-22453 -13398c22,5 44,9 67,13 -23,-4 -45,-8 -67,-13zm71 13c23,3 47,5 71,6 -24,-1 -48,-3 -71,-6zm73 7c102,4 218,-7 349,-36 -131,29 -247,40 -349,36zm354 -37c31,-6 63,-14 95,-22 -32,8 -64,16 -95,22zm103 -24c104,-27 216,-63 338,-109 -122,46 -234,82 -338,109zm339 -109c38,-14 77,-29 117,-46 -40,17 -79,32 -117,46zm135 -52c38,-16 78,-32 118,-49 -40,17 -80,33 -118,49zm264 -113c46,-20 93,-42 142,-65 -49,23 -96,45 -142,65zm154 -70c45,-21 90,-43 137,-65 -47,22 -92,44 -137,65zm157 -75c152,-74 315,-157 488,-248 -173,91 -336,174 -488,248zm494 -251c239,-125 498,-267 779,-424 -281,157 -540,298 -779,424zm-806 397c-46,20 -91,40 -136,59l136 -59zm29291 -48435c0,-56 -1,-111 -2,-164 1,53 2,108 2,164zm-2 -175c-2,-56 -3,-110 -6,-163 3,53 4,107 6,163zm-23 -420c-4,-47 -9,-92 -14,-136 5,44 10,89 14,136zm-14 -136l-1 -10 -1 -9 -9 -59 -1 -8 -9 -60 -1 -6 -1 -5 -10 -52 -1 -10 -2 -8 -10 -50 -4 -15 -13 -54 -1 -3 -14 -53 -1 -5 -2 -5c-5,-17 -10,-33 -15,-49l-2 -6c-6,-17 -12,-34 -18,-50 6,16 12,33 18,50l98 467zm-117 -522l-18 -44c6,14 12,29 18,44zm-18 -44l-2 -6 -2 -4c-6,-14 -11,-27 -18,-41l-4 -9c-7,-14 -14,-28 -21,-42 7,14 14,28 21,42l26 60zm-49 -104c-7,-15 -15,-28 -23,-42 8,14 16,27 23,42zm-24 -44c-8,-12 -16,-24 -24,-36 8,12 16,24 24,36zm-31 -46c-8,-12 -16,-23 -24,-34 8,11 16,22 24,34zm-26 -36c-9,-12 -19,-24 -29,-35 10,11 20,23 29,35zm-29 -35c-9,-11 -19,-21 -28,-30 9,9 19,19 28,30zm-35 -37c-10,-10 -20,-19 -30,-28 10,9 20,18 30,28zm-33 -30c-11,-9 -22,-18 -34,-27 12,9 24,18 34,27zm-34 -27c-11,-8 -23,-16 -34,-24 11,8 23,16 34,24zm-13115 26503c4967,-8245 12766,-12464 17425,-9417 4658,3042 4408,12194 -557,20441 -4964,8243 -12763,12457 -17424,9416 -4656,-3043 -4410,-12193 556,-20440z"/>
     </g>
     <path class="fil37" d="M43289 34546c-276,884 -416,1080 -61,1714 733,1309 3238,1148 2840,3415 -104,582 -1046,2999 -1355,3964 -879,2745 -652,4175 -2822,5259 -2690,1345 -4494,2084 -4564,5115 -16,651 -34,1102 -42,1747 -73,5434 -814,6312 4609,3157 1939,-1129 1601,1331 3050,4052 1610,3013 -1810,4647 -2784,8070 -438,1540 612,1910 1591,2549 668,437 2072,1603 2847,1605 2221,10 3543,-5961 5795,-6602 583,-166 2006,-1 2756,-38 847,-46 2313,-555 2860,-39 1200,1123 -1517,7705 2431,5506l4390 -2357c1248,-639 2007,-2045 2058,-3298 55,-1408 105,-2170 68,-3378 -64,-2106 2202,-3248 5051,-6425 1077,-1205 1813,-2006 2748,-1513 786,413 1935,1604 2852,1483 1117,-150 1966,-1830 3009,-3564 703,-1166 2432,-3836 2821,-4929 1098,-3073 -3374,-2204 -2840,-5054 136,-722 1036,-2905 1356,-3969 1620,-5401 893,-4013 4208,-6019 977,-591 2054,-746 2863,-2547 512,-1137 423,-5700 461,-6958 92,-3019 -2725,-875 -4729,270 -1981,1136 -1588,-1533 -3035,-4074 -1660,-2917 1950,-4857 2787,-8070 415,-1598 -551,-1873 -1596,-2555 -646,-422 -2125,-1609 -2859,-1604 -2210,12 -3534,5959 -5794,6626 -596,176 -1974,-70 -2760,25 -3356,398 -3304,765 -3094,-3077 135,-2461 -44,-3545 -2192,-2385l-4391 2359c-2517,1318 -2169,4494 -2137,6684 32,2151 -2070,3144 -5038,6425 -1040,1149 -1793,2007 -2747,1495 -2969,-1594 -2682,-3184 -5857,2092 -770,1282 -2376,3633 -2754,4844l0 -1zm11600 2270c4967,-8245 12766,-12465 17425,-9418 4658,3043 4409,12195 -557,20442 -4964,8242 -12763,12457 -17424,9416 -4656,-3044 -4409,-12194 556,-20440z"/>
    </g>
    <g>
     <g>
      <path class="fil36" d="M86446 70236c-401,-262 -825,-435 -855,-903l-22 14c897,-581 1534,-2930 2532,-3214 295,-84 1015,0 1396,-20 428,-23 1171,-281 1448,-19 484,453 -291,2660 385,2977l-6 -4 2682 1549c-494,-333 -68,-1862 -191,-2613l585 -314c632,-324 1016,-1036 1042,-1671 28,-713 53,-1099 35,-1711 -33,-1066 1115,-1644 2558,-3254 546,-610 918,-1016 1392,-766 398,209 980,812 1444,751 566,-76 996,-927 1524,-1805 356,-591 1232,-1943 1429,-2497 556,-1556 -1709,-1115 -1438,-2559 69,-366 524,-1471 686,-2010 821,-2736 453,-2033 2132,-3049 494,-299 1040,-378 1449,-1290 127,-280 181,-972 205,-1681 99,-11 217,-54 357,-134 732,-419 1679,-1101 2132,-874l-2685 -1549 12 8c-429,-311 -1421,408 -2182,843 -1003,575 -804,-777 -1537,-2063 -841,-1478 988,-2461 1411,-4088 40,-152 55,-280 49,-391 133,-91 272,-143 418,-144 139,-1 329,82 531,198l-2685 -1551c-216,-126 -422,-220 -569,-219 -1120,7 -1789,3019 -2935,3357 -301,88 -999,-36 -1397,12 -1182,140 -1529,272 -1596,-313l1641 -881c430,-233 704,-287 875,-191l-2714 -1567 3 2c-169,-106 -446,-55 -887,184l-2224 1194c-1275,668 -1098,2277 -1082,3386 16,1089 -1049,1592 -2552,3254 -527,582 -908,1017 -1391,757 -1504,-807 -1358,-1612 -2966,1060 -390,649 -1204,1840 -1395,2453l0 0c-140,448 -211,547 -31,868 371,663 1640,581 1438,1730 -52,294 -530,1518 -686,2007 -445,1390 -330,2115 -1429,2664 -1363,681 -2277,1055 -2312,2590 -8,330 -17,559 -21,885 -22,1591 -156,2411 265,2511 -22,-5 -41,-12 -60,-21l2683 1549c-298,-207 -185,-1017 -165,-2467l2 -114c560,-29 537,1035 1154,2193 815,1526 -917,2354 -1410,4088 -222,780 310,967 805,1291 259,169 734,552 1119,725 -36,-16 -74,-34 -112,-54l2504 1445c-298,-186 -600,-422 -788,-544zm-879 -888c-15,10 -30,19 -46,28 16,-9 31,-18 46,-28zm-49 30c-15,9 -30,17 -46,25 16,-8 31,-16 46,-25zm-48 25c-15,8 -31,15 -47,22 16,-7 32,-14 47,-22zm-49 22c-16,7 -33,13 -49,19 16,-6 33,-12 49,-19zm-50 19c-33,11 -66,19 -100,24 34,-5 67,-13 100,-24zm-102 25c-16,2 -33,4 -50,6 17,-2 34,-4 50,-6zm-51 6c-18,1 -35,2 -52,2 17,0 34,-1 52,-2zm-93 0c-12,-1 -24,-3 -35,-5 12,2 23,4 35,5zm-82 -14c-12,-3 -25,-6 -38,-10 13,4 26,7 38,10zm21633 -25861c9,6 17,12 25,19 -8,-7 -16,-13 -25,-19zm26 20c8,7 16,15 23,23 -7,-8 -15,-16 -23,-23zm25 24c7,8 15,17 22,25 -7,-8 -15,-17 -22,-25zm22 26c7,9 14,18 21,29 -7,-11 -14,-20 -21,-29zm22 30c13,20 26,41 37,65 -11,-24 -24,-45 -37,-65zm38 68c5,12 11,24 15,37 -4,-13 -10,-25 -15,-37zm15 37l1 0c10,27 19,55 27,86l0 2c12,46 21,97 27,152 -6,-55 -15,-106 -27,-152l-28 -88zm55 244c4,36 7,75 8,115 -1,-40 -4,-79 -8,-115zm8 121c1,20 1,41 1,62 0,-21 0,-42 -1,-62zm1 65c0,22 0,45 -1,69 1,-24 1,-47 1,-69zm-15556 24836c13,6 26,11 40,16 -14,-5 -27,-10 -40,-16zm41 17c15,4 29,8 44,11 -15,-3 -29,-7 -44,-11zm45 11c15,3 31,5 48,7 -17,-2 -33,-4 -48,-7zm48 7c17,2 34,2 52,2 -18,0 -35,0 -52,-2zm53 2c36,0 74,-3 115,-10 -41,7 -79,10 -115,10zm116 -11c20,-3 41,-7 63,-13 -22,6 -43,10 -63,13zm66 -13c21,-5 43,-11 65,-18 -22,7 -44,13 -65,18zm67 -19c23,-7 47,-15 71,-24 -24,9 -48,17 -71,24zm73 -25c24,-8 50,-19 76,-29 -26,10 -52,21 -76,29zm77 -30c26,-11 52,-22 79,-35 -27,13 -53,24 -79,35zm83 -37c27,-12 54,-26 82,-40 -28,14 -55,28 -82,40zm86 -42c29,-15 59,-31 90,-49 -31,18 -61,34 -90,49zm-11372 -6786c11,3 22,5 34,6 -12,-1 -23,-3 -34,-6zm36 7c11,1 23,2 36,3 -13,-1 -25,-2 -36,-3zm37 3c51,2 110,-4 177,-18 -67,14 -126,20 -177,18zm179 -19c16,-3 32,-7 48,-11 -16,4 -32,8 -48,11zm52 -12c53,-14 109,-32 171,-55 -62,23 -118,41 -171,55zm172 -55c19,-7 39,-15 59,-23 -20,8 -40,16 -59,23zm68 -27c19,-7 40,-16 60,-24 -20,8 -40,17 -60,24zm134 -56c23,-11 47,-22 72,-33 -25,11 -49,22 -72,33zm78 -36c23,-11 46,-22 69,-33 -23,11 -46,22 -69,33zm79 -38c77,-38 160,-79 248,-125 -88,46 -171,87 -248,125zm251 -127c121,-63 252,-136 394,-215 -142,79 -273,151 -394,215zm-408 201c-24,10 -47,20 -69,30l69 -30zm14835 -24531c-1,-29 -1,-57 -1,-84 0,27 0,55 1,84zm-1 -89c-1,-28 -2,-56 -3,-83 1,27 2,55 3,83zm-12 -213c-2,-24 -4,-46 -7,-69 3,23 5,45 7,69zm-7 -69l-1 -5 0 -4 -4 -30 -1 -4 -5 -30 0 -4 -1 -2 -4 -27 -1 -5 -1 -3 -5 -26 -2 -8 -7 -27 0 -1 -7 -27 -1 -3 -1 -2c-2,-9 -5,-17 -8,-25l-1 -3c-3,-9 -6,-17 -8,-26 2,9 5,17 8,26l50 236zm-60 -264l-8 -22c3,7 6,14 8,22zm-8 -22l-1 -3 -1 -2c-3,-7 -6,-14 -9,-21l-3 -5c-3,-7 -7,-14 -10,-21 3,7 7,14 10,21l14 31zm-25 -53c-4,-7 -8,-14 -12,-21 4,7 8,14 12,21zm-13 -22c-3,-7 -7,-12 -11,-19 4,7 8,12 11,19zm-15 -23c-4,-7 -8,-12 -12,-18 4,6 8,11 12,18zm-13 -19c-5,-6 -10,-12 -15,-18 5,6 10,12 15,18zm-15 -18c-5,-5 -9,-10 -14,-15 5,5 9,10 14,15zm-18 -18c-5,-5 -10,-10 -15,-14 5,4 10,9 15,14zm-16 -15c-6,-5 -12,-10 -17,-14 5,4 11,9 17,14zm-17 -14c-6,-4 -12,-8 -18,-12 6,4 12,8 18,12zm-6643 13423c2515,-4176 6466,-6313 8826,-4769 2359,1541 2232,6176 -283,10353 -2514,4174 -6464,6309 -8824,4769 -2359,-1542 -2234,-6176 281,-10353z"/>
     </g>
     <path class="fil37" d="M86213 50461c-140,449 -211,548 -31,869 371,662 1639,581 1438,1729 -52,295 -530,1519 -686,2008 -445,1390 -330,2115 -1429,2663 -1363,682 -2277,1056 -2312,2591 -8,330 -17,558 -21,885 -37,2752 -413,3197 2334,1599 982,-572 811,674 1545,2052 815,1526 -917,2354 -1411,4088 -221,780 310,967 806,1291 339,221 1050,811 1443,813 1125,5 1794,-3020 2935,-3344 295,-84 1015,-1 1396,-20 428,-23 1171,-281 1448,-19 608,569 -768,3902 1231,2788l2224 -1193c632,-324 1016,-1036 1042,-1670 28,-714 53,-1100 34,-1712 -32,-1067 1116,-1644 2558,-3254 547,-610 919,-1016 1392,-766 399,209 981,812 1445,751 566,-76 996,-927 1524,-1805 356,-591 1231,-1943 1429,-2497 556,-1556 -1709,-1116 -1439,-2559 69,-366 525,-1472 687,-2011 820,-2735 453,-2032 2132,-3048 494,-299 1040,-378 1450,-1290 259,-576 214,-2887 233,-3524 46,-1529 -1380,-444 -2395,137 -1003,575 -804,-777 -1537,-2064 -841,-1477 988,-2460 1411,-4087 211,-809 -279,-949 -808,-1294 -327,-214 -1076,-816 -1448,-813 -1119,7 -1790,3019 -2935,3357 -301,88 -999,-36 -1397,12 -1700,201 -1674,387 -1567,-1558 67,-1247 -23,-1796 -1111,-1208l-2224 1194c-1275,668 -1098,2276 -1082,3386 16,1089 -1049,1592 -2552,3254 -527,582 -908,1017 -1391,757 -1504,-807 -1358,-1612 -2966,1060 -391,649 -1204,1840 -1395,2453l0 -1zm5875 1150c2515,-4176 6466,-6313 8825,-4770 2360,1542 2233,6177 -282,10354 -2514,4174 -6464,6309 -8825,4768 -2358,-1541 -2233,-6175 282,-10352z"/>
    </g>
    <g id="_2119037709280">
     <g>
      <path class="fil36" d="M61190 111395c-443,-289 -911,-480 -945,-997l-24 15c991,-642 1695,-3238 2797,-3551 327,-93 1123,-1 1543,-22 474,-26 1295,-311 1601,-22 534,501 -321,2940 425,3290l-7 -3 2963 1710c-545,-367 -75,-2057 -210,-2887l646 -347c699,-357 1124,-1145 1152,-1846 31,-788 58,-1215 38,-1891 -36,-1178 1232,-1817 2827,-3596 603,-673 1015,-1122 1538,-846 440,231 1083,898 1596,830 626,-84 1100,-1024 1684,-1995 394,-653 1361,-2147 1579,-2759 615,-1719 -1888,-1233 -1589,-2828 76,-405 579,-1626 759,-2221 906,-3023 499,-2247 2355,-3370 546,-330 1149,-417 1602,-1424 139,-310 199,-1075 226,-1859 110,-11 239,-59 394,-147 809,-463 1856,-1217 2356,-966l-2966 -1712 13 9c-475,-344 -1571,451 -2412,931 -1109,636 -889,-858 -1698,-2280 -929,-1632 1091,-2718 1559,-4517 44,-168 60,-310 55,-432 147,-100 299,-157 461,-158 153,-2 364,90 587,218l-2968 -1714c-238,-139 -465,-243 -628,-241 -1237,6 -1977,3335 -3243,3708 -333,98 -1104,-39 -1544,14 -1306,155 -1690,301 -1763,-346l1813 -974c475,-256 778,-317 967,-211l-2999 -1731 3 2c-187,-117 -493,-60 -980,203l-2457 1321c-1409,737 -1214,2515 -1196,3740 17,1204 -1159,1760 -2820,3596 -582,644 -1004,1124 -1538,837 -1661,-892 -1500,-1782 -3277,1171 -431,717 -1330,2034 -1542,2710l0 0c-154,495 -232,605 -34,960 410,732 1812,642 1590,1911 -58,326 -586,1678 -759,2218 -492,1537 -365,2337 -1579,2944 -1506,752 -2515,1166 -2555,2862 -8,365 -19,618 -23,978 -23,1758 -172,2664 293,2775 -24,-6 -46,-14 -67,-23l2966 1712c-330,-230 -205,-1125 -183,-2727l2 -126c619,-32 594,1144 1276,2424 900,1686 -1013,2601 -1559,4517 -245,862 343,1069 891,1426 285,187 810,611 1235,802 -40,-18 -81,-38 -123,-60l2767 1597c-330,-206 -663,-466 -871,-602zm-971 -980c-17,11 -34,21 -51,31 17,-10 34,-20 51,-31zm-54 32c-17,10 -34,19 -52,28 18,-9 35,-18 52,-28zm-53 29c-18,8 -35,16 -53,23 18,-7 35,-15 53,-23zm-55 24c-18,7 -36,14 -54,20 18,-6 36,-13 54,-20zm-55 20c-36,12 -73,21 -111,28 38,-7 75,-16 111,-28zm-113 28c-18,3 -36,5 -55,7 19,-2 37,-4 55,-7zm-57 7c-19,1 -38,2 -57,2 19,0 38,-1 57,-2zm-102 -1c-13,-1 -26,-3 -39,-5 13,2 26,4 39,5zm-90 -15c-14,-3 -28,-7 -42,-11 14,4 28,8 42,11zm23905 -28578c9,7 18,15 27,22 -9,-7 -18,-15 -27,-22zm28 23c9,8 18,16 26,25 -8,-9 -17,-17 -26,-25zm28 27c8,9 16,18 24,28 -8,-10 -16,-19 -24,-28zm25 29c7,10 15,20 22,31 -7,-11 -15,-21 -22,-31zm24 33c14,22 28,46 40,72 -12,-26 -26,-50 -40,-72zm41 75c6,13 12,26 18,41 -6,-15 -12,-28 -18,-41zm18 41l0 0c11,29 21,61 30,95l1 2c12,50 22,106 29,169 -7,-63 -17,-119 -29,-169l-31 -97zm60 269c5,40 7,83 9,128 -2,-45 -4,-88 -9,-128zm9 133c1,23 1,46 1,70 0,-24 0,-47 -1,-70zm1 73c0,24 0,50 -1,76 1,-26 1,-52 1,-76zm-17190 27445c14,7 29,12 44,17 -15,-5 -30,-11 -44,-17zm46 18c15,5 31,9 48,12 -17,-3 -33,-7 -48,-12zm49 12c17,4 35,7 53,8 -18,-1 -36,-4 -53,-8zm54 8c18,2 37,3 56,3 -19,0 -38,-1 -56,-3zm58 3c39,0 82,-4 127,-12 -45,8 -88,12 -127,12zm128 -12c22,-4 46,-9 70,-15 -24,6 -48,11 -70,15zm73 -16c23,-5 47,-12 72,-20 -25,8 -49,15 -72,20zm74 -20c25,-8 52,-17 78,-27 -26,10 -53,19 -78,27zm80 -27c28,-10 55,-21 84,-33 -29,12 -56,23 -84,33zm85 -34c29,-12 58,-25 88,-39 -30,14 -59,27 -88,39zm93 -41c29,-14 59,-29 90,-44 -31,15 -61,30 -90,44zm94 -47c32,-16 65,-34 99,-53 -34,19 -66,37 -99,53zm-12566 -7498c12,3 24,5 37,7 -13,-2 -25,-4 -37,-7zm40 7c12,2 26,3 39,4 -13,-1 -27,-2 -39,-4zm40 4c58,3 122,-4 196,-20 -74,16 -138,23 -196,20zm199 -21c17,-3 35,-7 53,-12 -18,5 -36,9 -53,12zm57 -13c58,-15 121,-36 189,-61 -68,25 -131,46 -189,61zm189 -61c22,-8 44,-17 66,-25 -22,8 -44,17 -66,25zm76 -29c22,-9 44,-18 67,-28 -23,10 -45,19 -67,28zm148 -63c26,-12 53,-24 79,-37 -26,13 -53,25 -79,37zm86 -40c25,-12 51,-24 77,-36 -26,12 -52,24 -77,36zm88 -42c85,-41 176,-87 273,-138 -97,51 -188,97 -273,138zm277 -140c133,-70 278,-149 435,-238 -157,89 -302,168 -435,238zm-451 222c-26,12 -52,23 -76,33l76 -33zm16393 -27108c0,-31 0,-62 -1,-92 1,30 1,61 1,92zm-1 -98c-1,-31 -2,-61 -3,-91 1,30 2,60 3,91zm-13 -235c-2,-26 -5,-51 -8,-76 3,25 6,50 8,76zm-8 -76l0 -5 -1 -5 -5 -33 0 -5 -6 -33 0 -4 -1 -3 -5 -29 -1 -6 -1 -4 -6 -28 -2 -8 -7 -31 0 -1 -8 -30 -1 -3 -1 -3c-3,-9 -5,-18 -9,-27l-1 -3c-3,-10 -6,-19 -9,-28 3,9 6,18 9,28l55 261zm-65 -292l-10 -25c3,8 6,17 10,25zm-10 -25l-1 -3 -1 -2c-4,-8 -7,-15 -10,-23l-3 -5c-4,-8 -8,-16 -12,-24 4,8 8,16 12,24l15 33zm-28 -58c-4,-8 -8,-16 -13,-23 5,7 9,15 13,23zm-13 -24c-5,-7 -9,-14 -13,-21 4,7 8,14 13,21zm-17 -26c-5,-7 -9,-13 -14,-19 5,6 9,12 14,19zm-15 -20c-5,-7 -11,-13 -16,-20 5,7 11,13 16,20zm-16 -20c-6,-6 -11,-11 -16,-17 5,6 10,11 16,17zm-20 -21c-5,-5 -11,-10 -17,-15 6,5 12,10 17,15zm-18 -16c-6,-6 -13,-11 -19,-15 6,4 13,9 19,15zm-19 -15c-6,-5 -13,-10 -20,-14 7,4 14,9 20,14zm-7341 14833c2780,-4615 7145,-6976 9753,-5271 2607,1703 2467,6825 -312,11441 -2778,4613 -7143,6971 -9752,5269 -2606,-1703 -2468,-6824 311,-11439z"/>
     </g>
     <path class="fil37" d="M60932 89544c-155,495 -233,605 -34,960 410,732 1812,642 1590,1911 -59,326 -586,1678 -759,2218 -491,1537 -365,2338 -1579,2944 -1506,752 -2516,1166 -2555,2863 -9,364 -19,617 -23,977 -41,3042 -456,3533 2580,1767 1084,-631 895,745 1706,2268 901,1686 -1013,2601 -1558,4517 -245,862 342,1069 890,1426 375,245 1160,897 1594,899 1244,5 1983,-3337 3244,-3695 326,-93 1122,-1 1542,-22 474,-25 1294,-310 1600,-22 672,629 -849,4312 1361,3082l2457 -1319c699,-358 1123,-1145 1152,-1846 30,-788 59,-1215 38,-1891 -36,-1178 1232,-1817 2827,-3596 603,-674 1014,-1122 1538,-846 439,231 1083,897 1596,830 625,-84 1100,-1024 1684,-1995 393,-653 1361,-2147 1579,-2759 614,-1719 -1888,-1233 -1589,-2828 76,-405 579,-1626 758,-2222 907,-3022 500,-2246 2356,-3368 546,-331 1149,-418 1602,-1426 286,-636 236,-3190 258,-3894 51,-1689 -1526,-490 -2647,152 -1108,635 -889,-859 -1699,-2281 -928,-1633 1092,-2718 1560,-4517 233,-894 -308,-1048 -893,-1429 -361,-237 -1189,-901 -1600,-898 -1237,6 -1978,3335 -3243,3708 -333,99 -1105,-39 -1544,14 -1879,222 -1850,428 -1732,-1722 75,-1377 -25,-1984 -1227,-1335l-2458 1320c-1408,738 -1214,2516 -1195,3741 17,1204 -1159,1760 -2820,3596 -582,643 -1003,1124 -1538,837 -1662,-892 -1500,-1782 -3277,1171 -432,717 -1330,2033 -1542,2710l0 0zm6492 1271c2780,-4615 7145,-6976 9753,-5271 2607,1703 2467,6825 -312,11440 -2778,4614 -7143,6972 -9752,5270 -2606,-1703 -2468,-6824 311,-11439z"/>
    </g>
   </g>
   <path class="fil29" d="M16817 135453c2164,1249 4849,1249 7013,0l14987 -8652c404,-235 448,-622 448,-778 0,-156 -44,-543 -448,-777l-14988 -8653c-2164,-1248 -4849,-1248 -7013,0l-14987 8653c-404,234 -448,621 -448,777 0,156 44,543 448,777l14988 8653 0 0zm3506 2317c-1451,0 -2902,-373 -4196,-1122l-14987 -8653c-714,-412 -1140,-1148 -1140,-1972 0,-823 426,-1561 1140,-1972l14986 -8653c2587,-1495 5804,-1496 8393,0l14988 8653c714,411 1139,1149 1139,1971 0,824 -425,1561 -1138,1974l-14988 8652c-1294,748 -2746,1122 -4197,1122l0 0z"/>
   <path class="fil29" d="M101949 218114c2164,1248 4849,1248 7012,0l14987 -8652c405,-235 448,-622 448,-778 0,-156 -43,-543 -448,-777l-14987 -8653c-2164,-1248 -4849,-1248 -7013,0l-14987 8653c-405,234 -448,621 -448,777 0,156 43,542 448,777l14988 8653 0 0zm3506 2317c-1452,0 -2902,-373 -4196,-1122l-14987 -8653c-714,-412 -1140,-1148 -1140,-1972 0,-824 426,-1561 1140,-1972l14986 -8653c2586,-1495 5804,-1496 8393,0l14988 8653c713,411 1139,1148 1139,1971 0,824 -426,1561 -1139,1974l-14988 8652c-1294,748 -2746,1122 -4196,1122l0 0z"/>
   <path class="fil29" d="M111532 16681c1662,959 3725,959 5387,0l11512 -6646c310,-180 344,-478 344,-598 0,-119 -34,-417 -344,-596l-11513 -6647c-1662,-958 -3725,-958 -5387,0l-11511 6647c-311,179 -345,477 -345,596 0,120 34,417 345,597l11512 6647 0 0zm2693 1779c-1115,0 -2229,-286 -3223,-861l-11512 -6647c-548,-316 -875,-882 -875,-1515 0,-632 327,-1198 875,-1515l11512 -6646c1987,-1148 4458,-1149 6446,0l11513 6646c548,317 875,883 875,1515 0,633 -327,1199 -874,1516l-11513 6646c-994,574 -2109,861 -3224,861l0 0z"/>
  </g>
 </g>
</svg>
