<?xml version="1.0" encoding="UTF-8"?>
<!DOCTYPE svg PUBLIC "-//W3C//DTD SVG 1.1//EN" "http://www.w3.org/Graphics/SVG/1.1/DTD/svg11.dtd">
<!-- Creator: CorelDRAW X7 -->
<svg xmlns="http://www.w3.org/2000/svg" xml:space="preserve" width="856px" height="712px" version="1.1" style="shape-rendering:geometricPrecision; text-rendering:geometricPrecision; image-rendering:optimizeQuality; fill-rule:evenodd; clip-rule:evenodd"
viewBox="0 0 2536882 2109491"
 xmlns:xlink="http://www.w3.org/1999/xlink">
 <defs>
  <style type="text/css">
   <![CDATA[
    .fil15 {fill:#FEFEFE}
    .fil3 {fill:#2B2A29}
    .fil11 {fill:#434242}
    .fil5 {fill:#5B5B5B}
    .fil6 {fill:#727271}
    .fil4 {fill:#80241E}
    .fil9 {fill:#898989}
    .fil7 {fill:#C5C6C6}
    .fil1 {fill:#E31E24}
    .fil13 {fill:#E31E24;fill-rule:nonzero}
    .fil12 {fill:#EA9A59;fill-rule:nonzero}
    .fil8 {fill:#FEFEFE;fill-rule:nonzero}
    .fil2 {fill:#FEFEFE;fill-opacity:0.501961}
    .fil0 {fill:#E31E24;fill-opacity:0.501961}
    .fil14 {fill:url(#id0)}
    .fil10 {fill:url(#id1)}
   ]]>
  </style>
  <radialGradient id="id0" gradientUnits="userSpaceOnUse" gradientTransform="matrix(25.0452 -0 -0 -25.0941 -9.99973E+006 3.58383E+006)" cx="415872" cy="137343" r="1.22763e+006" fx="415872" fy="137343">
   <stop offset="0" style="stop-opacity:1; stop-color:#463387"/>
   <stop offset="1" style="stop-opacity:1; stop-color:#2B2848"/>
  </radialGradient>
  <radialGradient id="id1" gradientUnits="userSpaceOnUse" gradientTransform="matrix(66.3401 -0 -0 -66.3391 -6.1034E+007 8.22544E+007)" cx="934096" cy="1.22149e+006" r="127413" fx="934096" fy="1.22149e+006">
   <stop offset="0" style="stop-opacity:1; stop-color:#614351"/>
   <stop offset="0.470588" style="stop-opacity:1; stop-color:#483177"/>
   <stop offset="0.729412" style="stop-opacity:1; stop-color:#3A3175"/>
   <stop offset="1" style="stop-opacity:1; stop-color:#342F63"/>
  </radialGradient>
 </defs>
 <g id="Слой_x0020_2">
  <metadata id="CorelCorpID_0Corel-Layer"/>
  <g id="_2118962214016">
   <path class="fil0" d="M194492 1625602c-11603,0 -23206,2990 -33559,8953l-143424 82812c-3869,2237 -4285,5938 -4285,7430 0,1491 416,5202 4289,7440l143427 82805c20706,11946 46404,11946 67114,0l143417 -82805c3879,-2238 4296,-5942 4296,-7433 0,-1492 -417,-5193 -4296,-7426l-143424 -82823c-10353,-5963 -21956,-8953 -33555,-8953l0 0zm7 211609c-13889,0 -27775,-3564 -40162,-10720l-143434 -82806c-6828,-3949 -10899,-11007 -10899,-18895 0,-7878 4078,-14929 10899,-18868l143427 -82802c24767,-14316 55556,-14316 80316,0l143424 82809c6835,3942 10910,10994 10910,18875 0,7888 -4075,14939 -10910,18881l-143413 82806c-12380,7149 -26276,10720 -40158,10720z"/>
   <path class="fil1" d="M1746871 1918501c-6270,0 -12534,1607 -18118,4831l-83341 48120c-963,563 -1113,1449 -1113,1918 0,484 147,1373 1113,1933l83344 48116 11 0c11162,6449 25040,6449 36219,0l83345 -48116c959,-560 1106,-1449 1106,-1933 0,-469 -147,-1355 -1106,-1918l-83352 -48120c-5591,-3224 -11851,-4831 -18108,-4831l0 0zm0 122966c-8549,0 -17099,-2198 -24725,-6610l-83337 -48116c-4835,-2783 -7724,-7790 -7724,-13371 0,-5573 2889,-10573 7724,-13363l83337 -48117c15244,-8794 34199,-8805 49436,0l83345 48117c4835,2790 7723,7790 7723,13363 0,5581 -2888,10588 -7723,13371l-83338 48116c-7618,4412 -16168,6610 -24718,6610l0 0z"/>
   <path class="fil2" d="M2308839 1488845c20706,11942 46404,11942 67110,0l143424 -82806c3872,-2244 4289,-5952 4289,-7443 0,-1488 -417,-5196 -4289,-7433l-143431 -82806c-20706,-11942 -46404,-11942 -67110,0l-143424 82806c-3873,2237 -4293,5945 -4293,7433 0,1491 420,5192 4293,7436l143431 82813 0 0zm33551 22169c-13889,0 -27771,-3571 -40154,-10731l-143424 -82813c-6835,-3942 -10910,-10990 -10910,-18874 0,-7881 4075,-14940 10910,-18871l143417 -82806c24753,-14309 55542,-14316 80316,0l143434 82806c6824,3931 10899,10990 10899,18864 0,7884 -4068,14939 -10892,18888l-143434 82806c-12384,7153 -26280,10731 -40162,10731l0 0z"/>
   <path class="fil3" d="M1255161 2008413c-9491,0 -18552,-1918 -25320,-5822l-1025599 -592130c-14957,-8634 -13073,-23710 4191,-33670l93235 -53830 927095 535250c6722,3886 15720,5791 25141,5791 11382,0 23391,-2780 32767,-8189l565213 -326324 98690 56978c14954,8627 13081,23702 -4183,33674l-658239 380027c-9435,5455 -21528,8245 -32991,8245l0 0z"/>
   <path class="fil4" d="M1253330 2109491c-11988,0 -23489,-2486 -32273,-7566l7 0 -1170508 -675789c-9558,-5518 -14827,-13480 -14827,-22404 0,-10269 7146,-20282 19599,-27474l168087 -98476 13164 7604 -174598 102297c-8179,4719 -13028,10717 -13028,16042 0,5140 4464,8802 8207,10969l1170507 675782 7 0c6673,3866 15842,5749 25512,5749 11981,0 24722,-2892 34427,-8504l797892 -467468c8178,-4723 13031,-10707 13031,-16043 0,-5139 -4460,-8794 -8207,-10962l-174437 -100713 13210 -7626 167831 96901c9561,5508 14827,13469 14827,22400 0,10262 -7146,20269 -19607,27460l-797884 467472c-11866,6855 -26745,10349 -40939,10349l0 0z"/>
   <path class="fil5" d="M1976287 1419785l0 0c7681,-2819 14032,-9555 17047,-19376l231026 -750083c5721,-18598 -2664,-41198 -18728,-50483l-1021554 -589791c-4660,-2682 -9447,-3960 -14047,-3960 -2584,0 -5112,406 -7520,1187l18020 -6278 94 -28 7 0c2189,-640 4471,-973 6810,-973 4594,0 9380,1278 14036,3970l1021565 589791c16057,9271 24445,31871 18718,50466l-231012 750087c-2941,9551 -9033,16172 -16442,19109l53 18 -18073 6347 0 -3z"/>
   <path class="fil6" d="M1253908 1864002c-9425,0 -18423,-1905 -25145,-5791l-927095 -535250 -65089 -37575 -13164 -7604 -13018 -7513c-5759,-3330 -8973,-7633 -9782,-12212l-28 14 -6095 -30408c1008,4324 4198,8357 9645,11533 7,0 7,0 7,0 35,21 63,42 98,56l1025599 592126c6768,3915 15836,5830 25331,5830 11326,0 23254,-2724 32641,-8046 115,-63 227,-126 339,-196l658239 -380027c42,-32 87,-60 129,-81 8046,-4670 12716,-10458 13868,-16175l-6242 29682 -35 -52c-1152,5710 -5781,11498 -13847,16147l-11162 6449 -13210 7626 -64008 36954 -565213 326324c-9376,5409 -21381,8189 -32763,8189l0 0zm-1049666 -624750l0 0zm1025599 592126l0 0zm25331 5830l0 0zm32980 -8242l0 0zm658239 -380031l0 0zm129 -77l0 0zm13868 -16175l0 0z"/>
   <path class="fil7" d="M1255172 1837208c-9495,0 -18563,-1915 -25331,-5830 6768,3915 15836,5830 25331,5830l0 0zm-11 -7990c-9491,0 -18552,-1908 -25320,-5819l-1025599 -592137c-5097,-2941 -8080,-6645 -9330,-10629 -1968,6845 900,13710 9225,18563 -5447,-3176 -8637,-7209 -9645,-11533 -1726,-7454 3039,-15786 13941,-22085l658228 -380020c9436,-5455 21532,-8253 32991,-8253 9495,0 18563,1919 25338,5830l5028 2906c749,518 1523,1008 2314,1463l1020399 589123c6334,4432 8834,10202 7654,16056 -1152,5714 -5823,11505 -13865,16175 11288,-6568 15783,-15296 13382,-22957 -1537,5346 -5956,10682 -13511,15044l-658239 380031c-9435,5455 -21528,8242 -32991,8242l0 0zm-325599 -249085c6768,3904 15619,5830 24851,5830 10966,0 22471,-2707 31644,-7997l138340 -79868c9418,-5441 14820,-12933 14820,-20545 -7,-6568 -3928,-12446 -11049,-16560l-268733 -155156c-6761,-3897 -15615,-5816 -24855,-5816 -10966,0 -22467,2707 -31650,7997l-138327 79871c-9414,5441 -14827,12923 -14816,20541 0,6572 3917,12443 11039,16561l268736 155149 0 -7 0 0zm455015 -39283c0,841 504,1635 1534,2231l38575 22267c1026,599 2412,889 3862,889 1747,0 3585,-427 5028,-1257l16718 -9649c1438,-833 2177,-1897 2177,-2906 0,-840 -504,-1635 -1540,-2230l-38558 -22267c-1037,-599 -2416,-890 -3866,-890 -1747,0 -3592,428 -5034,1257l-16715 9656c-1442,834 -2181,1898 -2181,2899zm-53917 -31125c7,834 511,1635 1540,2231l38565 22263c1037,602 2416,893 3865,893 1748,0 3593,-427 5028,-1253l16721 -9660c1443,-830 2175,-1894 2175,-2906 0,-830 -508,-1631 -1541,-2220l-38561 -22267c-1037,-599 -2420,-889 -3862,-889 -1747,0 -3592,423 -5028,1257l-16721 9649c-1443,830 -2181,1897 -2181,2902zm42244 -44093c0,1012 617,1985 1880,2710l101982 58882c1253,721 2944,1078 4705,1078 2129,0 4380,-518 6134,-1526l34304 -19810c1761,-1018 2658,-2317 2665,-3543 0,-1019 -620,-1995 -1873,-2724l-101985 -58871c-1261,-725 -2941,-1086 -4709,-1086 -2132,0 -4384,526 -6138,1534l-34304 19806c-1754,1012 -2654,2314 -2661,3550zm-12709 27046c0,830 501,1632 1537,2223l38569 22275c1029,598 2416,889 3862,889 1747,0 3585,-427 5027,-1264l16722 -9649c1435,-833 2174,-1898 2174,-2906 0,-830 -504,-1635 -1534,-2230l-38572 -22264c-1036,-595 -2416,-893 -3861,-893 -1748,0 -3593,427 -5028,1257l-16718 9656c-1443,834 -2178,1898 -2178,2906zm-83005 -13826c0,841 511,1635 1541,2231l38565 22267c1029,598 2416,889 3862,889 1747,0 3588,-427 5027,-1257l16718 -9649c1443,-833 2178,-1898 2178,-2906 0,-840 -501,-1635 -1537,-2230l-38562 -22267c-1036,-596 -2422,-890 -3868,-890 -1748,0 -3586,427 -5021,1257l-16722 9653c-1442,826 -2181,1890 -2181,2902l0 0zm174819 -27655c0,1012 620,1985 1873,2717l75555 43620c1257,725 2941,1079 4709,1079 2128,0 4380,-515 6137,-1534l34301 -19809c1761,-1019 2657,-2307 2657,-3547 0,-1012 -616,-1985 -1873,-2717l-75547 -43613c-1257,-732 -2948,-1086 -4709,-1086 -2140,0 -4391,515 -6138,1534l-34308 19809c-1764,1019 -2657,2307 -2657,3547l0 0zm-225589 -1954c-10,1022 609,1992 1873,2724l34630 19992c1257,724 2941,1078 4702,1078 2136,0 4387,-518 6141,-1534l40865 -23597c1758,-1009 2658,-2308 2658,-3543 7,-1016 -613,-1989 -1877,-2721l-34630 -19988c-1256,-725 -2941,-1078 -4702,-1078 -2135,0 -4386,515 -6141,1526l-40865 23602c-1754,1011 -2654,2310 -2654,3539zm318562 -4474c0,1015 623,1988 1880,2717l34626 19991c1257,725 2945,1078 4706,1078 2132,0 4383,-518 6137,-1526l34304 -19802c1761,-1026 2654,-2318 2654,-3554 0,-1015 -609,-1985 -1866,-2714l-34633 -19995c-1261,-724 -2945,-1085 -4713,-1085 -2132,0 -4376,525 -6137,1541l-34304 19806c-1751,1008 -2654,2307 -2654,3543l0 0zm-225904 -10217c0,1019 620,1993 1877,2717l34629 19995c1257,725 2941,1079 4709,1079 2129,0 4384,-515 6141,-1534l34308 -19802c1754,-1016 2654,-2315 2654,-3543 0,-1023 -616,-1996 -1880,-2721l-34627 -19988c-1253,-732 -2944,-1089 -4709,-1089 -2128,0 -4380,518 -6134,1534l-34304 19806c-1754,1015 -2657,2314 -2661,3543l-3 3zm78793 -14617c0,1015 616,1989 1873,2721l34626 19988c1264,731 2948,1088 4716,1088 2133,0 4373,-521 6134,-1537l34312 -19809c1754,-1008 2650,-2307 2650,-3536 0,-1023 -620,-1996 -1877,-2721l-34626 -19998c-1253,-725 -2944,-1078 -4706,-1078 -2128,0 -4379,521 -6134,1533l-34314 19806c-1761,1015 -2654,2314 -2654,3543l0 0zm-243728 -12418c0,1022 613,1995 1876,2727l55381 31965c1257,729 2948,1082 4706,1082 2132,0 4383,-518 6137,-1533l40873 -23591c1754,-1015 2657,-2314 2657,-3550 0,-1015 -620,-1989 -1884,-2720l-55374 -31969c-1256,-725 -2937,-1079 -4705,-1079 -2132,0 -4380,518 -6145,1527l-40865 23604c-1754,1009 -2657,2308 -2657,3537zm413754 -9629c-7,1023 609,1996 1873,2721l63770 36814c1263,725 2944,1089 4712,1089 2132,0 4373,-525 6127,-1540l34304 -19806c1761,-1005 2665,-2308 2665,-3543 0,-1016 -620,-1989 -1874,-2721l-63776 -36811c-1254,-728 -2938,-1085 -4699,-1085 -2139,0 -4387,518 -6141,1533l-34307 19803c-1755,1019 -2654,2314 -2654,3546zm-76385 16004c0,1023 617,1996 1884,2721l34623 19988c1253,731 2941,1088 4698,1088 2132,0 4384,-521 6145,-1537l34304 -19802c1754,-1015 2657,-2314 2657,-3543 0,-1022 -619,-1996 -1869,-2721l-34634 -19988c-1263,-735 -2944,-1088 -4712,-1088 -2129,0 -4384,518 -6138,1533l-34304 19806c-1750,1015 -2654,2314 -2654,3543l0 0zm-225900 -10213c0,1019 613,1993 1873,2721l34623 19991c1264,721 2948,1079 4716,1079 2129,0 4380,-519 6141,-1534l34304 -19806c1754,-1015 2654,-2314 2650,-3543 0,-1012 -616,-1989 -1873,-2713l-34626 -19995c-1257,-732 -2948,-1086 -4709,-1086 -2136,0 -4380,518 -6134,1541l-34308 19806c-1757,1008 -2657,2307 -2657,3543l0 -4zm78779 -14617c0,1022 620,1996 1884,2717l34626 19988c1253,735 2948,1089 4705,1089 2133,0 4384,-518 6134,-1534l34315 -19806c1761,-1015 2654,-2314 2654,-3543 0,-1022 -620,-1995 -1873,-2717l-34626 -19991c-1264,-732 -2948,-1089 -4709,-1089 -2136,0 -4380,522 -6141,1537l-34312 19802c-1754,1016 -2657,2315 -2657,3547l0 0zm93652 -6043c0,1022 616,1996 1873,2721l34623 19995c1264,724 2948,1088 4716,1088 2132,0 4380,-528 6137,-1544l34305 -19806c1754,-1008 2653,-2307 2653,-3543 0,-1015 -616,-1988 -1873,-2717l-34633 -19991c-1257,-725 -2937,-1078 -4705,-1078 -2133,0 -4384,518 -6138,1526l-34304 19813c-1754,1008 -2654,2304 -2654,3536zm-486063 -90588l185525 107117c1502,861 3460,1292 5413,1292 1961,0 3921,-431 5413,-1292l41674 -24063c1498,-858 2244,-1989 2244,-3116 0,-1138 -746,-2269 -2244,-3123l-185599 -107156c-49,-35 -105,-63 -154,-91l-46716 -26973 -8287 -4786 -378 -210c-1257,-735 -2944,-1089 -4712,-1089 -2133,0 -4377,518 -6131,1527l-40876 23597c-1750,1016 -2653,2315 -2653,3543 0,1023 619,1996 1883,2721l55367 31976c77,42 154,84 235,126l-4 0zm260159 80375c0,1026 616,1996 1873,2721l34623 19988c1260,731 2948,1089 4709,1089 2139,0 4390,-529 6145,-1534l34304 -19806c1757,-1015 2654,-2314 2654,-3543 0,-1022 -617,-1996 -1874,-2720l-34626 -19988c-1264,-732 -2944,-1089 -4712,-1089 -2133,0 -4377,521 -6138,1533l-34304 19806c-1754,1016 -2654,2314 -2654,3543zm304687 -4401c0,1019 619,1996 1876,2728l34623 19977c1264,736 2955,1089 4723,1089 2129,0 4373,-518 6127,-1526l34304 -19813c1761,-1016 2657,-2315 2657,-3540 0,-1019 -616,-1999 -1876,-2724l-34623 -19995c-1257,-725 -2948,-1078 -4709,-1078 -2129,0 -4380,518 -6141,1533l-34304 19813c-1754,1016 -2657,2308 -2657,3536l0 0zm96992 -7180c0,1022 616,1995 1876,2720l34623 19988c1264,732 2948,1085 4709,1085 2129,0 4383,-518 6141,-1533l11333 -6544c1761,-1019 2665,-2311 2665,-3546 0,-1012 -620,-1996 -1877,-2721l-34633 -19984c-1254,-729 -2938,-1082 -4706,-1082 -2129,0 -4380,518 -6141,1526l-11333 6547c-1761,1016 -2657,2315 -2657,3544l0 0zm-322893 -3032c0,1015 616,1988 1880,2713l34623 19995c1261,725 2941,1085 4709,1085 2132,0 4380,-525 6134,-1540l34315 -19806c1754,-1005 2654,-2307 2654,-3543 0,-1012 -617,-1992 -1880,-2717l-34627 -19992c-1257,-724 -2937,-1078 -4705,-1078 -2132,0 -4384,522 -6134,1530l-34315 19802c-1754,1023 -2654,2315 -2654,3551l0 0zm93645 -6043c0,1022 616,1988 1877,2720l34623 19988c1263,732 2944,1085 4709,1085 2135,0 4379,-518 6134,-1533l34304 -19810c1761,-1011 2657,-2310 2664,-3536 0,-1022 -620,-1995 -1877,-2724l-34633 -19995c-1253,-724 -2944,-1078 -4705,-1078 -2129,0 -4380,518 -6134,1534l-34315 19805c-1754,1016 -2647,2315 -2647,3544zm-225904 -10217c-3,1019 613,1992 1877,2721l34623 19991c1257,728 2941,1082 4709,1082 2139,0 4387,-518 6141,-1533l34307 -19806c1754,-1016 2654,-2315 2654,-3544 0,-1022 -616,-1988 -1880,-2720l-34626 -19988c-1257,-732 -2938,-1085 -4709,-1085 -2129,0 -4380,518 -6134,1533l-34304 19803c-1754,1018 -2658,2314 -2658,3546zm304690 -4397c0,1015 609,1989 1873,2720l34627 19981c1257,732 2948,1093 4716,1093 2135,0 4380,-515 6134,-1534l34304 -19809c1761,-1016 2654,-2308 2654,-3540 0,-1019 -617,-1992 -1873,-2724l-34623 -19988c-1264,-725 -2948,-1089 -4709,-1089 -2136,0 -4380,525 -6141,1534l-34304 19813c-1758,1015 -2658,2307 -2658,3543l0 0zm97475 -6901c0,1022 617,1992 1874,2717l34626 19999c1264,721 2948,1078 4712,1078 2132,0 4377,-518 6138,-1534l11340 -6540c1761,-1022 2654,-2321 2654,-3550 0,-1015 -616,-1989 -1873,-2713l-34623 -19995c-1264,-725 -2948,-1089 -4720,-1089 -2128,0 -4372,529 -6134,1544l-11340 6547c-1750,1008 -2654,2307 -2654,3536l0 0zm-323379 -3315c0,1011 620,1985 1877,2716l34626 19992c1264,728 2945,1085 4713,1085 2128,0 4373,-518 6134,-1537l34314 -19806c1754,-1011 2654,-2310 2654,-3539 0,-1023 -616,-1996 -1880,-2717l-34626 -19999c-1257,-721 -2938,-1078 -4706,-1078 -2132,0 -4383,518 -6134,1533l-34314 19803c-1761,1019 -2654,2318 -2654,3547l-4 0zm93642 -6047c0,1022 619,1999 1883,2724l34623 19988c1254,732 2945,1085 4706,1085 2132,0 4383,-518 6137,-1533l34304 -19806c1761,-1015 2658,-2314 2658,-3543 0,-1023 -610,-1996 -1870,-2721l-34630 -19988c-1264,-731 -2948,-1085 -4716,-1085 -2132,0 -4373,518 -6134,1534l-34304 19802c-1754,1019 -2657,2318 -2657,3543zm-225904 -10209c0,1015 616,1988 1877,2720l34622 19988c1264,732 2948,1086 4709,1086 2136,0 4387,-522 6148,-1534l34304 -19802c1755,-1016 2658,-2315 2658,-3544 0,-1022 -620,-1995 -1880,-2720l-34627 -19998c-1253,-722 -2937,-1079 -4698,-1079 -2139,0 -4390,518 -6145,1534l-34304 19806c-1761,1008 -2657,2307 -2661,3543l-3 0zm304697 -4405c-11,1026 609,2000 1873,2721l34626 19991c1254,728 2948,1086 4713,1086 2132,0 4383,-522 6137,-1534l34304 -19813c1754,-1008 2658,-2307 2658,-3536 0,-1022 -620,-1996 -1884,-2727l-34623 -19988c-1256,-725 -2941,-1079 -4709,-1079 -2128,0 -4383,518 -6137,1534l-34304 19809c-1751,1009 -2654,2311 -2654,3536l0 0zm97958 -6617c0,1023 616,1996 1880,2728l34616 19981c1264,731 2955,1088 4723,1088 2132,0 4384,-521 6134,-1526l11333 -6558c1761,-1015 2658,-2307 2658,-3543 0,-1012 -620,-1988 -1877,-2720l-34623 -19988c-1264,-732 -2948,-1086 -4709,-1086 -2135,0 -4380,519 -6134,1534l-11340 6547c-1754,1015 -2657,2314 -2661,3543l0 0zm-323862 -3599c0,1022 616,1996 1873,2720l34626 19988c1264,732 2948,1086 4716,1086 2129,0 4373,-518 6127,-1534l34312 -19806c1764,-1011 2657,-2303 2657,-3543 0,-1012 -620,-1988 -1877,-2717l-34622 -19991c-1257,-732 -2948,-1086 -4709,-1086 -2129,0 -4380,519 -6141,1534l-34308 19802c-1758,1019 -2654,2318 -2654,3547l0 0zm93641 -6036c0,1015 617,1989 1881,2713l34622 19995c1257,725 2941,1089 4709,1089 2129,0 4380,-525 6138,-1544l34300 -19806c1758,-1004 2658,-2303 2658,-3539 7,-1019 -609,-1989 -1873,-2721l-34634 -19988c-1256,-728 -2937,-1082 -4705,-1082 -2132,0 -4383,519 -6138,1527l-34304 19806c-1754,1022 -2654,2321 -2654,3550l0 0zm-225903 -10220c0,1026 616,1999 1876,2721l34623 19991c1257,728 2948,1085 4716,1085 2129,0 4380,-518 6134,-1533l34311 -19806c1754,-1015 2650,-2314 2650,-3543 0,-1022 -616,-1996 -1876,-2720l-34623 -19988c-1264,-732 -2948,-1089 -4709,-1089 -2136,0 -4383,521 -6134,1533l-34311 19806c-1754,1015 -2657,2314 -2657,3543l0 0zm304686 -4401c0,1023 620,1996 1877,2728l34622 19988c1264,724 2948,1078 4716,1078 2129,0 4380,-518 6141,-1523l34308 -19816c1754,-1012 2654,-2315 2654,-3540 -7,-1019 -623,-1999 -1880,-2720l-34626 -19999c-1257,-721 -2941,-1078 -4706,-1078 -2132,0 -4383,518 -6137,1533l-34305 19813c-1761,1016 -2664,2307 -2664,3536l0 0zm98455 -6333c0,1022 620,1995 1884,2720l34623 19995c1257,725 2941,1079 4709,1079 2129,0 4380,-519 6134,-1534l11340 -6547c1754,-1008 2657,-2307 2657,-3543 0,-1016 -619,-1985 -1876,-2721l-34630 -19988c-1257,-724 -2941,-1078 -4709,-1078 -2132,0 -4380,518 -6137,1534l-11341 6540c-1750,1015 -2654,2314 -2654,3543l0 0zm-324355 -3879c0,1015 616,1995 1880,2720l34623 19988c1260,725 2947,1089 4719,1089 2129,0 4373,-518 6127,-1534l34311 -19813c1754,-1008 2658,-2307 2658,-3536 0,-1022 -620,-1995 -1877,-2727l-34623 -19992c-1267,-721 -2948,-1078 -4709,-1078 -2139,0 -4380,522 -6144,1530l-34311 19809c-1755,1016 -2654,2315 -2654,3544zm93645 -6043c0,1022 619,1988 1876,2720l34623 19988c1264,735 2948,1089 4716,1089 2132,0 4373,-518 6134,-1534l34304 -19806c1758,-1015 2657,-2314 2657,-3543 0,-1022 -609,-1995 -1876,-2717l-34630 -19998c-1257,-725 -2937,-1082 -4709,-1082 -2129,0 -4380,522 -6134,1537l-34304 19802c-1761,1019 -2657,2315 -2657,3544l0 0zm-225901 -10210c0,1016 609,1985 1873,2714l34627 19995c1253,724 2944,1085 4712,1085 2132,0 4384,-525 6138,-1537l34304 -19806c1754,-1008 2657,-2311 2657,-3543 0,-1019 -620,-1992 -1877,-2721l-34622 -19991c-1264,-721 -2948,-1078 -4716,-1078 -2132,0 -4377,521 -6134,1526l-34304 19806c-1758,1022 -2658,2314 -2658,3550l0 0zm304687 -4404c0,1015 616,1988 1873,2720l34626 19999c1257,724 2948,1078 4716,1078 2132,0 4380,-518 6134,-1533l34308 -19813c1761,-1016 2654,-2308 2654,-3533 0,-1026 -620,-1999 -1877,-2727l-34623 -19992c-1264,-725 -2944,-1078 -4709,-1078 -2132,0 -4380,518 -6134,1526l-34314 19813c-1751,1012 -2654,2314 -2654,3543l0 -3zm-225901 -10217c0,1023 616,1996 1880,2728l34620 19981c1264,732 2951,1085 4719,1085 2129,0 4373,-518 6127,-1526l34315 -19813c1754,-1012 2654,-2314 2654,-3543 0,-1016 -617,-1993 -1880,-2717l-34627 -19999c-1257,-721 -2937,-1078 -4705,-1078 -2132,0 -4380,518 -6134,1533l-34315 19813c-1754,1009 -2654,2308 -2654,3536l0 0zm93645 -6035c0,1015 616,1988 1877,2716l34623 19985c1263,732 2948,1092 4712,1092 2136,0 4380,-525 6131,-1533l34304 -19810c1761,-1019 2664,-2310 2664,-3543 0,-1019 -620,-1988 -1877,-2720l-34629 -19992c-1264,-728 -2948,-1085 -4709,-1085 -2129,0 -4380,525 -6134,1533l-34315 19806c-1751,1016 -2654,2315 -2647,3551l0 0zm-353328 -15595c0,1016 617,1996 1874,2717l55374 31973c1263,721 2947,1085 4716,1085 2132,0 4372,-518 6127,-1533l40875 -23598c1758,-1015 2654,-2314 2654,-3543 0,-1023 -616,-1996 -1873,-2721l-55374 -31975c-1257,-725 -2948,-1079 -4709,-1079 -2129,0 -4380,518 -6141,1534l-40869 23597c-1761,1012 -2654,2308 -2654,3543l0 0zm127424 5378c-3,1012 613,1985 1877,2717l34626 19992c1254,728 2938,1081 4706,1081 2139,0 4390,-514 6141,-1533l34307 -19809c1754,-1009 2654,-2311 2654,-3537 0,-1022 -616,-1995 -1880,-2720l-34623 -19995c-1257,-725 -2941,-1082 -4709,-1082 -2128,0 -4383,518 -6137,1534l-34304 19806c-1754,1015 -2654,2314 -2654,3543l-4 3zm304690 -4404c0,1022 609,1995 1873,2720l34627 19995c1257,725 2948,1079 4709,1079 2135,0 4387,-515 6141,-1534l34304 -19809c1754,-1012 2654,-2311 2654,-3540 0,-1019 -617,-1996 -1873,-2717l-34630 -19988c-1257,-732 -2948,-1089 -4709,-1089 -2129,0 -4384,518 -6134,1534l-34308 19813c-1750,1008 -2654,2307 -2654,3536l0 0zm-225904 -10210c0,1012 620,1986 1877,2721l34623 19981c1264,728 2955,1092 4716,1092 2128,0 4373,-525 6134,-1533l34314 -19813c1755,-1016 2654,-2307 2647,-3543 0,-1016 -619,-1989 -1873,-2721l-34626 -19988c-1257,-732 -2938,-1085 -4709,-1085 -2129,0 -4380,515 -6134,1533l-34315 19810c-1761,1019 -2654,2311 -2654,3546zm93642 -6046c0,1022 616,1996 1880,2720l34626 19988c1257,732 2948,1089 4713,1089 2132,0 4376,-521 6130,-1537l34304 -19809c1754,-1009 2658,-2307 2665,-3536 0,-1023 -620,-1996 -1877,-2728l-34630 -19988c-1257,-724 -2937,-1078 -4709,-1078 -2128,0 -4380,518 -6141,1533l-34304 19813c-1754,1009 -2654,2308 -2654,3533l-3 0zm-225904 -10216c0,1022 616,1995 1877,2717l34622 19991c1264,728 2948,1085 4720,1085 2132,0 4380,-518 6141,-1533l34304 -19803c1751,-1018 2654,-2314 2654,-3546 0,-1023 -620,-1996 -1884,-2721l-34623 -19988c-1256,-731 -2947,-1085 -4709,-1085 -2128,0 -4379,518 -6134,1534l-34304 19806c-1761,1011 -2664,2314 -2664,3543l0 0zm304686 -4405c0,1026 620,1996 1877,2728l34633 19988c1254,724 2938,1078 4706,1078 2135,0 4383,-515 6144,-1523l34304 -19813c1755,-1015 2654,-2307 2654,-3543 0,-1015 -616,-1989 -1880,-2720l-34623 -19988c-1260,-725 -2948,-1089 -4716,-1089 -2132,0 -4376,521 -6130,1533l-34304 19813c-1751,1008 -2654,2307 -2665,3536l0 0zm-432113 -973c7,1022 626,1999 1883,2720l34626 19999c1254,725 2945,1078 4706,1078 2132,0 4380,-518 6137,-1533l40869 -23598c1758,-1015 2658,-2307 2658,-3543 0,-1015 -617,-1989 -1874,-2721l-34626 -19988c-1264,-731 -2944,-1088 -4705,-1088 -2139,0 -4380,521 -6145,1533l-40872 23601c-1758,1016 -2657,2311 -2657,3540l0 0zm206220 -9236c0,1022 616,1996 1877,2717l34622 19998c1257,725 2941,1079 4706,1079 2132,0 4383,-519 6137,-1534l34312 -19813c1761,-1008 2657,-2307 2657,-3536 0,-1022 -620,-1992 -1877,-2727l-34622 -19985c-1268,-728 -2948,-1085 -4709,-1085 -2133,0 -4380,522 -6145,1530l-34311 19820c-1754,1008 -2647,2304 -2647,3536l0 0zm93641 -6043c0,1022 617,1996 1874,2724l34622 19981c1268,735 2959,1089 4723,1089 2129,0 4373,-518 6131,-1527l34304 -19813c1754,-1012 2654,-2314 2654,-3539 0,-1019 -609,-1996 -1873,-2721l-34634 -19995c-1256,-728 -2937,-1082 -4698,-1082 -2139,0 -4387,519 -6145,1534l-34304 19813c-1754,1012 -2657,2307 -2657,3536l3 0zm-225903 -10213c0,1015 616,1989 1876,2714l34623 19998c1253,721 2948,1085 4716,1085 2129,0 4380,-528 6134,-1540l34304 -19806c1761,-1008 2654,-2307 2654,-3543 0,-1016 -616,-1996 -1873,-2721l-34623 -19988c-1264,-724 -2948,-1081 -4709,-1081 -2132,0 -4383,521 -6144,1530l-34301 19806c-1758,1018 -2657,2314 -2657,3550l0 -4zm304690 -4401c0,1016 616,1989 1873,2721l34626 19988c1264,731 2944,1085 4712,1085 2133,0 4384,-518 6145,-1534l34304 -19805c1754,-1012 2647,-2315 2647,-3540 0,-1026 -616,-1999 -1873,-2728l-34623 -19984c-1267,-728 -2948,-1085 -4716,-1085 -2132,0 -4373,518 -6127,1526l-34308 19813c-1761,1015 -2660,2307 -2660,3543l0 0zm-432118 -973c0,1015 616,1989 1880,2713l34627 19995c1256,725 2941,1079 4705,1079 2136,0 4384,-519 6138,-1534l40872 -23598c1757,-1004 2657,-2303 2657,-3532 0,-1023 -616,-1996 -1880,-2728l-34626 -19981c-1257,-735 -2948,-1088 -4716,-1088 -2129,0 -4373,521 -6127,1526l-40872 23605c-1754,1008 -2658,2307 -2658,3543l0 0zm206214 -9247c0,1023 616,1996 1880,2728l34623 19988c1260,725 2944,1082 4709,1082 2132,0 4383,-522 6137,-1530l34311 -19810c1754,-1015 2658,-2314 2658,-3543 0,-1015 -620,-1996 -1884,-2720l-34626 -19995c-1254,-725 -2938,-1082 -4706,-1082 -2132,0 -4376,518 -6137,1537l-34311 19809c-1751,1009 -2654,2308 -2654,3536l0 0zm92311 -6809c0,1026 619,1995 1883,2727l34623 19988c1257,725 2941,1078 4706,1078 2132,0 4383,-514 6137,-1523l34311 -19806c1754,-1022 2651,-2314 2658,-3550 0,-1015 -617,-1988 -1884,-2713l-34616 -19999c-1264,-721 -2955,-1085 -4716,-1085 -2136,0 -4380,529 -6144,1541l-34301 19806c-1754,1008 -2657,2307 -2657,3536l0 0zm-292944 -48918c0,1022 620,1995 1884,2720l101970 58872c1264,732 2952,1089 4720,1089 2132,0 4376,-519 6137,-1527l34304 -19813c1754,-1015 2658,-2314 2647,-3543 0,-1022 -619,-1996 -1873,-2720l-101970 -58875c-1264,-729 -2948,-1082 -4709,-1082 -2136,0 -4380,514 -6141,1533l-34315 19803c-1751,1015 -2654,2317 -2654,3543l0 0zm373064 35074c0,1019 619,1992 1873,2717l34626 19995c1257,725 2948,1078 4716,1078 2129,0 4383,-514 6134,-1533l34308 -19803c1761,-1015 2654,-2314 2654,-3543 0,-1015 -620,-1988 -1874,-2720l-34626 -19988c-1264,-732 -2948,-1089 -4716,-1089 -2129,0 -4373,518 -6134,1544l-34307 19803c-1751,1011 -2654,2307 -2654,3539zm-432114 -977c0,1023 616,1996 1873,2721l34626 19988c1264,724 2948,1089 4709,1089 2136,0 4380,-526 6141,-1534l40873 -23605c1754,-1008 2657,-2307 2646,-3536 0,-1022 -616,-1995 -1873,-2717l-34622 -19991c-1264,-732 -2948,-1085 -4717,-1085 -2132,0 -4372,518 -6130,1533l-40872 23594c-1754,1019 -2654,2311 -2654,3543l0 0zm205419 -9698c0,1016 616,1989 1873,2721l34622 19988c1264,731 2948,1085 4716,1085 2129,0 4373,-518 6127,-1541l34315 -19802c1758,-1008 2654,-2311 2654,-3536 0,-1026 -616,-1999 -1873,-2721l-34626 -19998c-1257,-721 -2948,-1078 -4709,-1078 -2129,0 -4380,518 -6134,1533l-34312 19806c-1764,1015 -2657,2314 -2657,3543l4 0zm91771 -7114c7,1012 624,1985 1880,2720l34627 19985c1253,735 2944,1089 4705,1089 2139,0 4380,-519 6134,-1534l34315 -19813c1761,-1005 2654,-2307 2654,-3532 0,-1026 -616,-1996 -1873,-2721l-34623 -19995c-1264,-725 -2948,-1082 -4709,-1082 -2139,0 -4384,519 -6145,1534l-34311 19806c-1750,1015 -2654,2314 -2654,3543l0 0zm204932 -4965c0,1016 620,1985 1877,2714l34623 19995c1264,724 2948,1085 4712,1085 2132,0 4377,-515 6138,-1537l11340 -6551c1761,-1008 2657,-2303 2657,-3536 0,-1022 -619,-1995 -1876,-2720l-34623 -19995c-1264,-725 -2948,-1078 -4709,-1078 -2129,0 -4383,518 -6145,1533l-11336 6547c-1761,1015 -2658,2314 -2658,3543l0 0zm-123478 -8119c-7,1019 610,1999 1873,2724l34627 19988c1257,721 2948,1085 4705,1085 2139,0 4391,-525 6145,-1533l34304 -19806c1754,-1015 2657,-2314 2657,-3543 0,-1019 -619,-1996 -1883,-2717l-34623 -19999c-1257,-724 -2941,-1085 -4709,-1085 -2132,0 -4380,525 -6134,1541l-34304 19806c-1754,1015 -2658,2307 -2658,3539l0 0zm-267536 -34255c0,1026 613,1999 1877,2727l74571 43050c1260,729 2948,1086 4716,1086 2128,0 4373,-518 6127,-1527l34314 -19813c1762,-1015 2654,-2314 2654,-3543 0,-1015 -616,-1995 -1873,-2720l-74574 -43061c-1264,-721 -2948,-1078 -4709,-1078 -2136,0 -4380,518 -6141,1533l-34311 19813c-1751,1009 -2651,2308 -2651,3533l0 0zm131283 15696c0,1022 619,1995 1876,2727l34623 19981c1264,732 2955,1085 4723,1085 2129,0 4373,-514 6127,-1526l34311 -19810c1758,-1018 2650,-2317 2650,-3543 0,-1022 -619,-1995 -1876,-2720l-34623 -19995c-1257,-725 -2948,-1082 -4709,-1082 -2139,0 -4380,518 -6137,1537l-34312 19809c-1750,1009 -2653,2308 -2653,3537zm206745 -3911c0,1022 616,1992 1873,2717l34627 19991c1263,725 2948,1086 4716,1086 2128,0 4380,-526 6141,-1534l11333 -6547c1761,-1015 2654,-2314 2654,-3543 0,-1023 -617,-1996 -1873,-2721l-34623 -19988c-1264,-735 -2948,-1088 -4716,-1088 -2132,0 -4377,518 -6138,1533l-11329 6547c-1754,1016 -2658,2307 -2665,3543l0 4zm-123698 -8245c0,1015 616,1988 1880,2717l34619 19991c1264,732 2944,1085 4712,1085 2133,0 4384,-518 6134,-1533l34308 -19803c1754,-1018 2654,-2317 2654,-3543 7,-1025 -609,-1999 -1873,-2724l-34633 -19995c-1257,-724 -2938,-1078 -4699,-1078 -2136,0 -4387,518 -6144,1534l-34305 19806c-1754,1008 -2653,2307 -2653,3543zm-162278 -33590c0,1015 616,1995 1873,2720l60521 34945c1257,725 2948,1078 4709,1078 2132,0 4383,-518 6144,-1526l34304 -19813c1754,-1012 2654,-2314 2654,-3543 0,-1023 -620,-1996 -1883,-2717l-60514 -34938c-1264,-732 -2952,-1085 -4713,-1085 -2132,0 -4383,518 -6137,1526l-34304 19810c-1754,1018 -2654,2317 -2654,3543l0 0zm232994 11242c0,1015 619,1989 1876,2720l34633 19995c1254,725 2938,1079 4706,1079 2132,0 4380,-518 6134,-1534l11337 -6554c1761,-1008 2660,-2307 2660,-3536 0,-1022 -616,-1996 -1876,-2727l-34623 -19981c-1264,-732 -2955,-1089 -4723,-1089 -2129,0 -4373,521 -6127,1530l-11340 6554c-1754,1015 -2654,2314 -2654,3543l-3 0zm-123927 -8371c0,1015 620,1988 1877,2713l34623 19995c1264,732 2948,1085 4719,1085 2129,0 4373,-518 6134,-1540l34311 -19806c1754,-1008 2654,-2307 2654,-3543 -3,-1015 -623,-1989 -1880,-2717l-34623 -19992c-1257,-724 -2944,-1078 -4709,-1078 -2132,0 -4383,518 -6137,1534l-34308 19806c-1764,1015 -2661,2314 -2661,3543l0 0zm70940 -22218c0,1011 620,1985 1884,2720l34623 19988c1257,732 2941,1085 4709,1085 2132,0 4383,-518 6134,-1533l11350 -6547c1751,-1016 2647,-2315 2647,-3544 0,-1015 -616,-1995 -1876,-2720l-34623 -19995c-1257,-725 -2948,-1078 -4709,-1078 -2132,0 -4380,518 -6134,1533l-11351 6544c-1750,1019 -2654,2318 -2654,3547zm-124147 -8501c0,1015 620,1995 1877,2720l34630 19988c1260,725 2948,1089 4716,1089 2132,0 4376,-522 6127,-1534l34308 -19812c1761,-1012 2653,-2308 2653,-3537 0,-1022 -616,-1995 -1873,-2727l-34626 -19988c-1257,-725 -2948,-1078 -4709,-1078 -2129,0 -4380,514 -6134,1526l-34311 19813c-1754,1012 -2658,2311 -2658,3543l0 -3zm54713 -31591c0,1019 619,1992 1876,2717l34623 19995c1264,725 2948,1082 4716,1082 2132,0 4380,-518 6134,-1537l11340 -6544c1761,-1008 2658,-2311 2658,-3536 0,-1022 -617,-1996 -1877,-2727l-34623 -19988c-1264,-725 -2948,-1082 -4712,-1082 -2136,0 -4377,521 -6138,1526l-11340 6551c-1754,1015 -2657,2314 -2657,3543l0 0zm357144 862351c115,-63 227,-126 339,-196 -112,70 -224,137 -339,196zm-333519 -251052c-7888,0 -15380,-1541 -20845,-4689l-268737 -155163c-3274,-1880 -7174,-5119 -7174,-9828 0,-4765 3991,-9803 10952,-13822l138326 -79865c7860,-4530 18178,-6872 27890,-6872 7888,0 15391,1540 20842,4698l268737 155150c3274,1887 7174,5125 7174,9834 0,4772 -3991,9807 -10945,13819l-138340 79861c-7846,4548 -18157,6877 -27880,6877l0 0zm992097 -129175c42,-28 87,-49 129,-77 -42,21 -87,49 -129,77zm-1742149 -209683c-35,-14 -63,-35 -98,-56 35,21 63,42 98,56z"/>
   <path class="fil8" d="M1946391 1440945l-658239 380031c-17253,9968 -43365,11050 -58311,2423l-1025599 -592137c-5097,-2937 -8080,-6645 -9330,-10629 -1975,6873 924,13770 9330,18619l1025599 592126c14946,8638 41058,7556 58311,-2412l658239 -380031c11385,-6575 15923,-15335 13514,-23034 -1540,5346 -5959,10682 -13514,15044z"/>
   <path class="fil9" d="M698144 1144249c-1761,0 -3445,-365 -4709,-1089l-34623 -19988c-1256,-725 -1876,-1698 -1876,-2721 0,-1232 903,-2524 2654,-3543l40875 -23594c1755,-1019 3999,-1533 6127,-1533 1769,0 3453,353 4717,1085l34622 19988c1257,725 1877,1698 1877,2720 7,1229 -896,2528 -2650,3536l-40873 23605c-1761,1008 -4005,1534 -6141,1534l0 0z"/>
   <path class="fil9" d="M751617 1175115c-1764,0 -3449,-354 -4705,-1079l-34627 -19995c-1264,-724 -1880,-1698 -1880,-2713 0,-1236 904,-2535 2658,-3543l40872 -23605c1754,-1005 3998,-1526 6127,-1526 1768,0 3459,353 4716,1088l34626 19981c1264,729 1880,1702 1880,2728 0,1225 -900,2524 -2657,3532l-40872 23598c-1754,1015 -4002,1534 -6134,1534l-4 0z"/>
   <path class="fil9" d="M805090 1205991c-1761,0 -3452,-353 -4706,-1078l-34626 -19999c-1257,-721 -1876,-1698 -1883,-2720 0,-1225 899,-2524 2657,-3540l40876 -23601c1761,-1012 4002,-1533 6141,-1533 1761,0 3441,357 4705,1088l34626 19988c1257,732 1877,1706 1877,2721 0,1236 -903,2528 -2661,3543l-40869 23598c-1757,1015 -4005,1533 -6134,1533l-3 0z"/>
   <path class="fil9" d="M879048 1180499c-1768,0 -3463,-364 -4716,-1085l-34623 -19998c-1260,-725 -1876,-1699 -1876,-2714 0,-1232 899,-2528 2657,-3550l34301 -19806c1761,-1005 4012,-1526 6144,-1526 1761,0 3445,357 4709,1081l34623 19988c1260,725 1876,1705 1876,2721 0,1232 -896,2535 -2657,3543l-34304 19806c-1754,1012 -4005,1540 -6134,1540l0 0z"/>
   <path class="fil9" d="M932517 1211365c-1768,0 -3452,-353 -4716,-1085l-34622 -19988c-1261,-725 -1877,-1698 -1877,-2720 0,-1229 903,-2528 2661,-3543l34307 -19806c1755,-1016 4006,-1534 6134,-1534 1762,0 3453,354 4709,1085l34623 19988c1264,729 1880,1702 1880,2721 0,1232 -899,2528 -2654,3546l-34304 19803c-1761,1015 -4005,1533 -6141,1533l0 0z"/>
   <path class="fil9" d="M985987 1242238c-1768,0 -3452,-350 -4709,-1081l-34623 -19988c-1267,-732 -1880,-1709 -1877,-2721 0,-1232 904,-2528 2658,-3546l34304 -19803c1754,-1015 4005,-1537 6134,-1537 1771,0 3455,357 4709,1082l34623 19998c1264,722 1883,1695 1883,2717 0,1229 -903,2532 -2654,3537l-34307 19812c-1754,1016 -4002,1534 -6141,1534l0 -4z"/>
   <path class="fil9" d="M1039463 1273115c-1768,0 -3456,-361 -4712,-1085l-34627 -19995c-1264,-725 -1873,-1698 -1873,-2714 0,-1236 900,-2528 2658,-3550l34304 -19806c1757,-1005 4002,-1526 6134,-1526 1768,0 3452,357 4716,1078l34622 19991c1257,729 1877,1702 1877,2721 0,1232 -903,2535 -2657,3543l-34308 19806c-1754,1012 -4002,1537 -6134,1537l0 0z"/>
   <path class="fil9" d="M1092936 1303984c-1768,0 -3459,-357 -4716,-1085l-34623 -19991c-1260,-722 -1880,-1695 -1880,-2721 0,-1229 903,-2528 2657,-3543l34312 -19806c1754,-1012 3998,-1533 6137,-1533 1761,0 3442,357 4709,1089l34623 19988c1257,724 1876,1698 1876,2720 0,1229 -896,2528 -2650,3543l-34311 19806c-1754,1015 -4005,1533 -6134,1533l0 0z"/>
   <path class="fil9" d="M1146395 1334858c-1761,0 -3442,-354 -4706,-1086l-34626 -19988c-1257,-732 -1873,-1705 -1873,-2720 7,-1236 903,-2535 2661,-3543l34307 -19806c1755,-1016 4006,-1534 6141,-1534 1762,0 3446,357 4702,1079l34623 19998c1264,725 1880,1698 1880,2720 0,1229 -899,2528 -2654,3544l-34304 19802c-1761,1012 -4012,1534 -6151,1534l0 0z"/>
   <path class="fil9" d="M1199875 1365727c-1768,0 -3452,-354 -4709,-1082l-34623 -19991c-1264,-729 -1880,-1702 -1877,-2721 0,-1232 904,-2528 2658,-3546l34304 -19803c1754,-1015 4005,-1533 6134,-1533 1771,0 3452,353 4709,1085l34626 19988c1264,732 1880,1698 1880,2720 0,1229 -900,2528 -2654,3544l-34307 19806c-1754,1015 -4002,1533 -6141,1533z"/>
   <path class="fil9" d="M1253344 1396604c-1761,0 -3449,-358 -4709,-1089l-34623 -19988c-1257,-725 -1873,-1695 -1873,-2721 0,-1229 900,-2527 2654,-3543l34304 -19806c1761,-1012 4005,-1533 6138,-1533 1768,0 3448,357 4712,1089l34626 19988c1257,724 1874,1698 1874,2720 0,1225 -897,2528 -2654,3543l-34304 19806c-1755,1005 -4006,1534 -6145,1534z"/>
   <path class="fil9" d="M1306824 1427470c-1768,0 -3452,-358 -4720,-1079l-34622 -19991c-1257,-728 -1873,-1702 -1873,-2721 0,-1232 899,-2531 2660,-3539l34305 -19806c1757,-1023 3998,-1544 6137,-1544 1761,0 3452,357 4709,1089l34626 19995c1254,724 1873,1698 1873,2713 4,1229 -896,2528 -2650,3543l-34304 19806c-1761,1015 -4012,1534 -6141,1534l0 0z"/>
   <path class="fil9" d="M1360293 1458343c-1768,0 -3452,-354 -4709,-1079l-34633 -19995c-1253,-724 -1873,-1698 -1873,-2720 7,-1229 907,-2528 2664,-3543l34301 -19806c1757,-1016 4009,-1534 6137,-1534 1761,0 3453,357 4709,1089l34623 19988c1264,725 1884,1698 1884,2721 0,1228 -904,2527 -2658,3543l-34307 19802c-1758,1019 -4009,1534 -6141,1534l3 0z"/>
   <path class="fil9" d="M957831 1165879c-1765,0 -3449,-357 -4709,-1082l-34623 -19988c-1264,-732 -1880,-1702 -1880,-2728 0,-1225 899,-2527 2654,-3536l34311 -19809c1761,-1019 4005,-1534 6137,-1534 1768,0 3449,354 4706,1079l34626 19995c1264,724 1884,1705 1884,2720 0,1229 -904,2528 -2658,3543l-34311 19813c-1754,1005 -4009,1527 -6137,1527l0 0z"/>
   <path class="fil9" d="M903566 1134547c-1768,0 -3452,-354 -4716,-1085l-34622 -19988c-1257,-732 -1873,-1705 -1873,-2721 0,-1229 892,-2528 2653,-3543l34312 -19806c1754,-1012 4005,-1533 6134,-1533 1761,0 3452,357 4709,1078l34626 19998c1257,725 1873,1699 1873,2721 0,1229 -896,2528 -2654,3536l-34315 19806c-1754,1022 -3994,1540 -6127,1540l0 -3z"/>
   <path class="fil9" d="M849208 1103163c-1768,0 -3456,-357 -4713,-1086l-74574 -43050c-1264,-728 -1877,-1701 -1877,-2727 0,-1225 900,-2524 2651,-3533l34311 -19813c1761,-1015 4005,-1533 6141,-1533 1761,0 3445,357 4709,1078l74574 43064c1257,722 1873,1702 1873,2717 0,1229 -892,2528 -2654,3543l-34314 19813c-1754,1009 -3999,1527 -6127,1527l0 0z"/>
   <path class="fil9" d="M887199 1064993c-1761,0 -3452,-353 -4709,-1078l-60521 -34945c-1257,-725 -1873,-1705 -1873,-2720 0,-1226 900,-2525 2654,-3543l34304 -19810c1754,-1008 4005,-1526 6137,-1526 1761,0 3449,353 4713,1085l60514 34938c1263,721 1883,1694 1883,2717 0,1229 -903,2531 -2657,3543l-34301 19813c-1764,1008 -4012,1526 -6144,1526l0 0z"/>
   <path class="fil9" d="M1011300 1196752c-1765,0 -3449,-354 -4706,-1079l-34622 -19998c-1261,-721 -1877,-1695 -1877,-2717 0,-1229 896,-2528 2647,-3536l34315 -19820c1761,-1008 4012,-1527 6141,-1527 1761,0 3445,354 4709,1082l34626 19985c1253,735 1873,1708 1873,2727 0,1232 -896,2528 -2657,3540l-34312 19809c-1754,1019 -4005,1534 -6137,1534l0 0z"/>
   <path class="fil9" d="M1064780 1227628c-1761,0 -3452,-364 -4716,-1092l-34626 -19981c-1254,-735 -1874,-1709 -1874,-2721 0,-1235 893,-2527 2654,-3546l34315 -19810c1754,-1018 4005,-1533 6134,-1533 1768,0 3452,353 4709,1085l34623 19988c1257,732 1876,1705 1876,2721 7,1236 -892,2527 -2650,3543l-34311 19813c-1761,1008 -4006,1533 -6134,1533z"/>
   <path class="fil9" d="M1118256 1258494c-1768,0 -3455,-353 -4719,-1085l-34620 -19981c-1264,-735 -1880,-1705 -1880,-2728 0,-1228 900,-2527 2654,-3536l34311 -19813c1754,-1015 4006,-1533 6138,-1533 1768,0 3448,357 4705,1078l34627 19999c1263,724 1880,1701 1880,2717 0,1229 -900,2527 -2658,3543l-34311 19813c-1754,1008 -3998,1526 -6127,1526l0 0z"/>
   <path class="fil9" d="M1171729 1289371c-1772,0 -3463,-364 -4719,-1089l-34623 -19988c-1264,-721 -1880,-1702 -1880,-2717 0,-1232 899,-2528 2654,-3543l34311 -19813c1761,-1008 4005,-1527 6144,-1527 1761,0 3442,354 4706,1079l34626 19988c1257,735 1877,1705 1877,2727 0,1229 -904,2528 -2658,3536l-34311 19813c-1754,1016 -3998,1534 -6127,1534z"/>
   <path class="fil9" d="M1225195 1320237c-1765,0 -3449,-354 -4713,-1082l-34626 -19992c-1257,-724 -1873,-1698 -1873,-2720 0,-1225 896,-2528 2654,-3543l34308 -19803c1761,-1018 4012,-1533 6141,-1533 1761,0 3452,354 4709,1085l34622 19988c1257,732 1873,1705 1873,2721 0,1236 -892,2528 -2653,3543l-34312 19802c-1754,1019 -3998,1534 -6130,1534l0 0z"/>
   <path class="fil9" d="M1278668 1351113c-1768,0 -3452,-353 -4716,-1085l-34627 -19988c-1253,-735 -1873,-1709 -1873,-2720 0,-1229 893,-2528 2654,-3547l34315 -19803c1754,-1015 4005,-1533 6134,-1533 1768,0 3452,357 4705,1078l34627 19999c1264,721 1883,1694 1883,2717 0,1229 -903,2528 -2657,3539l-34311 19806c-1761,1019 -4006,1537 -6138,1537l4 0z"/>
   <path class="fil9" d="M1332137 1381986c-1768,0 -3448,-360 -4709,-1085l-34623 -19995c-1264,-725 -1883,-1698 -1883,-2713 0,-1236 903,-2528 2657,-3547l34311 -19806c1754,-1008 4006,-1530 6138,-1530 1768,0 3448,357 4705,1082l34627 19988c1263,725 1880,1705 1880,2720 0,1236 -900,2535 -2654,3543l-34315 19803c-1754,1019 -4005,1544 -6134,1544l0 -4z"/>
   <path class="fil9" d="M1385606 1412856c-1757,0 -3452,-354 -4705,-1089l-34626 -19988c-1264,-721 -1880,-1695 -1880,-2717 0,-1232 899,-2531 2657,-3547l34308 -19802c1764,-1015 4008,-1537 6144,-1537 1761,0 3445,357 4709,1089l34623 19991c1257,725 1876,1695 1876,2717 0,1229 -896,2528 -2657,3543l-34311 19806c-1754,1016 -4005,1534 -6138,1534l0 0z"/>
   <path class="fil9" d="M1439083 1443732c-1768,0 -3449,-357 -4713,-1088l-34626 -19988c-1257,-732 -1873,-1706 -1873,-2721 0,-1229 893,-2528 2654,-3543l34314 -19806c1755,-1012 4002,-1533 6134,-1533 1762,0 3453,353 4706,1078l34626 19998c1257,725 1873,1698 1873,2721 0,1229 -892,2528 -2646,3536l-34315 19809c-1758,1016 -4002,1537 -6134,1537l0 0z"/>
   <path class="fil9" d="M1534146 1498613c-1768,0 -3452,-354 -4709,-1079l-75555 -43620c-1253,-732 -1873,-1705 -1873,-2721 0,-1236 893,-2528 2654,-3543l34311 -19809c1747,-1019 3998,-1534 6138,-1534 1761,0 3452,350 4705,1086l75548 43613c1260,732 1876,1702 1876,2717 0,1240 -896,2528 -2657,3547l-34304 19809c-1754,1019 -4006,1534 -6134,1534l0 0z"/>
   <path class="fil9" d="M1638252 1438512c-1768,0 -3449,-364 -4712,-1089l-63770 -36814c-1264,-725 -1880,-1698 -1873,-2721 0,-1232 899,-2527 2654,-3546l34307 -19803c1754,-1015 4002,-1533 6141,-1533 1761,0 3445,357 4699,1085l63776 36811c1254,732 1874,1705 1874,2721 0,1235 -904,2538 -2665,3543l-34304 19806c-1754,1015 -3995,1540 -6127,1540z"/>
   <path class="fil9" d="M1104955 1190709c-1764,0 -3455,-354 -4723,-1089l-34622 -19981c-1257,-728 -1874,-1702 -1874,-2724 0,-1229 900,-2524 2658,-3536l34300 -19813c1758,-1015 4006,-1534 6145,-1534 1761,0 3445,354 4698,1082l34634 19995c1264,725 1876,1702 1876,2721 0,1225 -903,2527 -2657,3539l-34304 19813c-1754,1009 -3998,1527 -6127,1527l-4 0z"/>
   <path class="fil9" d="M1050142 1159065c-1765,0 -3449,-353 -4706,-1078l-34623 -19988c-1264,-732 -1883,-1701 -1883,-2727 0,-1226 903,-2528 2657,-3536l34304 -19806c1761,-1012 4005,-1537 6145,-1537 1757,0 3448,360 4712,1085l34616 19995c1267,725 1884,1698 1884,2713 -7,1236 -904,2528 -2658,3550l-34311 19806c-1754,1009 -4005,1527 -6134,1527l-3 -4z"/>
   <path class="fil9" d="M995338 1127433c-1761,0 -3452,-354 -4705,-1089l-34627 -19985c-1256,-735 -1876,-1708 -1880,-2720 0,-1232 904,-2528 2654,-3547l34311 -19802c1761,-1015 4006,-1534 6145,-1534 1761,0 3445,354 4709,1079l34623 19995c1257,724 1873,1698 1873,2720 0,1229 -893,2528 -2654,3536l-34315 19813c-1754,1015 -3995,1534 -6134,1534l0 0z"/>
   <path class="fil9" d="M940549 1095789c-1768,0 -3463,-353 -4723,-1085l-34623 -19981c-1257,-732 -1876,-1705 -1876,-2727 0,-1229 903,-2528 2653,-3537l34312 -19809c1757,-1019 3998,-1537 6137,-1537 1761,0 3452,357 4709,1082l34623 19995c1257,725 1876,1698 1876,2720 0,1226 -892,2525 -2650,3543l-34311 19810c-1754,1012 -3998,1526 -6127,1526z"/>
   <path class="fil9" d="M1158425 1221585c-1765,0 -3456,-353 -4713,-1085l-34626 -19988c-1264,-728 -1880,-1702 -1880,-2724 0,-1225 903,-2524 2654,-3533l34304 -19813c1761,-1015 4012,-1533 6144,-1533 1768,0 3452,354 4706,1078l34633 19988c1254,732 1873,1705 1873,2728 -3,1229 -907,2527 -2664,3536l-34301 19809c-1754,1016 -3998,1537 -6130,1537l0 0z"/>
   <path class="fil9" d="M1211894 1252458c-1764,0 -3449,-360 -4712,-1092l-34623 -19985c-1261,-728 -1877,-1701 -1877,-2716 -7,-1236 896,-2535 2647,-3554l34315 -19803c1754,-1008 4005,-1533 6134,-1533 1761,0 3445,357 4709,1085l34629 19992c1257,728 1877,1701 1877,2717 0,1236 -903,2527 -2664,3543l-34304 19813c-1751,1008 -3995,1533 -6127,1533l-4 0z"/>
   <path class="fil9" d="M1265367 1283328c-1768,0 -3452,-354 -4716,-1089l-34623 -19988c-1257,-732 -1876,-1698 -1876,-2720 0,-1229 896,-2525 2657,-3544l34304 -19802c1754,-1015 4005,-1537 6134,-1537 1772,0 3452,357 4709,1082l34633 19998c1264,722 1873,1695 1873,2717 0,1229 -899,2528 -2653,3543l-34305 19806c-1761,1016 -4005,1534 -6137,1534l0 0z"/>
   <path class="fil9" d="M1318836 1314204c-1768,0 -3452,-364 -4709,-1089l-34622 -19995c-1264,-724 -1881,-1698 -1881,-2713 0,-1229 904,-2528 2654,-3550l34308 -19806c1751,-1008 4002,-1527 6134,-1527 1768,0 3452,354 4709,1079l34633 19991c1261,729 1877,1702 1873,2721 0,1232 -903,2531 -2657,3539l-34304 19806c-1754,1016 -4005,1544 -6134,1544l-4 0z"/>
   <path class="fil9" d="M1372306 1345070c-1761,0 -3449,-353 -4706,-1085l-34623 -19988c-1264,-725 -1883,-1702 -1883,-2724 0,-1225 903,-2524 2657,-3543l34304 -19802c1761,-1016 4002,-1534 6134,-1534 1768,0 3452,354 4716,1085l34630 19988c1260,725 1870,1698 1870,2721 0,1229 -897,2528 -2658,3543l-34304 19806c-1754,1015 -4005,1533 -6137,1533z"/>
   <path class="fil9" d="M1425779 1375947c-1765,0 -3446,-357 -4709,-1089l-34623 -19988c-1261,-732 -1877,-1698 -1877,-2720 0,-1229 896,-2528 2647,-3544l34315 -19802c1754,-1019 4005,-1537 6134,-1537 1761,0 3452,357 4705,1078l34633 19999c1257,725 1877,1698 1877,2720 -7,1226 -903,2525 -2664,3536l-34304 19813c-1755,1012 -3999,1534 -6134,1534z"/>
   <path class="fil9" d="M1479255 1406823c-1768,0 -3452,-364 -4716,-1088l-34623 -19995c-1257,-725 -1873,-1699 -1873,-2721 0,-1232 900,-2528 2654,-3536l34304 -19813c1754,-1008 4002,-1526 6138,-1526 1764,0 3448,353 4705,1078l34633 19991c1257,729 1873,1702 1873,2717 0,1236 -899,2535 -2653,3543l-34308 19806c-1754,1016 -4005,1544 -6134,1544z"/>
   <path class="fil9" d="M1532717 1437689c-1757,0 -3445,-357 -4698,-1088l-34623 -19988c-1267,-725 -1884,-1698 -1884,-2721 0,-1225 900,-2528 2654,-3543l34304 -19802c1754,-1019 4006,-1534 6138,-1534 1764,0 3449,350 4712,1085l34634 19988c1250,725 1866,1699 1866,2721 0,1229 -904,2528 -2654,3543l-34304 19802c-1761,1019 -4013,1537 -6145,1537l0 0z"/>
   <path class="fil9" d="M1586194 1468555c-1761,0 -3449,-353 -4706,-1078l-34626 -19991c-1257,-729 -1880,-1702 -1880,-2717 0,-1236 903,-2535 2654,-3543l34307 -19806c1761,-1016 4006,-1541 6134,-1541 1768,0 3452,361 4716,1085l34630 19995c1257,729 1866,1699 1866,2714 0,1236 -893,2528 -2654,3554l-34304 19802c-1754,1008 -4005,1526 -6137,1526l0 0z"/>
   <path class="fil9" d="M1076785 1114352c-1757,0 -3448,-364 -4705,-1085l-34627 -19988c-1263,-725 -1880,-1705 -1873,-2724 0,-1232 904,-2524 2658,-3539l34304 -19806c1754,-1016 4002,-1541 6134,-1541 1768,0 3452,364 4709,1085l34623 19999c1264,721 1883,1698 1883,2720 0,1226 -903,2525 -2657,3543l-34304 19803c-1754,1008 -4006,1533 -6145,1533l0 0z"/>
   <path class="fil9" d="M1023585 1083633c-1768,0 -3448,-353 -4712,-1085l-34619 -19991c-1264,-729 -1880,-1702 -1880,-2717 0,-1236 899,-2535 2653,-3543l34305 -19806c1757,-1016 4008,-1534 6144,-1534 1761,0 3442,354 4699,1078l34633 19995c1264,725 1880,1699 1873,2724 0,1226 -900,2525 -2654,3543l-34308 19803c-1750,1015 -4001,1533 -6134,1533z"/>
   <path class="fil9" d="M970379 1052914c-1768,0 -3452,-353 -4716,-1085l-34623 -19995c-1257,-725 -1877,-1698 -1877,-2713 0,-1229 897,-2528 2658,-3543l34311 -19806c1754,-1016 4005,-1534 6134,-1534 1768,0 3452,354 4709,1078l34623 19992c1260,728 1876,1702 1883,2720 0,1233 -903,2532 -2657,3540l-34311 19806c-1761,1022 -4006,1544 -6134,1544l0 -4z"/>
   <path class="fil9" d="M917179 1022199c-1768,0 -3459,-364 -4716,-1089l-34633 -19991c-1254,-722 -1874,-1702 -1874,-2717 0,-1229 900,-2532 2654,-3543l34315 -19813c1754,-1009 4005,-1527 6134,-1527 1761,0 3452,354 4709,1079l34626 19991c1254,728 1873,1702 1873,2724 0,1229 -892,2528 -2653,3536l-34308 19813c-1751,1015 -3995,1533 -6127,1533l0 4z"/>
   <path class="fil9" d="M971884 990605c-1768,0 -3448,-357 -4716,-1082l-34623 -19995c-1257,-725 -1876,-1698 -1876,-2717 0,-1229 903,-2528 2657,-3543l11340 -6551c1761,-1005 4006,-1526 6138,-1526 1768,0 3448,357 4712,1082l34627 19988c1256,731 1873,1701 1873,2727 0,1225 -893,2528 -2658,3536l-11336 6544c-1758,1019 -4006,1537 -6138,1537l0 0z"/>
   <path class="fil9" d="M1041315 1030696c-1764,0 -3448,-353 -4705,-1085l-34627 -19988c-1263,-735 -1880,-1709 -1880,-2720 0,-1229 900,-2528 2654,-3547l11351 -6544c1754,-1015 4002,-1533 6134,-1533 1761,0 3448,353 4709,1078l34623 19995c1257,725 1873,1705 1873,2720 0,1229 -893,2528 -2647,3544l-11347 6547c-1754,1015 -4002,1533 -6138,1533z"/>
   <path class="fil9" d="M1094305 1061289c-1768,0 -3452,-357 -4706,-1082l-34633 -19995c-1257,-731 -1876,-1705 -1876,-2720 0,-1229 903,-2528 2657,-3543l11337 -6554c1757,-1009 4001,-1527 6130,-1527 1768,0 3459,357 4723,1086l34623 19981c1260,735 1876,1708 1876,2727 0,1229 -899,2528 -2664,3540l-11333 6554c-1754,1012 -4002,1533 -6134,1533l0 0z"/>
   <path class="fil9" d="M1147284 1091879c-1768,0 -3449,-361 -4712,-1086l-34627 -19991c-1257,-725 -1873,-1695 -1873,-2717 7,-1236 907,-2528 2661,-3547l11333 -6543c1761,-1016 4006,-1537 6134,-1537 1772,0 3452,357 4716,1088l34627 19992c1256,721 1873,1694 1873,2717 0,1229 -897,2528 -2658,3543l-11333 6547c-1761,1008 -4012,1534 -6141,1534l0 0z"/>
   <path class="fil9" d="M1200270 1122468c-1764,0 -3448,-361 -4712,-1085l-34623 -19999c-1260,-725 -1880,-1694 -1880,-2710 0,-1229 900,-2528 2661,-3546l11336 -6544c1762,-1015 4013,-1533 6141,-1533 1762,0 3446,353 4709,1078l34623 19995c1261,725 1880,1698 1880,2720 0,1229 -896,2528 -2661,3536l-11336 6548c-1761,1022 -4006,1540 -6138,1540l0 0z"/>
   <path class="fil9" d="M1496078 1293247c-1768,0 -3452,-354 -4709,-1079l-34623 -19995c-1264,-725 -1884,-1698 -1884,-2720 0,-1229 904,-2528 2658,-3543l11337 -6540c1757,-1016 4008,-1534 6137,-1534 1768,0 3452,354 4709,1078l34630 19988c1257,736 1876,1705 1876,2721 0,1236 -903,2535 -2653,3543l-11344 6547c-1754,1015 -4005,1534 -6134,1534l0 0z"/>
   <path class="fil9" d="M1549064 1323839c-1768,0 -3459,-357 -4723,-1088l-34616 -19981c-1264,-732 -1880,-1705 -1880,-2728 4,-1225 907,-2524 2661,-3543l11340 -6547c1754,-1015 3999,-1534 6134,-1534 1761,0 3445,358 4709,1086l34623 19991c1257,732 1877,1705 1877,2717 0,1236 -897,2528 -2658,3543l-11333 6558c-1754,1005 -4005,1526 -6137,1526l3 0z"/>
   <path class="fil9" d="M1602043 1354429c-1764,0 -3448,-354 -4712,-1078l-34626 -19995c-1257,-729 -1877,-1699 -1877,-2721 0,-1229 903,-2528 2657,-3536l11340 -6547c1762,-1015 4006,-1544 6134,-1544 1769,0 3456,364 4720,1089l34623 19995c1253,724 1873,1698 1873,2713 0,1229 -893,2528 -2654,3550l-11340 6540c-1761,1016 -4006,1534 -6138,1534l0 0z"/>
   <path class="fil9" d="M1655026 1385018c-1761,0 -3445,-353 -4709,-1082l-34623 -19991c-1260,-725 -1876,-1695 -1876,-2720 0,-1229 896,-2528 2657,-3544l11333 -6547c1761,-1008 4012,-1526 6141,-1526 1768,0 3452,357 4709,1082l34630 19988c1260,724 1877,1705 1877,2717 0,1235 -900,2527 -2661,3546l-11337 6547c-1758,1016 -4012,1534 -6141,1534l0 -4z"/>
   <path class="fil9" d="M1130265 1145218c-1768,0 -3459,-350 -4716,-1078l-34626 -19995c-1254,-725 -1873,-1694 -1873,-2717 0,-1232 899,-2528 2654,-3539l34307 -19803c1761,-1026 4005,-1544 6134,-1544 1768,0 3449,357 4713,1089l34626 19988c1257,732 1877,1705 1877,2720 0,1229 -893,2528 -2658,3543l-34304 19803c-1751,1019 -4005,1533 -6134,1533z"/>
   <path class="fil9" d="M1183734 1176095c-1768,0 -3448,-354 -4712,-1085l-34626 -19988c-1257,-736 -1877,-1705 -1877,-2721 0,-1236 903,-2528 2664,-3543l34305 -19813c1754,-1008 3998,-1526 6127,-1526 1771,0 3452,357 4716,1085l34626 19984c1253,729 1873,1702 1873,2728 0,1225 -893,2528 -2647,3540l-34308 19805c-1761,1016 -4012,1534 -6141,1534l0 0z"/>
   <path class="fil9" d="M1237204 1206964c-1768,0 -3452,-357 -4706,-1078l-34633 -19991c-1257,-729 -1877,-1702 -1877,-2724 11,-1233 911,-2528 2665,-3540l34304 -19813c1754,-1012 3998,-1533 6130,-1533 1768,0 3456,364 4713,1089l34626 19988c1264,731 1880,1705 1880,2720 0,1236 -903,2528 -2654,3543l-34304 19813c-1764,1008 -4009,1526 -6144,1526l0 0z"/>
   <path class="fil9" d="M1290673 1237838c-1761,0 -3448,-354 -4705,-1079l-34627 -19995c-1264,-725 -1873,-1698 -1873,-2720 0,-1229 900,-2528 2654,-3536l34304 -19813c1754,-1016 4006,-1534 6138,-1534 1761,0 3452,357 4709,1089l34630 19988c1253,725 1873,1698 1873,2720 0,1226 -900,2528 -2654,3537l-34304 19809c-1754,1019 -4006,1534 -6145,1534l0 0z"/>
   <path class="fil9" d="M1344153 1268714c-1768,0 -3459,-354 -4716,-1078l-34626 -19999c-1257,-732 -1873,-1705 -1873,-2720 0,-1229 899,-2528 2654,-3543l34314 -19813c1754,-1009 4002,-1523 6134,-1523 1761,0 3445,353 4709,1078l34623 19988c1257,732 1873,1705 1873,2727 0,1229 -893,2521 -2654,3537l-34304 19809c-1754,1019 -4005,1537 -6137,1537l3 0z"/>
   <path class="fil9" d="M1397622 1299580c-1768,0 -3452,-354 -4716,-1078l-34622 -19988c-1257,-732 -1877,-1705 -1877,-2728 0,-1229 903,-2520 2664,-3536l34305 -19813c1754,-1012 4005,-1533 6137,-1533 1765,0 3449,357 4706,1078l34626 19999c1257,721 1873,1701 1880,2720 0,1225 -900,2528 -2654,3543l-34308 19813c-1761,1005 -4012,1527 -6141,1527l0 -4z"/>
   <path class="fil9" d="M1451099 1330457c-1765,0 -3459,-354 -4713,-1086l-34626 -19991c-1264,-721 -1884,-1695 -1877,-2721 0,-1225 904,-2527 2658,-3536l34304 -19809c1754,-1016 4005,-1534 6137,-1534 1765,0 3449,354 4706,1079l34623 19988c1264,731 1883,1708 1883,2727 0,1229 -903,2528 -2657,3536l-34304 19813c-1751,1015 -4002,1534 -6134,1534l0 0z"/>
   <path class="fil9" d="M1504568 1361330c-1768,0 -3455,-361 -4712,-1093l-34627 -19981c-1264,-731 -1873,-1705 -1873,-2720 0,-1236 900,-2528 2658,-3543l34300 -19813c1761,-1009 4009,-1534 6145,-1534 1761,0 3445,361 4709,1089l34623 19988c1256,732 1873,1705 1873,2724 0,1232 -893,2524 -2654,3536l-34308 19813c-1750,1015 -3995,1534 -6134,1534l0 0z"/>
   <path class="fil9" d="M1558048 1392199c-1768,0 -3459,-353 -4723,-1089l-34623 -19977c-1257,-732 -1876,-1709 -1876,-2728 0,-1228 899,-2520 2657,-3536l34304 -19813c1761,-1015 4012,-1533 6141,-1533 1761,0 3452,353 4709,1078l34623 19995c1260,725 1876,1705 1876,2721 0,1228 -896,2527 -2657,3543l-34304 19813c-1754,1008 -3998,1526 -6127,1526l0 0z"/>
   <path class="fil9" d="M824560 1149035c-1768,0 -3456,-354 -4720,-1089l-101970 -58872c-1264,-725 -1884,-1698 -1884,-2720 0,-1226 903,-2528 2654,-3543l34315 -19803c1761,-1019 4005,-1533 6141,-1533 1761,0 3445,350 4709,1082l101970 58875c1254,724 1873,1698 1873,2720 11,1229 -893,2528 -2647,3543l-34304 19813c-1761,1008 -4005,1527 -6137,1527l0 0z"/>
   <path class="fil9" d="M1481471 1528302c-1761,0 -3452,-357 -4705,-1078l-101982 -58882c-1263,-725 -1880,-1698 -1880,-2710 7,-1236 911,-2538 2661,-3550l34304 -19806c1754,-1008 4006,-1534 6138,-1534 1768,0 3448,361 4709,1086l101985 58871c1253,729 1873,1709 1873,2724 -7,1226 -904,2525 -2665,3543l-34304 19810c-1754,1008 -4005,1526 -6134,1526z"/>
   <path class="fil9" d="M1267625 1473037c-1761,0 -3445,-354 -4702,-1078l-34630 -19992c-1264,-732 -1883,-1702 -1873,-2724 0,-1229 900,-2528 2654,-3539l40865 -23602c1755,-1011 4006,-1526 6141,-1526 1761,0 3446,353 4702,1078l34630 19988c1264,732 1884,1705 1877,2721 0,1235 -900,2534 -2658,3543l-40865 23597c-1754,1016 -4005,1534 -6141,1534z"/>
   <path class="fil9" d="M879314 1248845c-1768,0 -3449,-364 -4712,-1085l-55374 -31973c-1257,-721 -1874,-1701 -1874,-2717 0,-1235 893,-2527 2654,-3543l40866 -23597c1761,-1016 4012,-1534 6141,-1534 1761,0 3455,354 4709,1079l55374 31975c1256,725 1876,1698 1876,2721 0,1229 -896,2528 -2657,3543l-40872 23598c-1755,1015 -3999,1533 -6131,1533l0 0z"/>
   <path class="fil9" d="M1216106 1443291c-1758,0 -3449,-353 -4706,-1082l-55381 -31965c-1263,-732 -1876,-1705 -1876,-2727 0,-1229 903,-2528 2657,-3537l40865 -23604c1765,-1009 4013,-1527 6145,-1527 1768,0 3449,354 4705,1079l55374 31969c1264,731 1884,1705 1884,2720 0,1236 -903,2535 -2657,3550l-40873 23591c-1754,1015 -4005,1533 -6137,1533z"/>
   <path class="fil9" d="M951980 1292431c-77,-42 -154,-88 -234,-126l-55367 -31976c-1264,-725 -1880,-1698 -1880,-2724 0,-1225 903,-2524 2653,-3540l40876 -23597c1751,-1009 3995,-1527 6127,-1527 1768,0 3459,354 4716,1089l375 210 -52496 30299 55230 31892z"/>
   <path class="fil10" d="M1004406 1262086l-46873 -27060 46716 26969c52,32 108,60 157,91l0 0z"/>
   <path class="fil9" d="M1142918 1400840c-1953,0 -3911,-431 -5413,-1292l-185525 -107117 -55230 -31892 52496 -30299 55160 31846 185599 107156c1498,858 2244,1989 2244,3127 0,1127 -746,2258 -2244,3116l-41678 24063c-1488,861 -3448,1292 -5409,1292l0 0z"/>
   <path class="fil9" d="M1428548 1566237c-1450,0 -2836,-290 -3865,-889l-38572 -22267c-1030,-596 -1534,-1390 -1534,-2231 0,-1001 739,-2065 2181,-2899l16715 -9656c1442,-829 3287,-1257 5034,-1257 1450,0 2826,291 3866,890l38558 22267c1036,595 1540,1390 1540,2230 0,1009 -742,2073 -2181,2906l-16714 9649c-1443,830 -3281,1257 -5028,1257z"/>
   <path class="fil9" d="M1374630 1535112c-1449,0 -2828,-291 -3865,-893l-38565 -22263c-1026,-596 -1533,-1397 -1540,-2231 0,-1005 738,-2072 2181,-2902l16721 -9649c1436,-834 3281,-1257 5028,-1257 1442,0 2825,290 3862,889l38561 22267c1037,589 1541,1390 1541,2220 0,1012 -736,2076 -2175,2906l-16721 9660c-1435,829 -3280,1253 -5028,1253z"/>
   <path class="fil9" d="M1321158 1504239c-1446,0 -2833,-291 -3862,-889l-38565 -22267c-1030,-596 -1544,-1390 -1544,-2231 0,-1012 742,-2076 2181,-2902l16725 -9653c1432,-830 3273,-1257 5017,-1257 1450,0 2836,294 3872,890l38558 22267c1037,595 1541,1390 1541,2230 0,1008 -735,2073 -2178,2906l-16718 9649c-1442,833 -3280,1257 -5027,1257l0 0z"/>
   <path class="fil9" d="M1404163 1518065c-1446,0 -2836,-291 -3862,-889l-38569 -22275c-1036,-591 -1537,-1393 -1537,-2223 0,-1008 735,-2072 2178,-2906l16718 -9656c1432,-830 3280,-1257 5028,-1257 1445,0 2825,298 3861,893l38572 22264c1030,595 1534,1397 1534,2230 0,1008 -739,2073 -2174,2906l-16722 9649c-1442,837 -3280,1264 -5027,1264z"/>
   <path class="fil9" d="M1967937 1421259c-4601,0 -9387,-1275 -14047,-3957l-1159 -675 -1020399 -589123c-788,-455 -1562,-945 -2314,-1463 -14537,-10034 -21851,-31328 -16410,-49013l231026 -750080c3126,-10167 9820,-17043 17877,-19669 2408,-781 4936,-1187 7516,-1187 4604,0 9387,1281 14047,3963l1021558 589791c16064,9282 24449,31882 18728,50480l-231026 750083c-3015,9821 -9366,16557 -17047,19379 -2658,973 -5469,1471 -8354,1471l4 0zm-1034173 -639343c-4,14698 7545,29581 19645,36569l990853 572541c4460,2581 9040,3795 13434,3795 10773,0 20422,-7317 24315,-19956l220866 -717068c1166,-3792 1719,-7755 1719,-11729l0 0c0,-14708 -7541,-29591 -19638,-36569l-990857 -572552c-4450,-2573 -9040,-3791 -13434,-3791 -10780,0 -20429,7314 -24315,19953l-220866 717075c-1166,3791 -1722,7755 -1722,11732l0 0 0 0z"/>
   <path class="fil5" d="M1957696 1394821c-4394,0 -8974,-1214 -13434,-3795l-990853 -572541c-12100,-6988 -19649,-21871 -19645,-36569 0,-3977 556,-7941 1722,-11732l220866 -717075c3886,-12639 13535,-19953 24315,-19953 4394,0 8984,1218 13434,3791l990854 572552c12100,6974 19641,21861 19641,36569 0,3974 -553,7937 -1719,11729l-220869 717068c-3890,12639 -13539,19956 -24312,19956l0 0zm-841534 -623317c21,10062 5196,20240 13476,25019l670759 387257c3060,1761 6204,2598 9222,2598 7394,0 14011,-5010 16683,-13690l9974 -32403 54751 31609c3053,1768 6197,2597 9215,2597 7391,0 14015,-5013 16680,-13682l151690 -492508c3757,-12216 -1747,-27050 -12293,-33142l-670755 -387264c-3056,-1769 -6200,-2602 -9218,-2602 -7391,0 -14019,5014 -16679,13693l-9986 32400 -54747 -31605c-3053,-1768 -6197,-2598 -9218,-2598 -7391,0 -14015,5014 -16680,13682l-151690 492516c-809,2619 -1194,5367 -1184,8123l0 0z"/>
   <path class="fil3" d="M1900242 1174491c-3018,0 -6162,-829 -9215,-2597l-54751 -31609 141712 -460098c806,-2622 1187,-5367 1180,-8123 -21,-10062 -5188,-20236 -13476,-25015l-616011 -355663 9989 -32400c2661,-8679 9289,-13693 16676,-13693 3021,0 6165,833 9218,2602l670759 387264c10542,6092 16046,20926 12292,33142l-151693 492508c-2661,8669 -9285,13682 -16676,13682l-4 0z"/>
   <path class="fil11" d="M1809619 1186378c-3018,0 -6162,-837 -9222,-2598l-670759 -387261c-8280,-4775 -13455,-14953 -13476,-25015 -10,-2756 375,-5504 1187,-8123l151687 -492516c2665,-8668 9289,-13682 16683,-13682 3018,0 6162,830 9215,2598l670758 387264c8284,4779 13455,14953 13476,25019 7,2756 -374,5501 -1180,8123l-141712 460095 -9974 32406c-2672,8676 -9289,13690 -16683,13690z"/>
   <path class="fil8" d="M1965692 647049l-670761 -387268c-6607,-3813 -13623,-3288 -18872,644 3169,-91 6464,627 9695,2479l670748 387261c10545,6092 16049,20933 12299,33138l-151690 492508c-1407,4559 -3900,8102 -7030,10455 7195,-221 13605,-5094 16221,-13578l151686 -492501c3757,-12216 -1747,-27057 -12296,-33138z"/>
   <path class="fil1" d="M954413 1585963c-9236,0 -18083,-1926 -24851,-5830l0 7 -268736 -155149c-7122,-4118 -11039,-9989 -11039,-16561 -7,-7618 5402,-15100 14816,-20541l138330 -79871c9180,-5290 20685,-7997 31647,-7997 9240,0 18094,1915 24855,5816l268733 155156c7125,4110 11046,9992 11053,16560 0,7612 -5406,15101 -14820,20542l-138341 79871c-9176,5290 -20681,7993 -31643,7993l-4 4zm-119703 -278092c-9716,0 -20034,2342 -27894,6872l-138326 79865c-6957,4019 -10948,9057 -10948,13822 0,4709 3896,7948 7170,9828l268737 155163c5465,3148 12957,4689 20845,4689 9723,0 20034,-2329 27880,-6873l138340 -79865c6954,-4012 10945,-9047 10945,-13819 0,-4709 -3900,-7947 -7174,-9834l-268737 -155150c-5451,-3158 -12954,-4698 -20842,-4698l4 0z"/>
   <path class="fil8" d="M1458308 518172l-41468 -23937c-3851,-2231 -5910,-7573 -4604,-11932 1299,-4359 5476,-6106 9324,-3883l41460 23944c3851,2223 5910,7556 4618,11932 -1309,4359 -5483,6092 -9330,3876z"/>
   <path class="fil8" d="M1557089 575198l-61148 -35305c-3847,-2213 -5906,-7556 -4607,-11922 1299,-4369 5472,-6102 9323,-3879l61144 35302c3844,2220 5917,7559 4611,11925 -1306,4362 -5483,6096 -9323,3879l0 0z"/>
   <path class="fil8" d="M1374679 702797l-41471 -23948c-3847,-2223 -5906,-7562 -4600,-11921 1292,-4366 5465,-6106 9317,-3883l41470 23945c3848,2223 5914,7555 4608,11921 -1299,4366 -5476,6099 -9324,3886l0 0z"/>
   <path class="fil8" d="M1462733 753630l-61147 -35305c-3845,-2213 -5910,-7556 -4601,-11929 1292,-4359 5465,-6092 9313,-3872l61148 35302c3851,2220 5909,7563 4614,11921 -1306,4366 -5479,6099 -9327,3883l0 0z"/>
   <path class="fil8" d="M1334087 485272l-25901 -14961c-3848,-2223 -5907,-7555 -4608,-11921 1299,-4370 5476,-6110 9324,-3879l25905 14949c3848,2231 5906,7570 4607,11929 -1299,4359 -5475,6099 -9327,3883l0 0z"/>
   <path class="fil8" d="M1412044 569085l-79154 -45693c-3848,-2223 -5914,-7566 -4608,-11925 1299,-4369 5476,-6102 9324,-3886l79147 45704c3847,2212 5913,7555 4607,11928 -1299,4359 -5472,6092 -9316,3872z"/>
   <path class="fil8" d="M1339031 604580l-25902 -14961c-3840,-2212 -5909,-7551 -4604,-11928 1299,-4359 5476,-6099 9317,-3869l25905 14954c3848,2216 5917,7555 4614,11925 -1306,4359 -5479,6099 -9330,3879z"/>
   <path class="fil8" d="M1472284 836775l-69193 -39941c-3848,-2230 -5906,-7569 -4611,-11928 1303,-4363 5476,-6103 9324,-3886l69193 39951c3844,2223 5910,7563 4611,11928 -1310,4359 -5476,6092 -9324,3876z"/>
   <path class="fil8" d="M1310003 665454l-16630 -9611c-3841,-2216 -5907,-7555 -4608,-11914 1306,-4373 5476,-6106 9324,-3886l16630 9600c3848,2223 5913,7566 4607,11925 -1305,4366 -5475,6099 -9323,3886l0 0z"/>
   <path class="fil8" d="M1294269 733996l-20650 -11921c-3851,-2217 -5917,-7556 -4611,-11922 1303,-4369 5476,-6099 9324,-3879l20649 11925c3852,2216 5910,7552 4611,11921 -1299,4359 -5475,6106 -9323,3876z"/>
   <path class="fil8" d="M1374599 780382l-54443 -31429c-3848,-2223 -5913,-7563 -4607,-11932 1299,-4359 5476,-6096 9323,-3876l54443 31437c3844,2213 5910,7555 4611,11914 -1299,4366 -5476,6110 -9324,3886l-3 0z"/>
   <path class="fil8" d="M1302889 777788l-39147 -22593c-3847,-2223 -5917,-7566 -4618,-11925 1310,-4366 5483,-6106 9331,-3882l39139 22603c3851,2223 5917,7555 4611,11921 -1306,4359 -5476,6106 -9316,3876l0 0z"/>
   <path class="fil8" d="M1531639 871209l-25138 -14516c-3848,-2216 -5917,-7555 -4608,-11914 1306,-4373 5473,-6106 9317,-3886l25145 14515c3848,2224 5913,7556 4607,11922 -1298,4369 -5475,6109 -9323,3879z"/>
   <path class="fil8" d="M1435400 660220l-69190 -39952c-3844,-2223 -5910,-7562 -4611,-11928 1306,-4362 5483,-6109 9324,-3879l69193 39941c3847,2223 5906,7566 4607,11932 -1299,4362 -5476,6099 -9323,3886l0 0z"/>
   <path class="fil12" d="M1443603 626133l-120590 -69624c-3848,-2223 -5910,-7562 -4618,-11928 1310,-4359 5486,-6103 9334,-3886l120586 69630c3852,2223 5910,7563 4611,11925 -1302,4359 -5475,6099 -9323,3883l0 0z"/>
   <path class="fil12" d="M1372442 662681l-69193 -39951c-3847,-2213 -5906,-7552 -4607,-11922 1306,-4366 5476,-6099 9323,-3875l69200 39948c3841,2216 5907,7555 4601,11917 -1306,4373 -5476,6106 -9324,3883l0 0z"/>
   <path class="fil12" d="M1487878 690512l-25141 -14516c-3848,-2223 -5914,-7555 -4608,-11928 1299,-4359 5476,-6099 9324,-3869l25138 14512c3847,2213 5906,7556 4611,11914 -1303,4370 -5476,6106 -9324,3887z"/>
   <path class="fil12" d="M1743587 682879l-148872 -85956c-3840,-2216 -5906,-7559 -4600,-11918 1299,-4373 5476,-6109 9316,-3883l148872 85950c3852,2223 5914,7562 4618,11921 -1309,4369 -5486,6099 -9334,3886z"/>
   <path class="fil13" d="M1366669 736982l-83173 -48018c-3848,-2223 -5917,-7562 -4608,-11921 1299,-4370 5473,-6110 9320,-3879l83173 48007c3845,2230 5910,7563 4611,11932 -1299,4359 -5475,6106 -9323,3876l0 3z"/>
   <path class="fil13" d="M1379210 472499l-61147 -35309c-3848,-2216 -5914,-7551 -4608,-11914 1299,-4366 5476,-6106 9324,-3883l61143 35299c3852,2230 5917,7562 4611,11928 -1302,4363 -5475,6103 -9323,3879l0 0z"/>
   <path class="fil12" d="M1290099 809225l-70825 -40886c-3847,-2217 -5906,-7556 -4600,-11925 1292,-4366 5465,-6099 9317,-3883l70817 40890c3848,2226 5913,7562 4608,11925 -1299,4362 -5473,6102 -9317,3879z"/>
   <path class="fil8" d="M1760305 606316l-30316 -17505c-2805,-1628 -4317,-5522 -3372,-8711 960,-3197 4013,-4468 6817,-2836l30313 17495c2815,1621 4320,5528 3371,8714 -948,3190 -4001,4461 -6813,2843z"/>
   <path class="fil8" d="M1818119 639696l-30305 -17505c-2819,-1625 -4324,-5522 -3372,-8718 949,-3190 3998,-4454 6813,-2833l30317 17502c2804,1622 4316,5525 3357,8715 -952,3196 -3995,4460 -6810,2839z"/>
   <path class="fil8" d="M1875937 673073l-30316 -17499c-2801,-1618 -4317,-5521 -3365,-8711 953,-3196 4002,-4460 6814,-2843l30309 17506c2818,1624 4324,5518 3375,8711 -952,3189 -4005,4467 -6820,2836l3 0z"/>
   <path class="fil13" d="M1904352 689503l-906 -549c-2822,-1625 -4328,-5522 -3372,-8711 952,-3190 4002,-4461 6817,-2840l907 554c2818,1617 4316,5517 3375,8707 -956,3186 -4006,4464 -6821,2839l0 0z"/>
   <path class="fil14" d="M457798 814785c14,-7 35,-21 49,-28 -14,14 -28,21 -49,28zm298 -161c38,-25 84,-46 126,-67 -42,21 -88,42 -126,67zm332 -179c56,-35 123,-74 186,-109 -63,35 -130,74 -186,109zm326 -186c116,-63 235,-126 350,-192 -115,66 -227,129 -350,192zm350 -192c119,-63 249,-133 368,-203 -119,70 -249,133 -368,203zm396 -217c108,-67 220,-123 329,-186 -109,63 -221,119 -329,186zm399 -231c98,-49 192,-105 290,-161 -98,56 -192,112 -290,161zm360 -203c102,-49 193,-109 284,-158 -91,49 -182,109 -284,158zm372 -207c91,-59 192,-108 283,-164 -91,56 -192,105 -283,164zm353 -206c123,-67 235,-137 354,-200 3865,-2237 7492,-4552 10888,-6946l0 0c-3396,2394 -7023,4709 -10888,6946 -119,63 -231,133 -354,200zm22348 -15983l0 0c16907,-15262 25359,-32743 25359,-50227l32952 -383638 0 0 -3322 38716 -29630 344922c0,17484 -8452,34965 -25359,50227z"/>
   <path class="fil15" d="M292201 1031428c28066,16186 62895,16186 90960,0l194383 -112225c5241,-3043 5808,-8067 5808,-10087 0,-2020 -567,-7045 -5808,-10077l-194397 -112225c-28062,-16186 -62891,-16186 -90956,0l-194383 112225c-5245,3032 -5816,8057 -5816,10077 0,2020 571,7034 5816,10076l194393 112236 0 0zm45473 30047c-18822,0 -37637,-4846 -54422,-14544l-194383 -112236c-9260,-5343 -14785,-14897 -14785,-25579 0,-10682 5525,-20247 14785,-25580l194373 -112225c33551,-19393 75278,-19403 108857,0l194394 112225c9250,5333 14775,14898 14775,25573 0,10682 -5518,20243 -14765,25597l-194397 112225c-16784,9691 -35617,14544 -54432,14544l0 0z"/>
  </g>
 </g>
</svg>
