<?xml version="1.0" encoding="UTF-8"?>
<!DOCTYPE svg PUBLIC "-//W3C//DTD SVG 1.1//EN" "http://www.w3.org/Graphics/SVG/1.1/DTD/svg11.dtd">
<!-- Creator: CorelDRAW X7 -->
<svg xmlns="http://www.w3.org/2000/svg" xml:space="preserve" width="758px" height="705px" version="1.1" style="shape-rendering:geometricPrecision; text-rendering:geometricPrecision; image-rendering:optimizeQuality; fill-rule:evenodd; clip-rule:evenodd"
viewBox="0 0 258819 240743"
 xmlns:xlink="http://www.w3.org/1999/xlink">
 <defs>
  <style type="text/css">
   <![CDATA[
    .fil0 {fill:#FEFEFE}
    .fil2 {fill:#727271}
    .fil7 {fill:#E31E24}
    .fil1 {fill:#34353A}
    .fil6 {fill:#80241E}
    .fil3 {fill:#9D9E9E}
    .fil4 {fill:#C5C6C6}
    .fil8 {fill:#E31E24}
    .fil5 {fill:#FF333A}
    .fil9 {fill:#E31E24;fill-opacity:0.501961}
   ]]>
  </style>
 </defs>
 <g id="Слой_x0020_1">
  <metadata id="CorelCorpID_0Corel-Layer"/>
  <g id="_2118919871856">
   <path class="fil0" d="M70569 172295l49418 28532 0 0 -49418 -28532zm60978 36170c-4786,0 -9568,-1231 -13835,-3697l-49415 -28532c-4358,-2515 -5421,-3787 -5421,-6502 0,-2715 1356,-4156 5421,-6503l49412 -28529c8529,-4930 19137,-4933 27673,0l49418 28529c4260,2455 5418,3788 5418,6501 0,2715 -1109,4185 -5416,6508l-49418 28528c-4266,2464 -9054,3697 -13837,3697l0 0zm-64458 -36024l52239 30160 0 0 -52239 -30160zm64458 38234c-5059,0 -10114,-1301 -14624,-3907l-52236 -30161c-2488,-1434 -3973,-4003 -3973,-6873 0,-2870 1485,-5441 3973,-6874l52232 -30157c9016,-5211 20230,-5214 29253,0l52238 30157c2485,1433 3970,4004 3970,6872 0,2870 -1482,5441 -3968,6879l-52238 30157c-4510,2604 -9571,3908 -14627,3908l0 -1z"/>
   <path id="b1" class="fil1" d="M131547 191086l0 -10720c0,0 -12539,-2614 -24740,-9750 -12202,-7136 -16887,-11167 -23913,-16560 -7027,-5393 -19819,-11276 -19819,-11276l0 10198c0,0 608,242 1631,676 121,52 247,106 380,162 3881,1664 12493,5574 17808,9653 7026,5393 11711,9424 23913,16559 9478,5544 19160,9148 23010,10480 88,31 174,60 256,89 946,324 1474,489 1474,489z"/>
   <path id="b2" class="fil2" d="M155777 171378c-9151,5937 -24230,8988 -24230,8988l0 10720c0,0 21507,-6972 30658,-12910 9151,-5937 13999,-11776 21516,-17115 7517,-5338 14531,-8208 16298,-7844l0 -10981c-1767,-364 -8781,2506 -16298,7844 -7517,5338 -18792,15361 -27944,21298z"/>
   <path id="c1" class="fil3" d="M131547 180366l0 -15837c-8471,551 -15583,-1526 -23046,-6210 -7462,-4685 -9314,-8553 -16777,-13673 -7463,-5120 -12746,-2451 -19773,-4793 -7027,-2343 -8876,-12311 -8876,-12311l0 15238c0,0 12792,5883 19819,11276 7026,5393 11711,9424 23913,16560 12201,7136 24740,9750 24740,9750l0 0z"/>
   <path id="c2" class="fil4" d="M152182 152422c-6919,5338 -13908,9485 -20635,12107l0 15837c0,0 15079,-3051 24230,-8988 9152,-5937 20427,-15960 27944,-21298 7517,-5338 14531,-8208 16297,-7844l0 -7735c0,0 -2516,1525 -7473,1580 -4956,54 -10240,326 -16832,3213 -6591,2887 -16613,7790 -23531,13128l0 0z"/>
   <path id="top" class="fil5" d="M200018 120433c-13721,-6696 -19157,-7551 -25323,-12359 -6776,-5283 -8521,-12200 -17263,-18670 -6682,-4946 -12721,-4038 -25885,-8899 -12447,10483 -28335,11365 -39693,15572 -8728,3233 -14720,7337 -28779,16839 0,0 6811,-2015 14819,2887 8007,4903 13542,18758 25090,23824 11548,5066 28563,2541 28563,2541 0,0 8827,4140 18141,762l0 0c9315,-3377 16293,-14076 28658,-19850 8826,-4122 16277,-2574 19606,-2674 1335,-40 2066,27 2066,27z"/>
   <path id="d1" class="fil6" d="M131547 164529l0 -22361c0,0 -17015,2525 -28563,-2541 -11548,-5066 -17083,-18921 -25090,-23824 -8008,-4902 -14819,-2887 -14819,-2887l0 14626c0,0 1849,9968 8876,12311 7027,2342 12310,-327 19773,4793 7463,5120 9315,8988 16777,13673 7463,4684 14575,6761 23046,6210l0 0z"/>
   <path id="d2" class="fil7" d="M149688 142930c-9314,3378 -18141,-762 -18141,-762l0 22361c6727,-2622 13716,-6769 20635,-12107 6918,-5338 16940,-10241 23532,-13128 6591,-2887 11875,-3159 16831,-3213 4957,-55 7474,-1580 7474,-1580l0 -14068c0,0 -732,-67 -2067,-27 -3329,100 -10780,-1448 -19606,2674 -12365,5774 -19343,16473 -28658,19850l0 0z"/>
   <path class="fil8" d="M194213 203072c-722,0 -1443,185 -2087,556l-9597 5543c-112,64 -129,167 -129,221 0,55 17,157 129,222l9598 5541 1 0c1285,743 2884,743 4171,0l9599 -5541c110,-65 128,-167 128,-222 0,-54 -18,-157 -128,-221l-9599 -5543c-644,-371 -1365,-556 -2086,-556l0 0zm0 14162c-985,0 -1969,-253 -2848,-761l-9597 -5541c-557,-321 -890,-898 -890,-1540 0,-642 333,-1218 890,-1539l9597 -5542c1756,-1013 3939,-1014 5694,0l9598 5542c557,321 890,897 890,1539 0,642 -333,1219 -890,1540l-9597 5541c-877,508 -1862,761 -2847,761l0 0z"/>
   <path class="fil9" d="M176117 23340c2385,1375 5344,1375 7729,0l16518 -9537c445,-258 494,-685 494,-857 0,-171 -49,-598 -494,-856l-16519 -9536c-2385,-1376 -5345,-1376 -7729,0l-16518 9536c-446,258 -494,685 -494,856 0,172 48,598 494,856l16519 9538 0 0zm3864 2553c-1600,0 -3199,-411 -4625,-1236l-16518 -9537c-786,-454 -1256,-1266 -1256,-2174 0,-907 470,-1720 1256,-2173l16517 -9537c2851,-1647 6397,-1648 9251,0l16518 9537c786,453 1256,1266 1256,2173 0,907 -469,1720 -1255,2175l-16519 9536c-1426,824 -3026,1236 -4625,1236l0 0z"/>
   <path class="fil9" d="M85474 216373c-1337,0 -2673,344 -3865,1031l-16518 9537c-445,258 -493,684 -493,855 0,172 48,600 494,858l16518 9536c2384,1376 5344,1376 7729,0l16517 -9536c447,-258 495,-685 495,-857 0,-171 -48,-597 -495,-855l-16518 -9538c-1192,-687 -2528,-1031 -3864,-1031l0 0zm1 24370c-1600,0 -3199,-410 -4626,-1235l-16519 -9536c-786,-455 -1255,-1268 -1255,-2176 0,-907 470,-1719 1255,-2173l16518 -9536c2853,-1649 6399,-1649 9250,0l16518 9537c787,454 1256,1266 1256,2173 0,909 -469,1721 -1256,2175l-16517 9536c-1425,824 -3026,1235 -4624,1235z"/>
   <path class="fil9" d="M25120 102360c3232,1864 7243,1864 10475,0l22387 -12925c604,-350 669,-929 669,-1161 0,-233 -65,-812 -669,-1161l-22388 -12924c-3232,-1865 -7243,-1865 -10475,0l-22387 12924c-604,349 -670,928 -670,1161 0,232 66,810 670,1160l22388 12926 0 0zm5237 3460c-2168,0 -4335,-558 -6268,-1675l-22386 -12925c-1067,-616 -1703,-1716 -1703,-2946 0,-1231 636,-2332 1703,-2946l22385 -12925c3864,-2233 8670,-2235 12537,0l22388 12925c1065,614 1701,1715 1701,2945 0,1230 -635,2332 -1700,2948l-22388 12924c-1933,1117 -4102,1675 -6269,1675l0 0z"/>
   <path class="fil8" d="M235084 117895c2155,1243 4830,1243 6985,0l14928 -8619c403,-234 447,-619 447,-775 0,-154 -44,-541 -447,-773l-14928 -8619c-2156,-1243 -4830,-1243 -6986,0l-14928 8619c-402,232 -446,619 -446,773 0,156 44,541 446,774l14929 8620 0 0zm3492 2307c-1445,0 -2890,-372 -4179,-1117l-14928 -8619c-711,-410 -1136,-1144 -1136,-1965 0,-820 425,-1554 1136,-1964l14927 -8618c2577,-1490 5781,-1490 8360,0l14929 8618c710,410 1134,1144 1134,1964 0,820 -423,1555 -1133,1966l-14929 8618c-1289,745 -2735,1117 -4181,1117l0 0z"/>
   <path class="fil0" d="M70569 73289l49418 28531 0 0 -49418 -28531zm60978 36170c-4786,0 -9568,-1231 -13835,-3697l-49415 -28532c-4358,-2516 -5421,-3787 -5421,-6503 0,-2715 1356,-4156 5421,-6502l49412 -28530c8529,-4929 19137,-4932 27673,0l49418 28530c4260,2454 5418,3787 5418,6500 0,2716 -1109,4186 -5416,6508l-49418 28529c-4266,2464 -9054,3697 -13837,3697l0 0zm-64458 -36024l52239 30160 0 0 -52239 -30160zm64458 38234c-5059,0 -10114,-1301 -14624,-3908l-52236 -30160c-2488,-1435 -3973,-4003 -3973,-6874 0,-2870 1485,-5441 3973,-6873l52232 -30158c9016,-5211 20230,-5214 29253,0l52238 30158c2485,1432 3970,4003 3970,6871 0,2871 -1482,5441 -3968,6879l-52238 30157c-4510,2604 -9571,3908 -14627,3908l0 0z"/>
  </g>
 </g>
</svg>
