<?xml version="1.0" encoding="UTF-8"?>
<!DOCTYPE svg PUBLIC "-//W3C//DTD SVG 1.1//EN" "http://www.w3.org/Graphics/SVG/1.1/DTD/svg11.dtd">
<!-- Creator: CorelDRAW X7 -->
<svg xmlns="http://www.w3.org/2000/svg" xml:space="preserve" width="622px" height="710px" version="1.1" style="shape-rendering:geometricPrecision; text-rendering:geometricPrecision; image-rendering:optimizeQuality; fill-rule:evenodd; clip-rule:evenodd"
viewBox="0 0 660710 754307"
 xmlns:xlink="http://www.w3.org/1999/xlink">
 <defs>
  <style type="text/css">
   <![CDATA[
    .fil14 {fill:#182027}
    .fil11 {fill:#2C343B}
    .fil1 {fill:#5B5B5B}
    .fil10 {fill:#727271}
    .fil2 {fill:#9D9E9E}
    .fil12 {fill:#D9DADA}
    .fil0 {fill:white}
    .fil13 {fill:#2B2A29;fill-rule:nonzero}
    .fil7 {fill:#2C343B;fill-rule:nonzero}
    .fil6 {fill:#5B5B5B;fill-rule:nonzero}
    .fil8 {fill:#727271;fill-rule:nonzero}
    .fil3 {fill:#9D9E9E;fill-rule:nonzero}
    .fil4 {fill:#CD8FFF;fill-rule:nonzero}
    .fil5 {fill:#D9DADA;fill-rule:nonzero}
    .fil9 {fill:#E31E24;fill-rule:nonzero}
    .fil15 {fill:#E31E24;fill-opacity:0.501961}
   ]]>
  </style>
 </defs>
 <g id="Слой_x0020_2">
  <metadata id="CorelCorpID_0Corel-Layer"/>
  <g id="_2118914234976">
   <path class="fil0" d="M81437 618471l174899 100980 0 -1 -174899 -100979zm215811 128013c-16938,0 -33864,-4357 -48964,-13084l-174891 -100981c-15422,-8904 -19184,-13403 -19184,-23012 0,-9610 4801,-14710 19184,-23015l174881 -100971c30185,-17447 67728,-17456 97940,0l174897 100971c15077,8688 19175,13405 19175,23006 0,9612 -3923,14814 -19165,23032l-174900 100970c-15100,8719 -32046,13084 -48973,13084l0 0zm-228127 -127495l184880 106741 0 0 -184880 -106741zm228127 135318c-17904,0 -35796,-4607 -51759,-13831l-184870 -106744c-8806,-5078 -14061,-14167 -14061,-24325 0,-10158 5255,-19259 14061,-24328l184859 -106734c31909,-18442 71595,-18452 103530,0l184878 106734c8799,5069 14051,14170 14051,24319 0,10159 -5244,19256 -14041,24347l-184880 106731c-15963,9216 -33875,13831 -51768,13831l0 0z"/>
   <path class="fil1" d="M417868 561967c-22420,23903 -66308,40676 -116756,40676 -232,0 -451,0 -682,0l0 72637 0 1022c231,0 450,0 682,0 65273,0 119548,-27226 130602,-63083 1346,-4382 2056,-8889 2056,-13503l0 -6439 0 -67220c0,12838 -5759,25102 -15899,35912l-3 -2 0 0zm-116813 40676l-13 0 13 0zm-12 0l-14 0 14 0zm-14 0l-15 0 15 0zm-12 0l0 0 0 0zm0 0c-73225,-27 -132563,-34305 -132563,-76586l0 73659c0,42159 59025,76368 131975,76586l0 -1022 0 -72637 15 0 0 0 15 0 13 0 15 0 15 0 0 0 12 0 15 0 14 0 14 0 0 0 15 0 13 0 0 0 15 0 15 0 12 0 15 0 14 0 14 0 15 0 14 0 0 0 14 0 15 0 12 0 15 0 0 0 14 0 14 0 15 0 0 0 14 0 14 0 14 0 27 0 15 0 13 0 15 0 0 0 12 0 15 0 16 0 0 0 12 0 15 0 15 0 13 0 0 0 15 0 14 0 0 0 -25 0 5 0z"/>
   <path class="fil2" d="M168455 526057c0,42296 59391,76586 132657,76586 73263,0 132656,-34290 132656,-76586 0,-42295 -59391,-76587 -132656,-76587 -73266,0 -132657,34292 -132657,76587z"/>
   <path class="fil3" d="M343843 394474l-25946 14987c3565,-1891 8413,-1524 13763,1566 10973,6330 19888,21739 19888,34454 0,6328 -2220,10781 -5812,12863l12 0 26328 -14905c3608,-2098 5676,-6753 5718,-13123 13,-12675 -8903,-28097 -19874,-34453 -5529,-3146 -10483,-3456 -14077,-1388l0 0 -2 0 2 -1z"/>
   <path class="fil4" d="M331659 411028c10972,6330 19887,21739 19887,34441 -15,12701 -8916,17834 -19887,11477 -11001,-6331 -19902,-21755 -19902,-34455 0,-12659 8889,-17817 19902,-11461l0 -2 0 0z"/>
   <path class="fil3" d="M487294 311382l-37817 21861c2069,476 4262,1347 6535,2655 12373,7146 22420,24502 22420,38809 -14,2886 -422,5418 -1172,7568l38265 -21928c3608,-2110 5691,-6754 5718,-13124 14,-12686 -8903,-28095 -19876,-34452 -5513,-3146 -10466,-3471 -14074,-1388l0 0 1 -1 0 0z"/>
   <path class="fil5" d="M380257 379569c12347,7132 22379,24476 22379,38769 0,7093 -2492,12089 -6507,14444 -1252,735 -7230,4221 -7787,4546 4031,-2355 6520,-7350 6520,-14471 0,-14279 -10032,-31623 -22378,-38755 -5963,-3444 -11382,-3879 -15383,-1812l0 0c0,0 5894,-3429 7132,-4177 4071,-2452 9733,-2165 16022,1456l0 0 2 0 0 0z"/>
   <path class="fil6" d="M372482 384102c12346,7131 22379,24476 22379,38755 -13,12715 -7963,18691 -18418,14799 791,-2084 1225,-4589 1239,-7447 15,-12647 -8875,-28017 -19819,-34346 -2669,-1524 -5199,-2383 -7514,-2628 1633,-11449 10905,-15613 22133,-9136l0 0 0 3z"/>
   <path class="fil5" d="M368236 386580c12347,7131 22379,24474 22379,38768 0,7094 -2491,12102 -6507,14445 -1239,735 -7214,4219 -7773,4546 4014,-2355 6505,-7351 6519,-14471 0,-14280 -10046,-31623 -22394,-38756 -5962,-3444 -11366,-3878 -15381,-1810l0 0c0,0 5894,-3429 7147,-4179 4055,-2450 9733,-2164 16007,1457l0 0 3 0 0 0z"/>
   <path class="fil7" d="M360463 391111c12346,7133 22392,24477 22392,38757 -14,11257 -6246,17232 -14933,15749l4057 -2326c3593,-2098 5664,-6740 5703,-13084 15,-12646 -8875,-28016 -19819,-34346 -5498,-3145 -10428,-3458 -14020,-1388l-4861 2804c2708,-9147 11299,-12047 21481,-6167l-1 2 1 -1z"/>
   <path class="fil5" d="M472728 325973c12361,7148 22407,24518 22407,38824 0,7106 -2492,12117 -6508,14472 -1252,720 -7242,4219 -7800,4546 4031,-2356 6520,-7366 6535,-14483 0,-14310 -10048,-31679 -22421,-38811 -5975,-3443 -11381,-3879 -15395,-1811l0 0c0,0 5895,-3443 7146,-4193 4071,-2450 9749,-2164 16037,1456l0 0 -1 0z"/>
   <path class="fil6" d="M464942 330521c12374,7133 22420,24504 22420,38811 -14,12727 -7978,18716 -18444,14810 789,-2083 1225,-4601 1239,-7461 14,-12659 -8889,-28042 -19849,-34385 -2669,-1524 -5200,-2382 -7528,-2627 1648,-11462 10931,-15628 22162,-9148l0 0 0 0z"/>
   <path class="fil5" d="M460694 332999c12361,7147 22405,24504 22405,38809 0,7120 -2491,12130 -6506,14485 -1252,722 -7242,4206 -7801,4532 4030,-2340 6520,-7350 6534,-14470 0,-14320 -10046,-31678 -22405,-38824 -5976,-3445 -11394,-3880 -15410,-1810l0 0c0,0 5909,-3431 7148,-4180 4068,-2465 9746,-2165 16035,1456l0 0 0 2 0 0z"/>
   <path class="fil7" d="M453357 337300c12361,7146 22420,24516 22420,38824 -27,14294 -10059,20079 -22420,12918 -12387,-7120 -22420,-24516 -22420,-38824 0,-14251 10019,-20065 22420,-12917l0 -1z"/>
   <path class="fil8" d="M443543 351009l-57202 33037c7037,6699 12564,16417 14621,25852l57459 -33066c1905,-1103 3009,-3554 3021,-6914 14,-6686 -4697,-14825 -10481,-18174 -2913,-1661 -5529,-1824 -7419,-735l0 0 1 0z"/>
   <path class="fil8" d="M432149 373400l25237 14580c-1960,-1048 -4644,-843 -7597,859 -6058,3497 -10985,11993 -10985,19017 14,3485 1240,5949 3214,7092l0 0 -25444 -14524c-2000,-1157 -3145,-3717 -3157,-7242 -14,-6995 4916,-15505 10972,-19016 3037,-1744 5772,-1907 7761,-765l0 0 -1 -1 0 0z"/>
   <path class="fil7" d="M449791 388824c-6057,3514 -10986,12006 -10986,19033 14,6996 4927,9827 10986,6328 6072,-3497 10985,-12020 10985,-19017 0,-6995 -4900,-9842 -10985,-6344z"/>
   <path class="fil7" d="M477194 416338c7105,-12320 11502,-26151 11502,-38607 0,-10890 -3403,-18838 -9583,-22420 -6261,-3606 -14987,-2544 -24584,2995 -21821,12606 -39557,43194 -39557,68214 0,10891 3402,18854 9582,22419 6248,3608 14987,2546 24584,-2993 10957,-6332 20882,-17194 28055,-29609l0 0 1 1zm-60074 -33829c8085,-14008 19358,-26233 32017,-33542 13069,-7555 25634,-8618 35367,-2995 9652,5582 14974,16853 14974,31759 0,28928 -19738,63000 -44950,77554 -13068,7555 -25632,8617 -35366,2994 -9650,-5581 -14975,-16853 -14975,-31759 0,-14404 4901,-30098 12933,-44011l0 0z"/>
   <path class="fil9" d="M484652 420652c7121,-12320 11518,-26149 11503,-38605 15,-7513 -1619,-13654 -4656,-17886l-22461 28152c640,1414 1007,3157 1007,5225 0,7950 -5376,17547 -12184,22012l0 29962c10468,-6425 19902,-16922 26789,-28858l2 -2zm125 -61913c-6074,-2490 -14064,-1142 -22776,3881 -12769,7378 -24136,20909 -31378,35898l17002 1443c2383,-4139 5691,-7774 9340,-9884 1428,-832 2817,-1361 4097,-1619l23728 -29719 -13 0 0 0zm-57705 48124c-2955,8071 -4630,16280 -4630,23971 0,10890 3404,18854 9583,22420 4602,2655 10565,2777 17207,449l15 -32033c-3254,-857 -5364,-4055 -5364,-9024 0,-1388 165,-2844 476,-4302l-17287 -1471 0 -14 0 4zm-2478 -20039c8085,-14021 19371,-26232 32003,-33541 13083,-7556 25647,-8603 35367,-2997 9665,5582 14987,16854 14987,31761 0,28927 -19751,63000 -44963,77553 -13069,7541 -25619,8602 -35352,2981 -9652,-5567 -14974,-16854 -14974,-31746 0,-14417 4886,-30097 12933,-44011l0 0 -1 0z"/>
   <path class="fil8" d="M465038 403281l-4316 -2559 -27 26c-638,-381 -1525,-340 -2519,219 -2000,1116 -3633,3866 -3660,6141 -14,1157 367,1959 1021,2340l4247 2519c-612,-394 -966,-1184 -954,-2301 28,-2272 1675,-5021 3651,-6140 994,-558 1904,-597 2544,-218l14 -27 0 0 -1 0z"/>
   <path class="fil7" d="M458829 409667c27,-2272 1674,-5022 3648,-6141 1988,-1114 3581,-177 3566,2098 -41,2298 -1675,5036 -3662,6167 -1987,1116 -3591,176 -3552,-2125l0 0 0 1 0 0z"/>
   <path class="fil10" d="M354663 351853l0 173850c0,16960 -23834,30723 -53226,30723 -29404,0 -53227,-13764 -53227,-30723l0 -173850c0,20296 30058,30846 54180,30846 24137,0 52273,-10931 52273,-30846l0 0 0 0z"/>
   <path class="fil3" d="M101805 534047l-25945 14987c3581,-1892 8425,-1538 13777,1552 10971,6344 19886,21754 19886,34454 -14,6329 -2231,10782 -5812,12863l0 15 26328 -14907c3607,-2110 5690,-6752 5716,-13123 14,-12686 -8902,-28110 -19875,-34467 -5513,-3145 -10468,-3457 -14075,-1375l0 0 0 1 0 0z"/>
   <path class="fil8" d="M89634 550587c10973,6345 19888,21754 19888,34454 -13,12686 -8917,17818 -19888,11475 -11000,-6329 -19902,-21766 -19902,-34467 0,-12646 8890,-17807 19902,-11462z"/>
   <path class="fil3" d="M245270 450942l-37817 21861c2069,476 4262,1347 6534,2669 12361,7132 22408,24503 22408,38810 0,2872 -410,5418 -1158,7568l38266 -21942c3594,-2098 5690,-6740 5716,-13111 15,-12686 -8901,-28110 -19875,-34468 -5527,-3146 -10468,-3456 -14076,-1387l2 0 0 0z"/>
   <path class="fil11" d="M256173 429527c0,5583 14770,5583 14770,0 0,-2355 -3308,-4273 -7376,-4273 -4086,0 -7394,1920 -7394,4273zm0 0l0 10320c0,2355 3309,4261 7394,4261 4068,0 7376,-1906 7376,-4261l0 -10320c0,5568 -14770,5597 -14770,0z"/>
   <path class="fil11" d="M294018 437328c0,5596 14771,5596 14771,0 0,-2355 -3309,-4261 -7392,-4261 -4070,0 -7379,1906 -7379,4261l0 0zm0 0l0 10332c0,2357 3309,4261 7378,4261 4083,0 7392,-1904 7392,-4261l0 -10332c0,5581 -14771,5609 -14771,0l1 0z"/>
   <path class="fil11" d="M329045 429527c0,5583 14770,5583 14770,0 0,-2355 -3308,-4273 -7393,-4273 -4068,0 -7377,1920 -7377,4273zm0 0l0 10320c0,2355 3309,4261 7377,4261 4085,0 7393,-1906 7393,-4261l0 -10320c0,5568 -14770,5597 -14770,0z"/>
   <path class="fil12" d="M301437 426030c-42241,0 -76491,-19766 -76491,-44148l0 17085c0,24379 34250,44160 76491,44160 42241,0 76477,-19781 76477,-44160l0 -17085c0,24176 -34237,44148 -76477,44148z"/>
   <path class="fil10" d="M224946 381882c0,24381 34250,44148 76491,44148 42241,0 76477,-19766 76477,-44148 0,-12441 -8918,-23686 -23252,-31704l0 25593c0,16976 -23834,30738 -53226,30738 -29405,0 -53228,-13762 -53228,-30738l0 -25593c-14348,8018 -23264,19263 -23264,31704l0 0 2 0 0 0z"/>
   <path class="fil2" d="M224946 358074c0,24379 34250,44159 76491,44159 42229,0 76477,-19780 76477,-44159 0,-24381 -34248,-44148 -76477,-44148 -42241,0 -76491,19766 -76491,44148z"/>
   <path class="fil12" d="M300472 419319c314,0 640,0 966,0 42241,0 76477,-19766 76477,-44161l0 -17084c0,24190 -34237,44159 -76477,44159 -340,0 -680,-12 -1020,-12 -41778,-314 -75469,-19957 -75469,-44148l0 17083c0,24205 33732,43861 75523,44161l0 2z"/>
   <path class="fil5" d="M138232 519128c12348,7146 22380,24476 22380,38768 -14,7107 -2492,12102 -6507,14458 -1252,734 -7230,4206 -7788,4533 4031,-2340 6508,-7351 6522,-14456 0,-14295 -10033,-31637 -22381,-38771 -5962,-3443 -11380,-3865 -15381,-1811l-15 0c0,0 5894,-3417 7147,-4178 4057,-2451 9733,-2164 16022,1457l0 0 1 0z"/>
   <path class="fil6" d="M130459 523660c12347,7132 22380,24476 22380,38771 -15,12713 -7964,18691 -18419,14796 790,-2095 1211,-4601 1225,-7445 14,-12648 -8875,-28018 -19808,-34359 -2668,-1512 -5199,-2368 -7513,-2614 1633,-11448 10905,-15613 22134,-9147l0 0 1 -2 0 0z"/>
   <path class="fil5" d="M126211 526138c12349,7132 22381,24475 22381,38769 0,7105 -2493,12102 -6507,14458 -1241,722 -7230,4205 -7775,4533 4016,-2342 6508,-7351 6508,-14456 0,-14295 -10020,-31637 -22380,-38771 -5962,-3444 -11380,-3866 -15382,-1810l0 0c0,0 5895,-3431 7132,-4179 4070,-2450 9733,-2164 16022,1456l0 0 1 0 0 0z"/>
   <path class="fil7" d="M118440 530670c12347,7133 22379,24477 22379,38772 -14,11256 -6235,17220 -14918,15749l4056 -2340c3594,-2098 5664,-6725 5690,-13069 15,-12648 -8875,-28018 -19806,-34359 -5499,-3131 -10440,-3457 -14036,-1376l-4848 2805c2709,-9161 11286,-12062 21483,-6181l0 0 0 -1 0 0z"/>
   <path class="fil5" d="M230705 465547c12362,7133 22405,24503 22405,38809 -12,7120 -2490,12117 -6519,14472 -1240,734 -7229,4219 -7786,4546 4029,-2356 6520,-7351 6534,-14485 0,-14308 -10047,-31662 -22420,-38809 -5975,-3444 -11395,-3880 -15397,-1811l-12 0c0,0 5907,-3430 7161,-4179 4058,-2466 9733,-2178 16037,1456l0 0 -3 0 0 1z"/>
   <path class="fil6" d="M222919 470080c12375,7148 22420,24504 22420,38809 -27,12743 -7978,18719 -18458,14825 802,-2096 1225,-4602 1239,-7460 15,-12661 -8891,-28055 -19833,-34400 -2670,-1512 -5216,-2383 -7529,-2613 1633,-11462 10917,-15641 22162,-9163l0 0 -2 2 1 0z"/>
   <path class="fil5" d="M218671 472558c12361,7147 22407,24516 22407,38824 -15,7105 -2492,12115 -6520,14470 -1240,735 -7228,4222 -7785,4547 4029,-2355 6518,-7365 6533,-14484 0,-14307 -10047,-31662 -22419,-38809 -5964,-3444 -11395,-3880 -15397,-1811l-13 0c0,0 5906,-3430 7161,-4193 4070,-2450 9748,-2163 16035,1456l0 0 -1 0 -1 0z"/>
   <path class="fil7" d="M211321 476860c12374,7147 22420,24516 22420,38838 -15,14293 -10046,20080 -22420,12918 -12375,-7132 -22420,-24530 -22420,-38824 0,-14265 10019,-20078 22420,-12932l0 0z"/>
   <path class="fil8" d="M201505 490568l-57187 33052c7037,6685 12564,16417 14619,25851l57460 -33065c1906,-1116 2996,-3566 3008,-6928 15,-6685 -4681,-14811 -10480,-18161 -2901,-1674 -5514,-1836 -7420,-748l0 0 0 -2 0 1z"/>
   <path class="fil8" d="M190125 512961l25238 14581c-1973,-1050 -4642,-844 -7596,857 -6057,3499 -10985,12006 -10985,19018 0,3497 1225,5949 3212,7093l0 15 -25455 -14525c-1988,-1173 -3144,-3730 -3158,-7244 0,-7009 4916,-15518 10973,-19030 3047,-1727 5785,-1906 7774,-763l0 0 -2 -2 -1 0z"/>
   <path class="fil13" d="M207767 528398c-6058,3499 -10985,12006 -10985,19018 14,7010 4927,9841 10985,6328 6058,-3485 10973,-12006 10973,-19017 0,-6983 -4902,-9828 -10973,-6329z"/>
   <path class="fil14" d="M256173 320053c0,5595 14770,5595 14770,0 0,-2356 -3308,-4261 -7376,-4261 -4086,0 -7394,1905 -7394,4261zm0 0l0 10331c0,2355 3309,4261 7394,4261 4068,0 7376,-1906 7376,-4261l0 -10331c0,5580 -14770,5608 -14770,0z"/>
   <path class="fil11" d="M329045 320053c0,5595 14770,5595 14770,0 0,-2356 -3308,-4261 -7393,-4261 -4068,0 -7377,1905 -7377,4261zm0 0l0 10331c0,2355 3309,4261 7377,4261 4085,0 7393,-1906 7393,-4261l0 -10331c0,5580 -14770,5608 -14770,0z"/>
   <path class="fil10" d="M338654 254235l0 99619c0,11965 -16812,21671 -37545,21671 -20732,0 -37545,-9706 -37545,-21671l0 -99824c11149,3690 24068,5785 37830,5785 13531,0 26233,-2027 37259,-5580l0 0 1 0 0 0z"/>
   <path class="fil11" d="M256173 295222c0,5596 14770,5596 14770,0 0,-2355 -3308,-4260 -7376,-4260 -4086,0 -7394,1905 -7394,4260zm0 0l0 10332c0,2357 3309,4261 7394,4261 4068,0 7376,-1904 7376,-4261l0 -10332c0,5581 -14770,5609 -14770,0z"/>
   <path class="fil11" d="M294018 303038c0,5596 14771,5596 14771,0 0,-2355 -3309,-4261 -7392,-4261 -4070,0 -7379,1906 -7379,4261l0 0zm0 0l0 10331c0,2355 3309,4262 7378,4262 4083,0 7392,-1907 7392,-4262l0 -10331c0,5581 -14771,5596 -14771,0l1 0z"/>
   <path class="fil11" d="M329045 295222c0,5596 14770,5596 14770,0 0,-2355 -3308,-4260 -7393,-4260 -4068,0 -7377,1905 -7377,4260zm0 0l0 10332c0,2357 3309,4261 7377,4261 4085,0 7393,-1904 7393,-4261l0 -10332c0,5581 -14770,5609 -14770,0z"/>
   <path class="fil12" d="M301396 292106c-42226,0 -76477,-19766 -76477,-44160l0 17097c0,24380 34251,44147 76477,44147 42255,0 76492,-19765 76492,-44147l0 -17097c0,24190 -34237,44160 -76492,44160z"/>
   <path class="fil10" d="M224919 247946c0,24394 34251,44160 76492,44160 42241,0 76477,-19766 76477,-44160 0,-12429 -8918,-23673 -23252,-31692l0 25594c0,16960 -23836,30723 -53227,30723 -29405,0 -53240,-13763 -53240,-30723l0 -25594c-14335,8018 -23252,19263 -23252,31692l0 0 2 0z"/>
   <path class="fil2" d="M224919 224150c0,24380 34251,44148 76477,44148 42241,0 76492,-19766 76492,-44148 0,-24394 -34251,-44160 -76492,-44160 -42226,0 -76477,19766 -76477,44160z"/>
   <path class="fil12" d="M301396 268298c-42226,0 -76477,-19766 -76477,-44148l0 17084c0,24380 34251,44161 76477,44161 42255,0 76492,-19781 76492,-44161l0 -17084c0,24175 -34237,44148 -76492,44148z"/>
   <path class="fil7" d="M235157 555908c7119,-12320 11516,-26163 11502,-38620 14,-10875 -3404,-18839 -9583,-22405 -6247,-3608 -14976,-2546 -24571,2980 -21822,12608 -39559,43207 -39559,68229 0,10875 3403,18839 9583,22405 6247,3608 14975,2561 24572,-2994 10957,-6317 20896,-17194 28055,-29595l0 0 1 0zm-60062 -33825c8086,-14022 19358,-26248 32018,-33542 13068,-7555 25620,-8618 35353,-3009 9665,5581 14988,16865 14988,31758 0,28941 -19751,63000 -44963,77554 -13069,7556 -25620,8616 -35353,2995 -9665,-5581 -14974,-16854 -14974,-31745 0,-14416 4886,-30098 12931,-44011l0 0 0 0z"/>
   <path class="fil9" d="M242631 560211c7105,-12306 11502,-26149 11502,-38605 0,-7514 -1618,-13639 -4669,-17886l-22462 28164c654,1402 1021,3157 1021,5226 0,7937 -5377,17548 -12183,21998l0 29962c10456,-6413 19902,-16922 26791,-28861l0 2 0 0zm122 -61898c-6072,-2492 -14076,-1157 -22775,3865 -12782,7379 -24149,20924 -31391,35898l17016 1457c2369,-4138 5677,-7788 9340,-9896 1429,-817 2804,-1348 4098,-1608l23713 -29717 0 0 -1 1 0 0zm-57706 48121c-2953,8059 -4628,16282 -4628,23972 0,10877 3402,18841 9569,22407 4615,2669 10565,2792 17222,449l0 -32033c-3240,-857 -5350,-4042 -5350,-9024 0,-1388 163,-2845 477,-4302l-17290 -1471 0 0 0 2zm-2491 -20051c8100,-14008 19372,-26232 32018,-33530 13082,-7555 25645,-8617 35367,-3009 9665,5582 14973,16853 14973,31760 0,28940 -19737,63000 -44949,77564 -13069,7542 -25635,8606 -35367,2982 -9651,-5581 -14975,-16853 -14975,-31759 0,-14404 4902,-30098 12933,-44012l0 0 0 4z"/>
   <path class="fil8" d="M223014 542854l-4329 -2572 -14 41c-640,-381 -1525,-355 -2533,205 -1988,1116 -3622,3865 -3648,6152 -14,1143 368,1960 1006,2341l4261 2520c-613,-396 -980,-1199 -953,-2301 27,-2274 1660,-5036 3648,-6140 994,-558 1892,-612 2533,-231l27 -14 2 0 0 -1z"/>
   <path class="fil7" d="M216808 549239c26,-2274 1659,-5038 3648,-6140 1988,-1131 3580,-177 3554,2095 -28,2287 -1675,5036 -3650,6167 -1999,1105 -3592,164 -3552,-2124l0 3 0 -1z"/>
   <path class="fil11" d="M294018 247741c0,5596 14771,5596 14771,0 0,-2356 -3309,-4260 -7392,-4260 -4070,0 -7379,1904 -7379,4260l0 0zm0 0l0 10333c0,2355 3309,4260 7378,4260 4083,0 7392,-1905 7392,-4260l0 -10333c0,5581 -14771,5608 -14771,0l1 0z"/>
   <path class="fil11" d="M294046 177989c0,5596 14770,5596 14770,0 0,-2355 -3309,-4261 -7379,-4261 -4070,0 -7391,1906 -7391,4261zm0 0l0 10332c0,2355 3319,4261 7391,4261 4070,0 7379,-1906 7379,-4261l0 -10332c0,5581 -14770,5609 -14770,0z"/>
   <path class="fil11" d="M233836 213778c0,5595 14770,5595 14770,0 0,-2357 -3309,-4263 -7392,-4263 -4070,0 -7378,1906 -7378,4263zm0 0l0 10331c0,2355 3308,4262 7378,4262 4083,0 7392,-1907 7392,-4262l0 -10331c0,5581 -14770,5607 -14770,0z"/>
   <path class="fil11" d="M354732 213778c0,5595 14757,5595 14757,0 0,-2357 -3308,-4263 -7378,-4263 -4083,0 -7379,1906 -7379,4263l0 0zm0 0l0 10331c0,2355 3294,4262 7378,4262 4071,0 7379,-1907 7379,-4262l0 -10331c0,5581 -14758,5607 -14758,0l1 0z"/>
   <path class="fil11" d="M256173 185760c0,5597 14770,5597 14770,0 0,-2355 -3308,-4260 -7376,-4260 -4086,0 -7394,1905 -7394,4260zm0 0l0 10319c0,2369 3309,4274 7394,4274 4068,0 7376,-1904 7376,-4274l0 -10319c0,5582 -14770,5597 -14770,0z"/>
   <path class="fil11" d="M256173 239927c0,5595 14770,5595 14770,0 0,-2355 -3308,-4262 -7376,-4262 -4086,0 -7394,1907 -7394,4262zm0 0l0 10331c0,2341 3309,4261 7394,4261 4068,0 7376,-1920 7376,-4261l0 -10331c0,5581 -14770,5595 -14770,0z"/>
   <path class="fil11" d="M329045 185760c0,5597 14770,5597 14770,0 0,-2355 -3308,-4260 -7393,-4260 -4068,0 -7377,1905 -7377,4260zm0 0l0 10319c0,2369 3309,4274 7377,4274 4085,0 7393,-1904 7393,-4274l0 -10319c0,5582 -14770,5597 -14770,0z"/>
   <path class="fil11" d="M329045 239927c0,5595 14770,5595 14770,0 0,-2355 -3308,-4262 -7393,-4262 -4068,0 -7377,1907 -7377,4262zm0 0l0 10331c0,2341 3309,4261 7377,4261 4085,0 7393,-1920 7393,-4261l0 -10331c0,5581 -14770,5595 -14770,0z"/>
   <path class="fil14" d="M294018 382032c0,5596 14771,5596 14771,0 0,-2355 -3309,-4261 -7392,-4261 -4070,0 -7379,1906 -7379,4261l0 0zm0 0l0 10333c0,2355 3309,4260 7378,4260 4083,0 7392,-1905 7392,-4260l0 -10333c0,5582 -14771,5608 -14771,0l1 0z"/>
   <path class="fil14" d="M233836 348083c0,5580 14770,5580 14770,0 0,-2356 -3309,-4274 -7392,-4274 -4070,0 -7378,1919 -7378,4274zm0 0l0 10319c0,2355 3308,4260 7378,4260 4083,0 7392,-1905 7392,-4260l0 -10319c0,5566 -14770,5595 -14770,0z"/>
   <path class="fil14" d="M354732 348083c0,5580 14757,5580 14757,0 0,-2356 -3308,-4274 -7378,-4274 -4083,0 -7379,1919 -7379,4274l0 0zm0 0l0 10319c0,2355 3294,4260 7378,4260 4071,0 7379,-1905 7379,-4260l0 -10319c0,5566 -14758,5595 -14758,0l1 0z"/>
   <path class="fil14" d="M256173 374219c0,5594 14770,5594 14770,0 0,-2357 -3308,-4262 -7376,-4262 -4086,0 -7394,1905 -7394,4262zm0 0l0 10331c0,2355 3309,4260 7394,4260 4068,0 7376,-1905 7376,-4260l0 -10331c0,5579 -14770,5607 -14770,0z"/>
   <path class="fil14" d="M329045 374219c0,5594 14770,5594 14770,0 0,-2357 -3308,-4262 -7393,-4262 -4068,0 -7377,1905 -7377,4262zm0 0l0 10331c0,2355 3309,4260 7377,4260 4085,0 7393,-1905 7393,-4260l0 -10331c0,5579 -14770,5607 -14770,0z"/>
   <path class="fil0" d="M81437 240764l174899 100980 0 -2 -174899 -100978zm215811 128013c-16938,0 -33864,-4357 -48964,-13084l-174891 -100981c-15422,-8904 -19184,-13403 -19184,-23012 0,-9610 4801,-14710 19184,-23015l174881 -100971c30185,-17447 67728,-17456 97940,0l174897 100971c15077,8688 19175,13405 19175,23006 0,9612 -3923,14814 -19165,23032l-174900 100970c-15100,8719 -32046,13084 -48973,13084l0 0zm-228127 -127496l184880 106742 0 0 -184880 -106742zm228127 135319c-17904,0 -35796,-4607 -51759,-13831l-184870 -106744c-8806,-5078 -14061,-14167 -14061,-24325 0,-10158 5255,-19259 14061,-24328l184859 -106734c31909,-18442 71595,-18452 103530,0l184878 106734c8799,5069 14051,14170 14051,24319 0,10159 -5244,19256 -14041,24347l-184880 106731c-15963,9216 -33875,13831 -51768,13831l0 0z"/>
   <path class="fil15" d="M57703 404387c7424,4283 16638,4283 24061,0l51424 -29688c1389,-804 1538,-2134 1538,-2668 0,-535 -149,-1865 -1538,-2667l-51426 -29689c-7424,-4282 -16638,-4282 -24063,0l-51424 29689c-1387,802 -1537,2132 -1537,2667 0,534 150,1861 1537,2665l51428 29691 0 0zm12029 7949c-4979,0 -9957,-1280 -14397,-3846l-51423 -29692c-2451,-1414 -3912,-3942 -3912,-6767 0,-2826 1461,-5357 3912,-6768l51419 -29688c8877,-5130 19915,-5133 28798,0l51428 29688c2447,1411 3908,3942 3908,6765 0,2827 -1459,5356 -3906,6772l-51427 29690c-4440,2563 -9422,3846 -14400,3846l0 0z"/>
   <path class="fil15" d="M166351 65943c6738,3886 15100,3886 21837,0l46669 -26943c1259,-731 1396,-1937 1396,-2423 0,-483 -137,-1691 -1396,-2418l-46671 -26945c-6738,-3885 -15099,-3885 -21838,0l-46668 26945c-1259,727 -1395,1935 -1395,2418 0,486 136,1690 1395,2420l46671 26947 0 -1zm10917 7214c-4519,0 -9035,-1163 -13065,-3491l-46669 -26947c-2223,-1283 -3550,-3576 -3550,-6142 0,-2563 1327,-4860 3550,-6141l46667 -26942c8054,-4656 18072,-4659 26134,0l46671 26942c2221,1281 3547,3578 3547,6140 0,2564 -1324,4860 -3545,6146l-46671 26944c-4029,2326 -8551,3491 -13067,3491l-2 0z"/>
   <path class="fil15" d="M504053 749386c4596,2651 10302,2651 14898,0l31838 -18381c859,-499 951,-1321 951,-1652 0,-330 -92,-1154 -951,-1651l-31840 -18382c-4597,-2651 -10301,-2651 -14898,0l-31838 18382c-859,497 -952,1321 -952,1651 0,331 93,1152 952,1650l31840 18383 0 0zm7449 4921c-3085,0 -6165,-793 -8914,-2381l-31839 -18384c-1516,-874 -2421,-2439 -2421,-4189 0,-1750 905,-3317 2421,-4191l31836 -18380c5496,-3177 12330,-3178 17830,0l31840 18380c1514,874 2419,2441 2419,4189 0,1750 -902,3317 -2418,4193l-31839 18382c-2749,1586 -5834,2381 -8915,2381l0 0z"/>
   <path class="fil15" d="M578947 457371c7424,4284 16638,4284 24061,0l51424 -29688c1387,-804 1538,-2134 1538,-2668 0,-535 -151,-1865 -1538,-2667l-51426 -29689c-7424,-4282 -16638,-4282 -24063,0l-51424 29689c-1387,802 -1537,2132 -1537,2667 0,534 150,1861 1537,2665l51428 29691 0 0zm12029 7949c-4981,0 -9957,-1280 -14397,-3846l-51423 -29692c-2451,-1414 -3912,-3942 -3912,-6767 0,-2826 1461,-5357 3912,-6768l51419 -29689c8877,-5129 19915,-5132 28798,0l51427 29689c2447,1411 3909,3942 3909,6765 0,2827 -1459,5356 -3906,6772l-51427 29690c-4440,2563 -9422,3846 -14400,3846l0 0z"/>
  </g>
 </g>
</svg>
